<svg width="32" height="32" viewBox="0 0 32 32" fill="none" xmlns="http://www.w3.org/2000/svg">
<path fill-rule="evenodd" clip-rule="evenodd" d="M14.6132 12.32C14.1504 12.32 13.6799 12.7392 13.6799 13.36C13.6799 13.8301 13.7807 13.9996 13.8313 14.064C13.8913 14.1405 14.0114 14.2357 14.3324 14.3502L18.3485 15.7512C18.8184 15.9185 19.3553 16.181 19.7563 16.6945C20.1663 17.2195 20.3332 17.8742 20.3332 18.6267C20.3332 20.2636 19.0663 21.6667 17.3998 21.6667H14.8932C13.0728 21.6667 11.6665 20.1366 11.6665 18.3333C11.6665 17.781 12.1142 17.3333 12.6665 17.3333C13.2188 17.3333 13.6665 17.781 13.6665 18.3333C13.6665 19.1167 14.2602 19.6667 14.8932 19.6667H17.3998C17.8667 19.6667 18.3332 19.2564 18.3332 18.6267C18.3332 18.1658 18.2334 17.9939 18.18 17.9255C18.1179 17.846 17.9954 17.7488 17.6807 17.6365L13.6645 16.2355C13.2009 16.0705 12.6615 15.8127 12.2584 15.2993C11.8456 14.7737 11.6799 14.1166 11.6799 13.36C11.6799 11.7408 12.9426 10.32 14.6132 10.32H17.1198C18.9402 10.32 20.3465 11.8501 20.3465 13.6533C20.3465 14.2056 19.8988 14.6533 19.3465 14.6533C18.7942 14.6533 18.3465 14.2056 18.3465 13.6533C18.3465 12.8699 17.7528 12.32 17.1198 12.32H14.6132Z" fill="#5B2CE7"/>
<path fill-rule="evenodd" clip-rule="evenodd" d="M16 9C16.5523 9 17 9.44772 17 10V22C17 22.5523 16.5523 23 16 23C15.4477 23 15 22.5523 15 22V10C15 9.44772 15.4477 9 16 9Z" fill="#5B2CE7"/>
<path fill-rule="evenodd" clip-rule="evenodd" d="M15.9998 3.66666C9.19212 3.66666 3.6665 9.19228 3.6665 16C3.6665 22.8077 9.19212 28.3333 15.9998 28.3333C22.8076 28.3333 28.3332 22.8077 28.3332 16C28.3332 15.4477 28.7809 15 29.3332 15C29.8855 15 30.3332 15.4477 30.3332 16C30.3332 23.9123 23.9121 30.3333 15.9998 30.3333C8.08755 30.3333 1.6665 23.9123 1.6665 16C1.6665 8.08771 8.08755 1.66666 15.9998 1.66666C16.5521 1.66666 16.9998 2.11437 16.9998 2.66666C16.9998 3.21894 16.5521 3.66666 15.9998 3.66666Z" fill="#5B2CE7"/>
<path fill-rule="evenodd" clip-rule="evenodd" d="M23 2.66666C23 2.11437 23.4477 1.66666 24 1.66666H29.3333C29.8856 1.66666 30.3333 2.11437 30.3333 2.66666V7.99999C30.3333 8.55227 29.8856 8.99999 29.3333 8.99999C28.781 8.99999 28.3333 8.55227 28.3333 7.99999V3.66666H24C23.4477 3.66666 23 3.21894 23 2.66666Z" fill="#5B2CE7"/>
<path fill-rule="evenodd" clip-rule="evenodd" d="M30.0403 1.95955C30.4308 2.35007 30.4308 2.98324 30.0403 3.37376L23.3736 10.0404C22.9831 10.431 22.3499 10.431 21.9594 10.0404C21.5689 9.64991 21.5689 9.01674 21.9594 8.62622L28.6261 1.95955C29.0166 1.56903 29.6498 1.56903 30.0403 1.95955Z" fill="#5B2CE7"/>
</svg>
