<svg width="48" height="48" viewBox="0 0 48 48" fill="none" xmlns="http://www.w3.org/2000/svg">
<path d="M43.32 20.88L41.36 29.24C39.68 36.46 36.36 39.38 30.12 38.78C29.12 38.7 28.04 38.52 26.88 38.24L23.52 37.44C15.18 35.46 12.6 31.34 14.56 22.98L16.52 14.6C16.92 12.9 17.4 11.42 18 10.2C20.34 5.36002 24.32 4.06002 31 5.64002L34.34 6.42002C42.72 8.38002 45.28 12.52 43.32 20.88Z" stroke="#C9C4FF" stroke-width="1.5" stroke-linecap="round" stroke-linejoin="round"/>
<path d="M30.12 38.7799C28.88 39.6199 27.32 40.3199 25.42 40.9399L22.26 41.9799C14.32 44.5399 10.14 42.3999 7.56001 34.4599L5.00001 26.56C2.44001 18.62 4.56001 14.42 12.5 11.86L15.66 10.82C16.48 10.56 17.26 10.34 18 10.2C17.4 11.42 16.92 12.9 16.52 14.6L14.56 22.98C12.6 31.34 15.18 35.4599 23.52 37.4399L26.88 38.24C28.04 38.52 29.12 38.6999 30.12 38.7799Z" stroke="#C9C4FF" stroke-width="1.5" stroke-linecap="round" stroke-linejoin="round"/>
<path d="M25.28 17.0601L34.98 19.5201" stroke="#C9C4FF" stroke-width="1.5" stroke-linecap="round" stroke-linejoin="round"/>
<path d="M23.32 24.8L29.12 26.2801" stroke="#C9C4FF" stroke-width="1.5" stroke-linecap="round" stroke-linejoin="round"/>
</svg>
