<svg width="32" height="32" viewBox="0 0 32 32" fill="none" xmlns="http://www.w3.org/2000/svg">
<path d="M28.0048 3.4812L17.5996 11.2416L19.5238 6.66309L28.0048 3.4812Z" fill="#E2761B"/>
<path d="M3.98378 3.4812L14.3054 11.3152L12.4753 6.66309L3.98378 3.4812ZM24.2609 21.4699L21.4897 25.7334L27.4191 27.3716L29.1237 21.5644L24.2609 21.4699ZM2.88574 21.5644L4.57986 27.3716L10.5093 25.7334L7.73803 21.4699L2.88574 21.5644Z" fill="#E4761B"/>
<path d="M10.1747 14.266L8.52246 16.7758L14.41 17.0384L14.2009 10.6851L10.1747 14.266ZM21.814 14.266L17.7355 10.6116L17.5996 17.0384L23.4767 16.7758L21.814 14.266ZM10.5094 25.7334L14.044 24.0007L10.9904 21.6064L10.5094 25.7334ZM17.9447 24.0007L21.4898 25.7334L20.9983 21.6064L17.9447 24.0007Z" fill="#E4761B"/>
<path d="M21.4892 25.7334L17.9441 24.0007L18.2264 26.3215L18.1951 27.2981L21.4892 25.7334ZM10.5088 25.7334L13.8029 27.2981L13.782 26.3215L14.0434 24.0007L10.5088 25.7334Z" fill="#D7C1B3"/>
<path d="M13.8553 20.0733L10.9062 19.2017L12.9873 18.2461L13.8553 20.0733ZM18.1324 20.0733L19.0004 18.2461L21.0919 19.2017L18.1324 20.0733Z" fill="#233447"/>
<path d="M10.5095 25.7335L11.0115 21.4699L7.73828 21.5645L10.5095 25.7335ZM20.988 21.4699L21.4899 25.7335L24.2612 21.5645L20.988 21.4699ZM23.4768 16.7759L17.5997 17.0384L18.1435 20.0733L19.0115 18.2461L21.103 19.2017L23.4768 16.7759ZM10.9069 19.2017L12.9984 18.2461L13.8559 20.0733L14.4102 17.0384L8.5226 16.7759L10.9069 19.2017Z" fill="#CD6116"/>
<path d="M8.52246 16.7759L10.9904 21.6065L10.9068 19.2017L8.52246 16.7759ZM21.1029 19.2017L20.9983 21.6065L23.4767 16.7759L21.1029 19.2017ZM14.41 17.0384L13.8558 20.0733L14.546 23.6542L14.7029 18.9391L14.41 17.0384ZM17.5996 17.0384L17.3172 18.9286L17.4427 23.6542L18.1434 20.0733L17.5996 17.0384Z" fill="#E4751F"/>
<path d="M18.1429 20.0733L17.4422 23.6542L17.9442 24.0007L20.9978 21.6065L21.1023 19.2017L18.1429 20.0733ZM10.9062 19.2017L10.9899 21.6065L14.0435 24.0007L14.5455 23.6542L13.8553 20.0733L10.9062 19.2017Z" fill="#F6851B"/>
<path d="M18.1951 27.2981L18.2264 26.3215L17.965 26.0904H14.0225L13.782 26.3215L13.8029 27.2981L10.5088 25.7334L11.6591 26.6785L13.9911 28.3062H17.9964L20.3389 26.6785L21.4892 25.7334L18.1951 27.2981Z" fill="#C0AD9E"/>
<path d="M17.9443 24.0006L17.4424 23.6541H14.5456L14.0437 24.0006L13.7822 26.3214L14.0227 26.0903H17.9652L18.2267 26.3214L17.9443 24.0006Z" fill="#161616"/>
<path d="M28.4438 11.7457L29.3327 7.46118L28.0046 3.4812L17.9444 10.9791L21.8137 14.266L27.283 15.8727L28.4961 14.455L27.9732 14.077L28.8098 13.3104L28.1614 12.8063L28.998 12.1658L28.4438 11.7457ZM2.66602 7.46118L3.5549 11.7457L2.9902 12.1658L3.8268 12.8063L3.18889 13.3104L4.02549 14.077L3.50262 14.455L4.70523 15.8727L10.1745 14.266L14.0438 10.9791L3.98366 3.4812L2.66602 7.46118Z" fill="#763D16"/>
<path d="M27.2831 15.8727L21.8138 14.266L23.4766 16.7758L20.9982 21.6064L24.2609 21.5644H29.1237L27.2831 15.8727ZM10.1746 14.266L4.70535 15.8727L2.88574 21.5644H7.73803L10.9903 21.6064L8.52234 16.7758L10.1746 14.266ZM17.5995 17.0383L17.9446 10.9791L19.5341 6.66309H12.4753L14.0439 10.9791L14.4099 17.0383L14.5354 18.9496L14.5459 23.6541H17.4426L17.4635 18.9496L17.5995 17.0383Z" fill="#F6851B"/>
</svg>
