<svg width="32" height="32" viewBox="0 0 32 32" fill="none" xmlns="http://www.w3.org/2000/svg">
<path fill-rule="evenodd" clip-rule="evenodd" d="M6.66667 10.3333C5.74619 10.3333 5 11.0795 5 12V24C5 24.9205 5.74618 25.6667 6.66667 25.6667H25.3333C26.2538 25.6667 27 24.9205 27 24V12C27 11.0795 26.2538 10.3333 25.3333 10.3333H6.66667ZM3 12C3 9.97497 4.64162 8.33334 6.66667 8.33334H25.3333C27.3584 8.33334 29 9.97497 29 12V24C29 26.0251 27.3584 27.6667 25.3333 27.6667H6.66667C4.64163 27.6667 3 26.0251 3 24V12Z" fill="#5B2CE7"/>
<path d="M22.0002 18.6667C21.632 18.6667 21.3335 18.3681 21.3335 18C21.3335 17.6319 21.632 17.3333 22.0002 17.3333C22.3683 17.3333 22.6668 17.6319 22.6668 18C22.6668 18.3681 22.3683 18.6667 22.0002 18.6667Z" fill="#5B2CE7"/>
<path fill-rule="evenodd" clip-rule="evenodd" d="M22.0002 18.3333C22.1843 18.3333 22.3335 18.1842 22.3335 18C22.3335 17.8159 22.1843 17.6667 22.0002 17.6667C21.816 17.6667 21.6668 17.8159 21.6668 18C21.6668 18.1842 21.816 18.3333 22.0002 18.3333ZM20.3335 18C20.3335 17.0796 21.0797 16.3333 22.0002 16.3333C22.9206 16.3333 23.6668 17.0796 23.6668 18C23.6668 18.9204 22.9206 19.6667 22.0002 19.6667C21.0797 19.6667 20.3335 18.9204 20.3335 18Z" fill="#5B2CE7"/>
<path fill-rule="evenodd" clip-rule="evenodd" d="M20.3885 3.92811C22.7163 3.30738 24.9999 5.06188 24.9999 7.47097V9.33335H22.9999V7.47097C22.9999 6.37591 21.9619 5.57844 20.9039 5.86058L6.23716 9.7717L5.97949 8.80547" fill="#5B2CE7"/>
</svg>
