<svg width="32" height="32" viewBox="0 0 32 32" fill="none" xmlns="http://www.w3.org/2000/svg">
<path fill-rule="evenodd" clip-rule="evenodd" d="M7.3335 15.8667C7.88578 15.8667 8.3335 16.3144 8.3335 16.8667C8.3335 20.2833 11.553 23 16.0002 23C20.4473 23 23.6668 20.2833 23.6668 16.8667C23.6668 16.3144 24.1145 15.8667 24.6668 15.8667C25.2191 15.8667 25.6668 16.3144 25.6668 16.8667V21.8C25.6668 26.6392 21.203 30.3333 16.0002 30.3333C10.7973 30.3333 6.3335 26.6392 6.3335 21.8V16.8667C6.3335 16.3144 6.78121 15.8667 7.3335 15.8667ZM8.33503 21.9298C8.41576 25.3563 11.6841 28.3333 16.0002 28.3333C20.3162 28.3333 23.5846 25.3563 23.6653 21.9298C21.8615 23.8691 19.0334 25 16.0002 25C12.9669 25 10.1388 23.8691 8.33503 21.9298Z" fill="#5B2CE7"/>
<path fill-rule="evenodd" clip-rule="evenodd" d="M16.0002 3.66666C13.8333 3.66666 11.9091 4.42466 10.5244 5.63336L10.524 5.63376C9.15189 6.82993 8.3335 8.44644 8.3335 10.2C8.3335 11.226 8.6143 12.166 9.10678 12.9719L9.10798 12.9738C10.3159 14.9608 12.8843 16.3333 16.0002 16.3333C19.116 16.3333 21.6844 14.9608 22.8923 12.9738L22.8935 12.9719C23.386 12.166 23.6668 11.226 23.6668 10.2C23.6668 8.44846 22.8501 6.8313 21.4761 5.62021C20.0901 4.42365 18.1655 3.66666 16.0002 3.66666ZM9.20969 4.12622C10.9716 2.5885 13.3673 1.66666 16.0002 1.66666C18.6331 1.66666 21.027 2.58841 22.7875 4.11012L22.7943 4.11604L22.7943 4.11607C24.5382 5.65133 25.6668 7.79296 25.6668 10.2C25.6668 11.6003 25.2812 12.8999 24.6007 14.0138C22.9551 16.7196 19.6572 18.3333 16.0002 18.3333C12.3432 18.3333 9.04532 16.7197 7.39971 14.0139C6.71917 12.9 6.3335 11.6003 6.3335 10.2C6.3335 7.79376 7.46156 5.65043 9.20922 4.12662" fill="#5B2CE7"/>
<path fill-rule="evenodd" clip-rule="evenodd" d="M16.0002 3.66666C11.6297 3.66666 8.3335 6.71922 8.3335 10.2V16.8667C8.3335 20.2833 11.553 23 16.0002 23C20.4473 23 23.6668 20.2833 23.6668 16.8667V10.2C23.6668 8.44846 22.8501 6.8313 21.4761 5.62021C20.0901 4.42365 18.1655 3.66666 16.0002 3.66666ZM6.3335 10.2C6.3335 5.36077 10.7973 1.66666 16.0002 1.66666C18.6331 1.66666 21.027 2.58841 22.7875 4.11012L22.7943 4.11604L22.7943 4.11607C24.5382 5.65133 25.6668 7.79296 25.6668 10.2V16.8667C25.6668 21.77 21.1263 25 16.0002 25C10.874 25 6.3335 21.77 6.3335 16.8667V10.2Z" fill="#5B2CE7"/>
</svg>
