<svg width="32" height="32" viewBox="0 0 32 32" fill="none" xmlns="http://www.w3.org/2000/svg">
<path d="M25.3333 26.6667H6.66667C5.19391 26.6667 4 25.4728 4 24V12C4 10.5273 5.19391 9.33334 6.66667 9.33334H25.3333C26.8061 9.33334 28 10.5273 28 12V24C28 25.4728 26.8061 26.6667 25.3333 26.6667Z" stroke="#C9C4FF" stroke-width="1.5"/>
<path d="M22.0002 18.6667C21.632 18.6667 21.3335 18.3681 21.3335 18C21.3335 17.6319 21.632 17.3333 22.0002 17.3333C22.3683 17.3333 22.6668 17.6319 22.6668 18C22.6668 18.3681 22.3683 18.6667 22.0002 18.6667Z" fill="#C9C4FF" stroke="#C9C4FF" stroke-width="1.5" stroke-linecap="round" stroke-linejoin="round"/>
<path d="M24 9.33332V7.47095C24 5.71887 22.3392 4.44288 20.6463 4.89432L5.97956 8.80544C4.81223 9.11673 4 10.1739 4 11.3821V12" stroke="#C9C4FF" stroke-width="1.5"/>
</svg>
