<svg width="285" height="204" viewBox="0 0 285 204" fill="none" xmlns="http://www.w3.org/2000/svg">
<path fill-rule="evenodd" clip-rule="evenodd" d="M209.757 164.048C208.41 165.838 206.421 167.166 204.895 168.802C203.292 170.52 201.552 172.022 199.956 173.72C192.913 163.834 183.266 157.772 174.908 149.568C170.946 145.679 168.027 140.403 165.891 134.989C164.796 132.214 163.986 129.357 163.353 126.4C163.068 125.069 162.789 123.741 162.603 122.391C162.377 120.756 162.319 120.617 161.358 119.341C160.945 118.792 160.144 117.187 159.335 117.364C158.653 117.513 157.407 119.896 156.976 120.484C154.905 123.314 152.897 126.231 150.717 128.951C147.381 133.115 144.344 137.211 141.247 141.624C134.911 150.651 128.077 159.149 121.18 167.644C120.669 168.274 119.476 170.121 118.741 170.37C117.848 170.671 116.396 169.413 115.496 168.709C113.324 167.011 111.612 164.909 109.755 162.804C106.132 158.696 103.678 152.93 102.028 147.444C101.04 144.16 100.397 140.756 99.3777 137.483C98.9527 136.119 97.9894 134.443 98.4785 133.255C98.624 132.901 99.5509 131.96 99.8778 131.888C100.264 131.803 100.909 132.411 101.043 132.369C102.325 131.966 101.614 130.424 102.377 129.595C102.809 129.124 105.009 129.193 105.665 128.934C108.067 127.988 110.221 126.184 112.491 125.107C121.993 120.597 131.612 116.211 139.815 108.848C141.943 106.938 143.357 105.504 145.895 104.269C148.461 103.022 151.04 101.91 153.657 100.821C155.967 99.8613 158.289 98.9611 160.675 98.2729C163.255 97.5286 166.914 96.5849 169.492 97.5437C174.554 99.4259 176.189 104.216 178.204 109.27C180.932 116.107 184.229 122.577 187.804 128.87C194.682 140.978 203.046 151.842 209.757 164.048Z" fill="#5B2CE7"/>
<path fill-rule="evenodd" clip-rule="evenodd" d="M67.5357 1.15831L66.6431 1.15863C67.8349 1.22804 69.0074 1.36465 70.1495 1.56932C71.9893 1.89918 73.7549 2.60652 75.4584 3.16931C77.9332 3.98694 80.8959 3.71462 83.2326 5.04298C84.8664 5.97146 86.121 7.78825 87.5427 9.0652L87.7014 9.20479C89.4386 10.7 90.8821 12.9316 92.0891 14.9954C94.6703 19.4086 93.6617 27.5993 91.5012 32.0293C91.0381 32.9795 90.4657 33.7793 89.6993 34.4278C88.9012 35.1026 87.6847 35.3125 87.2734 36.1877C86.22 38.4296 87.2361 43.283 87.3766 45.7061C87.5403 48.5197 86.3017 50.6331 83.524 50.8575C81.941 50.9857 81.8676 49.9486 81.1303 52.0236L81.0963 52.1201C80.5976 53.5481 80.1446 55.1039 79.425 56.4131C77.9412 59.1112 75.2237 58.8478 72.7483 58.7749C69.8829 58.6899 67.0603 58.17 64.1934 57.8418C64.9506 60.6283 67.0233 62.7911 68.3177 65.2735C70.0677 68.631 71.1211 71.4141 71.4056 75.3259C71.624 78.3313 71.1527 80.7047 69.3621 82.9415C68.621 83.8673 67.964 83.9129 68.148 84.9809C68.2561 85.6092 69.1721 86.6311 69.5486 87.1695L69.5882 87.2273C70.5065 88.6029 71.5727 89.8655 72.3809 91.3346C75.4909 96.9872 76.4095 105.604 76.4172 112.184C76.4175 112.486 76.5577 113.127 76.4417 113.439C76.3558 113.67 75.7033 114.4 75.6937 114.463C75.5661 115.309 76.2842 116.759 77.4113 116.903C78.595 117.053 80.7629 115.918 81.864 115.546C83.626 114.949 85.4219 114.509 87.1801 113.896C90.0196 112.906 92.846 112.117 95.7326 111.341C97.0371 110.991 98.3488 110.7 99.6574 110.372L99.8039 110.334C101.194 109.954 101.866 109.337 102.61 111.021L102.674 111.169C103.244 112.533 102.914 112.761 104.458 112.033C106.046 111.285 107.597 110.357 109.147 109.513C111.881 108.023 115.136 106.696 117.494 104.497C121.428 100.829 122.885 94.9871 126.649 91.0948C127.697 90.0111 128.323 89.9919 128.986 88.4905C129.695 86.8837 130.061 84.823 130.434 83.0946C131.087 80.0679 131.552 77.0307 132.145 74.0068C132.883 70.2395 134.478 66.8279 135.642 63.2347C136.096 61.8347 136.331 60.0553 137.062 58.7971C137.256 58.4635 137.627 58.2755 137.778 57.9994C138.298 57.0516 138.293 56.7912 138.428 55.6509C139.052 50.3761 141.773 53.0705 144.763 54.3105L144.936 54.3818C146.367 54.9955 152.136 58.2455 149.871 60.4214C150.868 60.7539 152.083 60.9006 153.225 61.1676C153.347 61.1698 153.467 61.1932 153.585 61.2561L153.756 61.3026C155.542 61.8045 157.025 62.7398 157.003 65.3766C156.984 67.7007 155.774 70.1868 155.124 72.3622C154.547 74.2938 153.99 76.2329 153.404 78.1614C152.12 82.3859 150.562 86.484 149.309 90.7215C148.738 92.6527 148.267 94.6291 147.472 96.4518C146.77 98.0596 145.073 99.8319 144.793 101.59C151.001 98.5482 156.816 94.36 163.431 93.3377L163.245 93.3434C163.591 93.0617 163.944 93.024 164.301 93.2223C165.233 93.1196 166.181 93.0819 167.15 93.1209C170.749 93.2658 174.015 95.0035 176.003 98.6382C178.495 103.194 180.135 108.295 182.57 112.892C191.258 129.29 201.586 144.217 211.154 159.904L211.727 160.846C212.474 162.079 213.435 163.244 213.694 164.766C213.863 165.759 213.535 166.753 213.738 167.707C214.151 169.653 216.205 172.074 217.644 173.241L217.727 173.307C220.49 175.491 224.982 178.573 228.431 178.3C227.235 174.999 226.709 171.523 226.494 167.998L226.493 168.201C226.26 167.792 226.277 167.388 226.441 166.986C226.328 164.464 226.356 161.923 226.396 159.408C226.488 153.598 227.017 147.832 227.657 142.08L227.803 140.785C227.933 139.645 228.072 138.561 228.363 137.435C228.752 135.928 229.287 136.071 228.121 134.716C226.327 132.63 224.192 130.914 222.384 128.802C218.472 124.234 214.462 120.654 211.383 115.2L209.824 112.439C207.393 108.118 204.983 103.672 203.198 98.9937C200.967 93.1456 200.075 86.9001 198.967 80.7068C198.518 78.1936 196.879 75.3879 197.208 72.7634C197.62 69.4797 198.937 71.8141 199.492 73.593L199.508 73.6468C201.172 79.0955 205.067 83.9721 208.294 88.3542C211.779 93.0881 216.043 97.0488 219.681 101.645C223.643 106.651 226.357 112.404 229.881 117.747C229.881 111.116 227.909 104.363 227.103 97.8027C226.429 92.3173 226.194 86.8155 225.788 81.307L225.722 80.4372C224.704 67.2639 225.584 53.7026 227.013 40.6236C227.389 37.1908 227.439 33.8028 227.412 30.4064L227.402 29.3867C227.374 26.9755 227.32 24.5576 227.328 22.1139C227.334 20.1303 226.619 15.5585 227.531 13.7982C229.258 10.4603 230.273 17.6526 230.379 18.8634L230.382 18.8982C230.909 25.4461 229.963 31.9211 230.446 38.4409C230.952 45.2495 232.048 51.8669 232.981 58.5968C233.992 65.8835 235.637 73.0059 237.212 80.1529C238.866 87.6568 240.257 95.3173 242.096 102.761C242.578 100.488 241.935 97.7107 241.772 95.3693L241.759 95.1638C241.563 91.7535 241.179 88.3426 241.146 84.9234L241.13 83.1035C241.091 78.5459 241.087 73.9358 241.283 69.4046L241.325 68.4995C241.589 63.1532 241.509 57.551 242.937 52.4003C243.615 49.9556 244.608 47.5705 245.581 45.2677C246.78 42.428 247.204 39.6747 247.868 36.6546C248.437 34.0681 249.27 31.5498 249.649 28.9116L249.714 28.4623C249.996 26.5503 250.673 22.7209 252.178 26.0969C253.127 28.2268 252.717 31.3843 252.744 33.6725C252.778 36.6059 252.387 39.4582 252.327 42.3794L252.253 46.0438C252.179 49.7073 252.089 53.3684 251.901 57.0281L251.9 57.0279C251.872 57.59 251.841 58.152 251.807 58.714L251.754 59.5569C251.364 65.5598 251.705 70.9397 252.699 76.8546C253.787 83.3292 254.106 89.8179 254.67 96.3716C254.96 99.7555 255.451 103.121 255.688 106.509C255.806 108.2 255.242 112.865 256.113 114.468C256.166 114.567 256.225 114.654 256.29 114.728C256.398 111.62 257.174 108.509 257.761 105.48C258.458 101.892 258.739 98.1199 259.252 94.4805C260.084 88.5841 261.696 82.9531 262.764 77.1228L262.895 76.3977C265.039 64.4894 266.975 49.5003 276.009 41.7909C277.215 40.7616 278.54 40.0018 279.844 39.1548C280.582 38.6752 281.679 37.4345 282.523 37.2181C283.445 36.9817 283.83 37.1653 284.203 38.3936C284.724 40.106 283.771 40.9058 282.882 42.1495C279.86 46.3735 278.537 51.7661 276.692 56.7364L276.587 57.0173C272.93 66.7264 270.986 76.8819 270.445 87.2884C270.354 89.0222 270.303 90.7626 270.289 92.5091L270.282 94.0743C270.241 100.324 269.856 106.377 269.274 112.606L269.179 113.608C268.536 120.305 267.672 127.321 265.91 133.73C267.766 134.208 269.779 133.496 270.283 135.974C270.407 136.582 270.183 137.302 270.32 138.094C270.453 138.864 270.773 139.63 270.962 140.387C271.326 141.842 271.53 143.279 271.71 144.764L271.751 145.108C272.487 151.324 273.75 157.237 273.885 163.54C274.008 169.366 273.015 175.269 272.1 180.983C271.178 186.738 268.534 191.645 266.453 196.849C267.349 196.849 268.245 196.86 269.14 196.871C272.419 197.275 275.774 197.08 279.084 197.338L279.667 197.388C280.94 197.509 282.705 197.69 281.424 199.652C280.633 200.864 278.133 200.507 276.932 200.573L276.863 200.578C273.717 200.807 270.386 200.684 267.232 200.63C266.568 200.619 265.835 200.393 265.164 200.444C264.389 200.502 263.462 201.142 262.756 201.137C262.321 201.134 262.165 200.607 261.789 200.559C260.972 200.453 260.155 200.376 259.331 200.376C247.826 200.379 236.467 200.134 225.009 200.085L222.143 200.076C216.594 200.07 210.963 199.967 205.405 199.692L204.133 199.627C202.686 199.574 195.865 199.805 196.058 197.276C196.159 195.947 198.478 195.759 199.325 195.618C199.874 195.527 200.44 195.528 200.994 195.504L201.382 195.484C202.945 195.415 203.621 195.786 203.28 193.752C201.944 185.794 199.55 179.218 194.436 173.496C190.634 169.243 186.127 165.348 181.78 161.74L180.482 160.666C174.731 155.922 170.065 150.933 166.651 143.673C164.657 139.434 162.987 135.1 161.963 130.413C161.594 128.727 161.586 126.809 161.134 125.183C160.786 123.931 159.994 123.055 159.528 121.759C153.806 132.736 146.222 141.92 139.268 151.817C135.946 156.545 132.155 161.036 128.185 165.15C127.007 166.371 125.908 167.645 124.808 168.959C123.889 170.058 122.429 171.036 121.652 172.255L121.567 172.39C120.923 173.423 121.136 173.407 122.224 174.299C123.723 175.527 125.375 176.547 126.898 177.745C129.331 179.659 131.988 181.277 134.164 183.581C135.982 185.506 137.623 187.667 139.224 189.846L141.197 192.544C142.455 194.281 143.846 196.359 144.145 198.411L144.165 198.54C144.301 199.389 144.663 201.161 144.12 201.706C143.631 202.196 143.68 202.01 143.073 201.711C142.277 201.319 142.043 200.42 141.071 199.991C138.584 198.895 135.575 199.271 132.987 199.258C130.398 199.245 127.788 199.579 125.201 199.566C119.573 199.54 114.06 200.037 108.445 200.339L107.594 200.383L106.878 200.414C101.103 200.63 95.2678 200.007 89.5096 200.042L88.7249 200.051C84.0921 200.13 79.3358 199.732 74.575 200.028C72.1262 200.18 69.7212 199.828 67.3335 199.788C65.1728 199.753 62.9717 199.975 60.7772 200.139L60.3008 200.173C59.4796 200.231 58.6598 200.277 57.8439 200.295C52.6688 200.409 47.557 200.409 42.3504 200.551L34.8917 200.757C26.197 200.995 17.5219 201.223 8.80608 201.381C7.41808 201.406 5.90793 201.358 4.51657 201.505L4.1951 201.544C2.62987 201.749 3.43929 202.131 2.36354 202.78C-0.648066 204.594 0.0474259 197.868 0.1196 196.545C0.506712 189.456 2.07366 182.503 3.95673 175.773C5.74318 169.39 7.19351 162.709 8.70647 156.188C10.3626 149.051 12.5203 142.205 14.4798 135.138L14.6862 134.388C16.5684 127.504 18.189 120.409 21.5819 114.286L21.7687 113.953C22.5993 112.491 23.4576 110.917 24.7937 109.996L24.9412 109.896C26.2007 109.063 26.341 109.438 26.3536 108.026L26.3561 107.236C26.3657 105.592 26.4154 103.563 26.125 102.021L26.083 101.812L26.0428 101.629C25.7618 100.381 25.7713 101.108 25.1053 100.154L25.0589 100.086C24.4528 99.189 23.8188 98.5758 23.384 97.4866C21.7031 99.444 18.6588 99.5196 15.9896 98.7486L15.8632 98.7112C14.3397 98.2539 12.949 97.5238 12.0181 96.7159C8.85947 93.9742 6.45358 89.3489 5.57199 84.9439C4.86397 81.4066 5.73274 74.6637 9.1416 72.9627C10.8034 72.1334 16.9071 71.5066 17.1514 68.804C17.2772 67.4088 15.129 65.4471 14.6334 64.2476C13.7148 62.0252 12.8326 59.0691 12.5773 56.633C12.0786 51.8779 13.9581 46.5607 16.9522 43.3488C20.788 39.2336 26.6584 36.5176 32.2572 36.527C32.4371 36.4705 32.6177 36.4671 32.7995 36.5365C35.0283 36.6112 37.2019 37.1279 39.1733 38.171C37.6803 31.6207 36.779 25.9699 37.5309 19.1561C38.1787 13.2861 41.1941 10.0019 45.3435 7.07798C51.3747 2.82762 59.2545 0.768633 66.4613 1.14824L66.4475 1.15866C66.8104 0.872296 67.1731 0.87949 67.5357 1.15831ZM173.603 177.555C174.42 178.133 174.067 180.271 174.026 181.124L173.965 182.363C173.731 186.928 173.34 191.701 171.233 195.651C169.182 199.495 165.198 199.976 161.585 200.176L161.303 200.191C161.06 200.089 160.815 200 160.57 199.922C157.816 199.04 155.028 199.451 153.244 196.073C152.751 195.139 152.336 194.136 152.037 193.099C151.892 192.645 151.778 192.18 151.698 191.703C151.85 190.677 151.522 190.388 150.717 190.835C149.135 190.482 147.401 191.729 145.735 191.362C141.694 190.47 142.428 183.823 145.14 181.521C145.675 181.067 146.21 180.94 146.824 180.716C148.175 180.221 148.907 180.773 150.143 180.633C151.142 180.52 151.417 179.316 152.49 178.786C153.154 178.459 154.062 178.465 154.783 178.437L154.908 178.431C158.776 178.249 162.656 178.251 166.548 177.961C168.363 177.826 170.323 178.156 172.102 177.8C172.934 177.633 172.815 176.997 173.603 177.555ZM27.2268 115.53C25.5444 116.52 24.1962 120.255 23.3182 122.301L23.2208 122.525C22.1516 124.952 21.5705 127.575 20.8855 130.159L20.7955 130.496C19.302 136.041 18.2683 141.791 16.4395 147.284C12.9441 157.783 10.6975 169.096 7.54095 179.801C7.32801 183.205 5.65818 186.448 5.07691 189.795C4.80492 191.363 4.34354 192.903 4.02383 194.462C3.71724 195.956 2.60959 197.727 2.72173 199.206C6.80997 197.533 10.951 197.112 15.2239 196.661C19.2736 196.233 23.5519 196.063 27.5676 196.061C31.6598 196.058 36.0352 195.599 40.2487 195.528C44.6552 195.454 49.1282 195.323 53.4708 194.798C51.2 192.866 48.3587 191.052 46.682 188.365C44.8592 185.443 43.9126 181.783 42.3087 178.7C39.1508 172.63 37.1215 165.126 35.4526 158.281L35.0639 156.685L34.6219 154.884C31.4215 141.884 28.0786 129.044 27.2268 115.53ZM269.14 196.871L267.37 196.849C267.963 196.565 268.553 196.578 269.14 196.871ZM260.479 138.139L261.033 138.134L260.47 138.14C255.338 138.525 250.172 138.615 245.042 138.682C242.307 138.717 239.557 138.849 236.849 138.873C235.605 138.884 234.389 138.814 233.141 138.674C232.723 138.628 232.316 138.518 231.895 138.491L231.749 138.481C230.462 138.385 230.551 138.211 230.191 139.624C229.54 142.19 230.041 145.454 229.87 148.117C229.656 151.438 229.534 154.803 229.565 158.136L229.574 158.849C229.626 162.145 229.528 165.432 229.636 168.735C229.677 170.017 229.794 171.077 230.068 172.281L230.124 172.523C230.48 174 230.87 177.45 231.755 178.472C231.855 178.588 232.607 178.317 232.807 178.607C233.114 179.053 233.058 179.998 233.269 180.286C233.952 181.22 235.364 181.294 236.389 181.713C239.052 182.804 241.506 183.983 244.01 185.424L244.428 185.667C246.795 187.054 250.611 188.234 252.034 190.97C252.687 192.225 252.775 193.879 253.375 195.173C254.058 196.647 252.691 195.877 254.365 196.475C255.119 196.744 256.32 196.475 257.093 196.475L259.111 196.615C258.575 196.643 258.032 196.788 257.504 196.649C258.442 196.927 259.933 196.755 260.659 196.634C262.112 196.39 262.297 195.738 263.186 194.285L263.248 194.185C264.871 191.563 266.19 189.052 267.145 186.015C268.973 180.201 269.72 174.254 270.522 168.173C271.414 161.416 269.785 154.413 269.202 147.702C269.088 146.382 268.937 145.072 268.763 143.763L268.674 143.108C268.547 142.195 268.514 139.087 267.99 138.296C266.987 136.779 262.325 137.998 260.479 138.139ZM163.263 181.364C160.058 181.703 156.743 181.743 153.535 181.503L153.531 183.236C153.532 186.429 153.663 189.515 155.314 192.289C156.719 194.652 159.359 195.21 161.855 195.492C164.602 196.092 168.329 195.249 170.085 192.468C170.818 191.308 171.206 189.608 171.471 188.154L171.595 187.45C171.879 185.867 172.582 182.42 172.068 181.092C171.411 179.391 165.101 181.168 163.263 181.364ZM43.3778 62.291C41.4536 62.464 39.3558 63.8615 37.8181 65.0902C38.8118 66.1075 41.2976 67.3441 39.5121 69.1767C37.7793 70.9558 36.8223 67.7644 36.1611 66.3661C33.0475 69.3027 33.4975 73.3518 33.1378 77.501C32.9499 79.6672 32.4558 81.8005 32.1369 83.9341C31.9073 85.4697 32.0683 87.0581 32.0027 88.6258C31.8354 92.6099 31.4868 96.4233 31.5026 100.352C31.5217 104.55 31.7707 108.605 32.0633 112.774C32.5557 119.791 33.6839 126.812 34.6514 133.774C35.1957 137.687 35.9407 141.489 36.6639 145.34C37.4846 149.709 39.003 153.848 39.8545 158.207C40.6843 156.995 41.3174 156.937 42.5989 157.081L42.7778 157.102C43.8571 157.231 44.5821 156.936 44.5189 158.656C44.478 159.772 43.6209 160.624 42.6725 160.819C41.4357 161.073 41.0155 160.365 40.3782 159.289C40.229 161.326 41.422 163.456 41.8938 165.446C42.3403 167.332 42.6361 169.18 43.3865 170.985C44.0141 172.494 44.5643 173.985 45.1752 175.479L45.4864 176.226C45.7423 176.828 45.9857 177.436 46.2371 178.041L46.4917 178.643C46.6662 179.048 46.8717 179.607 47.1321 179.948C47.7428 180.749 47.6456 180.361 48.3605 180.817L48.6319 180.992C49.8461 181.788 49.3354 181.693 49.3694 183.615C49.4049 185.639 50.3086 187.126 51.7577 188.263C54.7654 190.625 57.7329 191.319 61.1328 192.49L61.3601 192.569C64.6169 193.705 68.0472 194.68 71.4957 194.658C75.7194 194.631 79.8869 193.995 84.1106 193.931C88.7703 193.86 93.4747 193.889 98.1248 194.074L98.644 194.095C100.278 194.168 101.825 194.286 103.417 194.736L103.669 194.81C105.745 195.441 107.755 195.22 109.886 195.115L110.107 195.105C114.327 194.916 118.677 194.561 122.88 194.46C122.856 194.446 122.832 194.43 122.808 194.413L124.375 194.436C127.731 194.409 131.272 194.14 134.64 194.372C135.775 194.386 137.696 195.187 138.711 194.704L138.272 194.148C135.428 190.56 132.75 187.459 129.127 184.792L127.434 183.546C124.051 181.055 120.687 178.556 117.396 175.896C109.659 169.642 103.969 162.225 100.737 151.81C99.9573 149.296 99.4186 146.666 98.8518 144.076L98.738 143.558C98.4099 142.073 97.7568 135.126 96.6476 134.527C95.9906 134.171 91.0458 138.163 90.2623 138.66C88.4306 139.824 86.5919 140.726 84.6981 141.636C80.6275 143.594 76.431 145.087 72.1143 146.334C66.9389 147.828 63.4138 145.355 60.2077 140.683C56.7003 135.572 53.7644 129.829 50.5773 124.434L50.2221 123.836C48.7818 121.425 47.5767 119.018 46.5004 116.382L46.3399 115.985C45.609 114.158 42.7098 109.228 43.7116 107.282C46.5696 109.781 47.5979 114.75 49.5448 118.096C51.9713 122.267 54.7058 126.199 57.1448 130.365L57.3962 130.798C59.3682 134.212 61.4119 138.217 64.3183 140.633C66.9837 142.848 69.5157 142.167 72.3842 141.172C75.8607 139.965 79.4643 139.37 82.8714 137.874C86.5585 136.255 90.047 133.958 93.6444 132.085C95.3214 131.211 97.3294 130.715 98.9098 129.626C100.247 128.705 100.076 128.211 100.163 126.303L100.169 126.196C100.286 123.865 100.42 121.533 100.51 119.201C100.57 117.634 99.8322 115.509 100.333 114.339C96.2489 115.153 92.2573 116.242 88.2018 117.205C85.9814 117.733 83.8404 118.385 81.5973 118.799C80.7423 118.957 79.5735 118.953 78.8079 119.381C78.1971 119.179 77.8858 119.307 77.8738 119.765C77.8446 120.013 77.7984 120.258 77.7349 120.499C76.5281 121.129 75.8079 119.849 74.7852 118.55L74.6681 118.404C73.3278 116.742 72.3242 114.871 71.3409 112.919C69.1423 108.555 66.6082 104.45 64.5736 99.9621C62.5 95.3875 60.8158 90.4896 59.0577 85.7434C57.4448 81.3891 56.412 76.6799 54.6298 72.4287C53.8722 70.6214 52.9218 69.1121 51.8162 67.5876L51.6492 67.3588C50.6778 66.0359 49.1833 63.1823 47.7327 62.5746C47.3492 62.414 46.3447 62.6839 45.909 62.6483C45.0405 62.577 44.2666 62.2108 43.3778 62.291ZM49.1588 195.075L47.8937 195.059L48.0043 195.006C48.3913 194.829 48.7773 194.762 49.1588 195.075ZM211.002 167.8C209.504 169.69 207.794 171.209 206.035 172.703L204.655 173.87C203.84 174.55 202.18 175.865 201.933 176.812C201.605 178.068 202.483 179.27 202.917 180.541C203.815 183.17 204.342 185.799 204.83 188.496L205.176 190.435C205.418 191.791 205.94 193.83 206.91 194.399C207.793 194.915 210.352 194.54 211.451 194.444L213.533 194.263C218.554 193.835 223.519 193.489 228.589 193.888L229.782 193.98C235.771 194.428 242.094 194.706 248.044 194.248L248.62 194.201C249.049 194.167 249.477 194.134 249.905 194.102C245.961 192.19 242.123 189.535 238.007 188.222C234.387 187.067 230.862 185.702 227.371 184.286L226.172 183.799C223.348 182.659 220.781 181.689 218.2 179.641C216.541 178.324 215.068 176.844 213.928 174.92C212.659 172.778 212.376 169.729 211.002 167.8ZM135.994 194.388L134.64 194.372L134.754 194.318C135.169 194.127 135.584 194.05 135.994 194.388ZM248.621 194.201C248.885 194.343 249.141 194.391 249.388 194.346C249.186 194.363 248.943 194.313 248.621 194.201ZM151.187 187.406L151.336 183.641L151.252 183.666C150.105 183.994 145.584 184.611 145.584 186.284C145.585 187.314 150.344 187.294 151.187 187.406ZM160.675 98.57C155.793 99.9446 151.025 102.079 146.401 104.321C141.711 106.595 137.71 110.679 133.473 113.961C128.927 117.481 124.007 120.046 118.914 122.291C114.48 124.246 110.535 127.052 106.125 129.02C105.246 129.412 103.452 129.354 102.715 129.866C101.92 130.416 102.233 132.042 101.269 132.642C100.834 132.912 100.689 131.931 100.355 131.947C99.9666 131.966 99.611 132.464 99.2389 132.813L99.18 132.866C97.5769 134.287 98.559 135.234 99.1937 137.189C101.263 143.557 102.374 150.036 105.279 156.049C107.624 160.9 110.962 165.257 114.891 168.511L115.11 168.69C115.722 169.188 117.718 171.117 118.436 170.989C119.067 170.877 120.334 168.996 120.811 168.405L120.846 168.362C122.873 165.928 124.725 163.31 126.75 160.872C129.88 157.105 132.893 153.236 135.93 149.417C139.456 144.984 142.576 139.96 145.752 135.223C147.213 133.044 149.093 131.269 150.717 129.249C152.9 126.532 154.905 123.611 156.976 120.781L157.058 120.665C157.692 119.742 158.694 117.735 159.626 117.76C160.308 117.778 161.511 119.623 161.868 120.201C163.195 122.351 163.189 126.233 163.849 128.916C165.459 135.458 168.361 141.848 172.343 146.897C176.301 151.917 181.373 155.487 186.055 159.523L186.701 160.082C191.535 164.278 196.104 168.61 199.955 174.017C201.392 172.489 202.945 171.119 204.41 169.608L204.894 169.099C206.421 167.463 208.41 166.135 209.757 164.345C203.921 153.732 196.616 144.343 190.531 133.919C187.124 128.082 183.807 122.17 180.939 115.957C178.853 111.438 177.556 104.99 174.334 101.535L174.075 101.258C172.729 99.8348 171.282 98.4811 169.492 97.8404C166.884 96.9073 163.294 97.8322 160.675 98.57ZM228.891 50.0721C228.133 53.9279 228.38 58.1513 228.144 62.1036L228.119 62.4852C227.835 66.6344 227.863 70.7071 227.957 74.8806C228.132 82.6325 228.852 90.2909 229.463 98.0247C230.219 104.3 231.805 110.656 231.866 117.007C231.879 118.405 231.673 119.956 231.927 121.334C232.197 122.805 233.078 124.105 233.587 125.503L233.673 125.738C234.528 128.029 236.37 132.334 234.466 134.15C234.426 132.366 233.005 130.1 232.289 128.54C231.209 126.189 229.791 124.04 228.621 121.747C226.172 116.948 223.428 112.253 220.271 108.022C217.331 104.081 213.961 100.565 210.821 96.833L210.394 96.3226C209.415 95.1436 201.557 83.7964 201.245 83.955C203.682 94.7497 207.825 104.142 213.495 113.18C216.206 117.5 219.445 120.38 222.742 124L222.996 124.28C225.814 127.406 231.125 130.749 230.151 135.87C234.556 135.384 238.932 134.607 243.377 134.607C242.672 128.368 242.125 122.224 240.914 116.087L240.782 115.43C239.3 108.213 238.296 100.78 237.043 93.4991C235.763 86.0661 233.593 78.8701 232.243 71.4511C230.95 64.3469 229.839 57.2554 228.891 50.0721ZM249.422 42.8576C248.747 44.549 248.589 46.7135 247.976 48.4882C247.363 50.2611 246.543 51.9502 245.955 53.7355C244.714 57.5013 244.265 61.7493 244.115 65.7659L244.104 66.0911C243.793 75.3916 243.633 84.6713 244.177 93.9718C244.411 97.9582 244.589 101.952 244.526 105.946C244.456 110.341 243.87 114.156 244.581 118.515C245.286 122.831 245.728 127.13 245.963 131.51L245.982 131.862C246.072 133.432 246.163 134.021 246.704 134.197L247.867 134.168C247.82 134.194 247.773 134.218 247.726 134.239L248.07 134.21C248.274 134.192 248.499 134.171 248.747 134.15C250.591 133.994 252.452 134.161 254.298 134.064C253.435 122.083 253.294 110.078 251.915 98.1435C251.212 92.055 251.193 85.8784 250.319 79.8124C249.885 76.7991 249.156 73.8465 248.738 70.8297C248.305 67.7107 248.494 64.5713 248.547 61.4284L248.552 61.0658C248.576 57.9319 249.076 54.8382 249.278 51.7154L249.315 51.0816C249.404 49.8222 250.224 43.2107 249.422 42.8576ZM276.873 46.0805C274.29 47.6489 272.84 51.2813 271.479 54.117L271.405 54.2709C269.658 57.8829 268.494 61.8824 267.781 65.9373C266.405 73.7598 264.895 81.6059 263.307 89.4154C262.697 92.4139 262.18 95.4227 261.675 98.4307L261.171 101.44L260.908 102.993C260.289 106.617 259.629 110.231 258.787 113.818L258.204 116.273C257.432 119.549 256.643 123.167 256.544 126.34L256.537 126.646C256.508 128.323 256.068 131.837 256.73 133.294C257.337 134.632 258.667 134.038 260 133.884L260.075 133.876L260.372 133.769C260.707 133.653 261.043 133.581 261.378 133.822L261.975 133.78C262.374 133.753 262.772 133.731 263.174 133.731C262.575 130.516 263.976 126.356 264.473 123.147C265.029 119.558 265.452 115.846 265.823 112.228C266.604 104.607 266.958 97.0783 266.968 89.4013C266.97 88.1331 267.006 86.8835 267.072 85.6477C266.891 85.2249 266.913 84.8042 267.129 84.3871L267.126 84.7396C267.5 79.0697 268.506 73.6658 269.805 68.0432C271.576 60.3738 274.476 53.4769 276.873 46.0805ZM126.942 96.4473C124.881 98.8639 123.585 102.076 121.743 104.683C119.707 107.564 117.076 109.247 114.176 110.778C111.162 112.37 108.049 113.623 104.965 114.973L104.387 115.228C103.007 115.839 103.034 116.189 102.914 117.927C102.8 119.577 102.793 121.248 102.76 122.907L102.745 123.573L102.739 123.787L102.693 124.47C102.668 124.808 102.641 125.143 102.604 125.479L102.632 125.423L102.846 126.208C104.186 125.972 105.772 124.536 106.909 123.8L107.014 123.733C108.523 122.792 110.033 121.754 111.508 120.808C114.356 118.982 117.59 117.778 120.631 116.278C123.95 114.641 127.014 112.679 130.176 110.708L130.677 110.397C131.844 109.672 140.231 105.496 140.09 104.356L134.566 104.145C132.987 104.084 130.542 104.494 129.03 103.934C128.202 103.627 127.273 102.496 126.96 101.61C126.651 100.734 127.346 96.7042 126.942 96.4473ZM58.0273 75.0943C57.6727 75.1401 60.6331 83.321 61.035 84.394L61.0463 84.4243C62.3315 87.8329 63.6807 91.2082 64.9828 94.6082C66.2443 97.9031 67.8447 100.934 69.457 104.012C70.836 106.645 72.2544 110.73 74.3346 112.679C73.0212 105.987 73.1942 98.2919 69.4268 92.6726L66.968 89.0067C63.9061 84.4352 60.8958 79.8819 58.0273 75.0943ZM270.182 100.71C270.436 101.159 270.426 101.609 270.191 102.062L270.182 100.71ZM138.817 63.3237C138.192 64.1164 137.973 66.2898 137.633 67.3136C136.728 70.0412 135.676 72.6736 134.917 75.4639C134.233 77.9805 133.583 80.4704 132.98 83.01C132.344 85.691 131.089 87.9007 130.325 90.4618L130.181 90.9501C129.68 92.6624 129.231 94.4107 129.122 96.2232L129.087 96.9179C128.997 98.5318 128.903 98.6648 130.533 98.9639C131.126 99.0726 131.94 99.3784 132.665 99.4362C132.59 99.4014 132.516 99.3516 132.441 99.2843L133.653 99.2785C135.4 99.6596 137.223 99.5726 138.975 99.8977L139.496 99.9958C140.31 100.144 141.577 100.33 142.011 99.998C142.847 99.3599 143.144 97.0193 143.539 95.9294C144.234 94.0122 145.217 92.34 145.88 90.3878C148.588 82.4143 151.113 74.4089 154.388 66.7076C153.133 66.3329 152.169 66.3182 150.904 66.1247C149.586 65.9229 148.391 65.0279 147.134 64.6432C145.939 64.2777 144.687 64.3709 143.503 63.9458C142.851 63.7118 142.291 63.1915 141.648 63.0096C140.623 62.7202 139.427 62.551 138.817 63.3237ZM140.304 99.9253L138.975 99.8977C139.422 99.7113 139.866 99.614 140.304 99.9253ZM55.1607 57.7199L54.4911 58.0165C53.033 58.6379 51.6596 59.6703 50.2859 60.5102L53.4443 64.9254C54.4762 62.0183 55.8024 59.6196 57.3094 57.0067C57.1105 56.8907 55.944 57.3763 55.1607 57.7199ZM58.7932 38.0425C59.5361 38.9513 60.5698 39.4 61.3306 40.2327C62.3461 41.3432 62.4293 42.513 62.5775 44.2082C62.8555 47.3869 62.4779 50.578 61.2972 53.4858L61.8322 53.5272L62.0823 53.553C66.5329 54.0318 71.2319 55.4316 75.8081 54.8026L74.7138 54.8242C75.1459 54.5796 75.5812 54.5317 76.0207 54.7708C76.3501 54.722 76.6789 54.6613 77.0069 54.5887L76.8895 54.5367C75.9906 54.1534 74.0459 53.6021 74.9809 52.1444C75.9755 50.5937 77.6516 52.5606 78.6436 52.3575C79.2553 52.2321 80.6069 49.2955 80.9839 48.6875L81.2793 48.2115C81.8893 47.2424 82.1391 47.0197 83.4813 46.7108L83.634 46.6772C84.9954 46.3917 85.3164 46.6795 85.4986 45.0371C85.7028 43.194 85.1918 41.1352 85.1803 39.23L85.184 38.876L85.1809 39.2217L85.1807 39.0643L85.1842 38.878C85.3098 34.5692 86.5201 30.7907 87.6465 26.7368C83.0601 27.8828 78.5712 29.2329 73.8981 30.0218L72.839 30.1948C70.7533 30.5444 67.8102 31.0984 66.0409 29.5778C65.5468 29.153 65.6258 28.5796 65.2214 28.0874C64.5432 27.2616 63.2852 26.4073 62.3234 26.172C56.4043 24.7247 55.8269 34.4161 58.7932 38.0425ZM27.9196 196.01L29.1146 196.016C28.715 196.328 28.3168 196.343 27.9196 196.01ZM31.0656 195.965L29.9135 195.97C30.2967 195.678 30.6809 195.703 31.0656 195.965ZM99.5826 188.71L99.5742 188.777C99.1412 192.137 97.4877 192.305 96.8647 189.052L96.898 188.909C97.1372 187.853 97.2892 186.65 98.4197 186.513C99.749 186.352 99.7341 187.499 99.5826 188.71ZM61.6575 185.296L61.7646 185.369C63.0274 186.207 67.6848 188.804 65.599 190.696C64.7943 191.426 62.355 189.919 61.806 189.152C61.1508 188.238 60.5104 186.095 61.6575 185.296ZM126.537 190.315C125.959 191.075 124.447 190.387 123.866 189.937C122.792 189.105 122.699 188.332 122.729 187.022L122.737 186.733C122.722 187.198 122.708 187.662 122.692 188.124C122.706 187.659 122.722 187.196 122.737 186.733C123.097 184.94 128.259 188.051 126.537 190.315ZM81.1828 180.355C82.523 180.708 85.5072 184.45 83.7765 185.976C82.1109 187.445 79.8956 181.473 81.1828 180.355ZM104.318 178.035C105.549 178.62 107.219 184.023 105.461 184.312C103.487 184.637 104.145 179.16 104.318 178.035ZM207.766 180.058C207.655 182.334 205.527 180.652 205.678 179.129C205.952 176.366 207.312 179.097 207.766 180.058ZM90.0571 178.5C88.2566 179.894 88.6363 175.805 88.9515 175C90.3595 174.455 90.8754 177.866 90.0571 178.5ZM68.9815 174.547L68.7201 174.811C67.437 176.085 64.5994 178.555 64.8288 174.59C64.9863 171.866 69.2717 172.008 68.9815 174.547ZM102.525 168.741C102.398 169.719 100.65 169.949 99.7316 169.691C98.3794 169.309 98.0284 168.291 98.0594 166.78C98.4916 165.108 102.765 166.9 102.525 168.741ZM89.6852 164.849C90.1984 168.18 85.6915 171.438 85.3342 166.703C85.2035 164.971 86.2116 163.754 87.3404 162.695C88.9426 161.193 89.8376 162.632 89.6852 164.849ZM54.7654 162.048C56.7973 163.297 53.8271 170.284 52.143 168.797C49.8063 166.735 53.0022 162.676 54.7654 162.048ZM78.9427 165.644L78.7957 166.355C78.5605 167.477 78.2161 168.782 77.1297 168.841C75.6123 168.923 75.5574 166.861 75.6024 165.705C75.4486 162.755 79.7375 161.563 78.9427 165.644ZM264.211 159.023L262.843 159.033L263.106 159.071C263.965 159.201 265.324 159.507 264.185 160.717C263.58 161.361 260.683 161.028 259.806 161.241C254.447 162.545 248.363 163.385 242.867 163.277C240.552 163.231 238.221 163.035 235.903 162.882L235.131 162.833C232.562 162.677 232.309 161.478 235.2 161.096C236.853 160.878 238.529 160.825 240.206 160.82L240.433 160.774C241.383 160.594 242.333 160.547 243.282 160.839L243.793 160.842L244.303 160.843C244.856 160.575 245.41 160.552 245.965 160.79C248.579 160.641 251.185 160.202 253.798 160.001C256.355 159.907 259.171 158.927 261.758 158.955C262.574 158.731 263.392 158.754 264.211 159.023ZM67.4998 162.545C66.5911 163.279 64.8693 162.021 64.3215 161.263C63.2943 159.84 63.2013 158.086 63.6272 156.432C64.6152 155.968 69.2728 161.114 67.4998 162.545ZM82.4587 152.032C84.1819 152.19 86.5505 155.395 83.8721 155.904C81.7769 156.303 79.3403 152.817 82.4587 152.032ZM234.624 148.707C235.599 149.145 235.813 150.472 235.86 151.671L235.855 151.21C236.112 151.781 236.108 152.353 235.907 152.929L235.832 153.135C235.416 154.304 235.101 155.8 233.789 155.02C232.761 154.41 232.599 151.984 232.779 150.803L232.791 150.731C232.996 149.538 233.43 148.17 234.624 148.707ZM258.8 148.183C259.751 148.488 260.024 149.999 260.139 151.137L260.166 151.425L260.207 151.924L260.172 152.044C259.904 153.015 259.635 154.957 258.603 155.089C257.095 155.283 256.845 152.309 256.901 151.222L256.908 151.092C256.996 149.771 257.425 147.743 258.8 148.183ZM254.35 151.249L254.35 151.308C254.341 152.359 254.003 154.345 252.925 154.588C251.463 154.917 251.332 152.375 251.078 151.251L251.103 151.134C251.308 150.103 251.453 148.046 252.618 147.974C253.949 147.891 254.345 150.12 254.35 151.249ZM239.72 148.384C240.746 148.403 240.99 149.792 241.054 150.958L241.059 151.049C241.067 151.224 241.072 151.394 241.074 151.551L241.083 152.147C240.724 152.94 240.341 154.651 239.373 154.471C238.185 154.25 238.147 151.625 238.277 150.647L238.294 150.527C238.423 149.665 238.771 148.366 239.72 148.384ZM247.388 151.924C246.094 156.429 243.734 153.381 244.63 150.017C245.567 146.501 247.269 149.916 247.388 151.924ZM266.896 153.011C265.933 155.494 264.608 153.355 265.032 151.592C265.661 148.978 266.842 151.294 266.896 153.011ZM55.6254 148.966L56.3458 149.006C57.8497 149.099 58.6972 149.312 58.6972 151.568L58.6103 151.585C57.1041 151.902 51.3959 153.974 52.6158 149.987C53.0906 148.435 54.4148 148.895 55.6254 148.966ZM97.3128 147.57C97.3131 150.307 94.6006 151.17 93.9764 148.356L94.0185 148.183C94.2106 147.366 94.4472 146.109 95.0653 145.634C96.2666 144.711 97.3125 146.103 97.3128 147.57ZM46.1473 141.555C46.3391 142.248 44.805 145.354 44.2947 145.586C42.9446 146.202 42.7561 144.767 42.3087 143.498C42.2929 141.633 45.5479 139.391 46.1473 141.555ZM63.804 131.51L63.5544 131.649C62.799 132.078 62.555 132.265 61.8866 131.493C61.2448 130.751 61.2731 128.685 61.824 127.913C63.9337 124.959 63.8842 130.315 63.804 131.51ZM71.6316 125.519C72.6322 125.665 75.6053 128.904 74.0571 130.192C72.16 131.769 71.0867 126.828 71.6316 125.519ZM40.007 124.212L40.079 124.245C41.3882 124.832 49.0962 127.777 44.967 129.274C43.8516 129.678 42.1656 129.738 41.1987 129.026C40.0356 128.169 38.8623 125.64 40.007 124.212ZM93.28 126.372C92.5526 129.589 90.7373 127.424 90.8401 124.99C91.0054 121.091 92.8867 124.487 93.28 126.372ZM36.7552 114.373L36.9234 114.403C37.947 114.575 39.512 114.711 39.5738 116.254C39.63 117.66 38.1248 118.133 37.0283 118.256L36.9666 118.263C35.8244 118.379 34.3123 118.009 34.2906 116.36C34.2676 114.58 36.7194 114.687 36.7552 114.373ZM62.0798 113.883C62.1102 116.143 58.3387 118.137 58.3095 114.554C58.2835 111.352 62.2205 110.415 62.0798 113.883ZM59.5893 102.109L59.7122 102.153C60.6239 102.47 61.7572 102.688 61.8354 103.986C61.9222 105.421 60.7614 106.06 59.717 105.979C58.8604 105.913 57.5929 105.185 57.4373 104.118C57.2091 102.551 58.5404 102.448 59.5893 102.109ZM39.7594 99.1189C37.8742 99.6073 34.4215 95.4373 36.5319 94.5426C38.0189 93.9113 39.7594 97.8607 39.7594 99.1189ZM51.8526 91.8401C54.1517 94.144 49.8902 99.3002 48.1983 97.3046C47.3343 96.2852 48.1312 94.0892 48.8443 93.2363C49.5761 92.3611 50.8783 92.1967 51.8526 91.8401ZM43.8988 83.7632C41.4279 83.6403 38.1049 79.1051 42.0032 79.1051C44.7565 78.7379 47.2933 83.9318 43.8988 83.7632ZM51.5939 72.5389C51.8334 74.5067 47.6366 76.6006 47.6819 73.4031C47.713 71.2417 51.3291 70.3607 51.5939 72.5389ZM81.5185 36.7621C83.3858 37.6887 81.359 41.2418 80.3638 41.9639C79.1711 40.8654 79.7035 35.862 81.5185 36.7621ZM60.7132 27.5804C63.3198 28.6361 63.7365 35.8568 60.5015 35.965C59.5097 35.6661 59.0786 34.4611 58.9854 33.2798C58.8014 32.8196 58.8122 32.361 59.0025 31.9028L59.038 31.822L59.8173 29.7795L59.5128 29.0242L59.5248 28.882C59.6223 27.5812 59.3584 27.0321 60.7132 27.5804ZM83.7373 34.5009C83.0132 35.4421 80.627 34.9969 79.6535 35.1935L79.19 35.2868C78.0687 35.5026 77.0997 35.5442 77.7144 33.5897C78.2629 31.8455 80.2217 31.4715 81.5993 31.517C82.7734 31.4108 84.9061 32.9814 83.7373 34.5009Z" fill="#F5F6F8"/>
</svg>
