<svg width="32" height="32" viewBox="0 0 32 32" fill="none" xmlns="http://www.w3.org/2000/svg">
<path d="M28.0053 3.4812L17.6001 11.2416L19.5243 6.66309L28.0053 3.4812Z" fill="#E2761B"/>
<path d="M3.98427 3.4812L14.3058 11.3152L12.4758 6.66309L3.98427 3.4812ZM24.2614 21.4699L21.4902 25.7334L27.4196 27.3716L29.1241 21.5644L24.2614 21.4699ZM2.88623 21.5644L4.58035 27.3716L10.5098 25.7334L7.73852 21.4699L2.88623 21.5644Z" fill="#E4761B"/>
<path d="M10.1752 14.266L8.52295 16.7758L14.4105 17.0384L14.2014 10.6851L10.1752 14.266ZM21.8145 14.266L17.736 10.6116L17.6001 17.0384L23.4772 16.7758L21.8145 14.266ZM10.5099 25.7334L14.0445 24.0007L10.9909 21.6064L10.5099 25.7334ZM17.9452 24.0007L21.4903 25.7334L20.9988 21.6064L17.9452 24.0007Z" fill="#E4761B"/>
<path d="M21.4902 25.7334L17.9451 24.0007L18.2274 26.3215L18.196 27.2981L21.4902 25.7334ZM10.5098 25.7334L13.8039 27.2981L13.783 26.3215L14.0444 24.0007L10.5098 25.7334Z" fill="#D7C1B3"/>
<path d="M13.8562 20.0733L10.9072 19.2017L12.9883 18.2461L13.8562 20.0733ZM18.1334 20.0733L19.0013 18.2461L21.0928 19.2017L18.1334 20.0733Z" fill="#233447"/>
<path d="M10.5095 25.7335L11.0115 21.4699L7.73828 21.5645L10.5095 25.7335ZM20.988 21.4699L21.4899 25.7335L24.2612 21.5645L20.988 21.4699ZM23.4768 16.7759L17.5997 17.0384L18.1435 20.0733L19.0115 18.2461L21.103 19.2017L23.4768 16.7759ZM10.9069 19.2017L12.9984 18.2461L13.8559 20.0733L14.4102 17.0384L8.5226 16.7759L10.9069 19.2017Z" fill="#CD6116"/>
<path d="M8.52295 16.7759L10.9909 21.6065L10.9073 19.2017L8.52295 16.7759ZM21.1033 19.2017L20.9988 21.6065L23.4772 16.7759L21.1033 19.2017ZM14.4105 17.0384L13.8563 20.0733L14.5465 23.6542L14.7033 18.9391L14.4105 17.0384ZM17.6001 17.0384L17.3177 18.9286L17.4432 23.6542L18.1439 20.0733L17.6001 17.0384Z" fill="#E4751F"/>
<path d="M18.1438 20.0733L17.4432 23.6542L17.9451 24.0007L20.9987 21.6065L21.1033 19.2017L18.1438 20.0733ZM10.9072 19.2017L10.9909 21.6065L14.0445 24.0007L14.5464 23.6542L13.8562 20.0733L10.9072 19.2017Z" fill="#F6851B"/>
<path d="M18.196 27.2981L18.2274 26.3215L17.966 26.0904H14.0235L13.783 26.3215L13.8039 27.2981L10.5098 25.7334L11.6601 26.6785L13.9921 28.3062H17.9973L20.3398 26.6785L21.4902 25.7334L18.196 27.2981Z" fill="#C0AD9E"/>
<path d="M17.9448 24.0006L17.4428 23.6541H14.5461L14.0442 24.0006L13.7827 26.3214L14.0232 26.0903H17.9657L18.2272 26.3214L17.9448 24.0006Z" fill="#161616"/>
<path d="M28.4443 11.7457L29.3332 7.46118L28.0051 3.4812L17.9449 10.9791L21.8142 14.266L27.2835 15.8727L28.4966 14.455L27.9737 14.077L28.8103 13.3104L28.1619 12.8063L28.9985 12.1658L28.4443 11.7457ZM2.6665 7.46118L3.55539 11.7457L2.99069 12.1658L3.82729 12.8063L3.18938 13.3104L4.02598 14.077L3.50311 14.455L4.70572 15.8727L10.175 14.266L14.0443 10.9791L3.98415 3.4812L2.6665 7.46118Z" fill="#763D16"/>
<path d="M27.2836 15.8727L21.8143 14.266L23.4771 16.7758L20.9987 21.6064L24.2614 21.5644H29.1241L27.2836 15.8727ZM10.1751 14.266L4.70584 15.8727L2.88623 21.5644H7.73852L10.9908 21.6064L8.52283 16.7758L10.1751 14.266ZM17.6 17.0383L17.9451 10.9791L19.5346 6.66309H12.4758L14.0444 10.9791L14.4104 17.0383L14.5359 18.9496L14.5464 23.6541H17.4431L17.464 18.9496L17.6 17.0383Z" fill="#F6851B"/>
</svg>
