<svg width="235" height="198" viewBox="0 0 235 198" fill="none" xmlns="http://www.w3.org/2000/svg">
<path fill-rule="evenodd" clip-rule="evenodd" d="M148.603 130.977C148.146 137.671 139.063 141.152 133.554 142.58C134.658 136.013 136.084 129.205 135.197 122.546C134.905 120.352 134.521 118.17 134.11 115.996C133.958 115.192 133.8 114.389 133.638 113.587C133.598 113.392 133.279 112.539 133.381 112.344C133.563 111.996 135.104 112.051 135.496 112.066C136.508 112.105 137.501 112.361 138.427 112.765C140.373 113.615 142.012 115.077 143.363 116.692C146.548 120.499 148.947 125.93 148.603 130.977ZM138.087 85.4741C132.813 88.5965 126.462 90.2724 120.447 91.0891C111.285 92.3334 101.93 90.901 92.9726 88.9161C90.7732 88.4287 88.5785 87.9035 86.4116 87.287C86.3139 93.6349 88.0998 99.6718 91.5877 104.966C94.4715 109.343 98.2349 113.001 101.524 117.055C104.587 120.83 107.056 125.087 107.179 130.069C107.23 132.148 107.059 134.05 105.319 135.397C103.569 136.751 101.207 137.253 99.0664 137.562C93.7066 138.334 88.0931 137.917 82.767 137.066C81.7329 136.901 80.7008 136.713 79.6801 136.478C78.5213 136.211 78.1153 135.897 77.1473 136.767C75.0587 138.644 74.1008 141.459 73.6277 144.152C72.7411 149.196 73.0417 155.08 74.3198 160.056C75.5509 164.85 81.3616 167.507 85.6662 168.665C98.6501 172.16 112.976 167.334 122.939 158.743C123.156 158.556 123.371 158.366 123.581 158.171C124.289 159.644 125.062 161.092 125.906 162.491C126.494 163.465 127.112 164.444 127.853 165.31C128.121 165.623 128.435 166.046 128.8 166.251C129.481 166.632 130.174 166.352 130.944 166.218C136.631 165.231 142.304 163.932 147.711 161.887C155.931 158.778 163.303 153.657 167.199 145.566C169.167 141.48 170.193 137.002 170.69 132.512C171.26 127.356 171.383 122.086 169.932 117.061C167.274 107.852 160.491 100.386 153.062 94.628C148.466 91.065 143.413 87.8451 138.087 85.4741Z" fill="#5B2CE7"/>
<path fill-rule="evenodd" clip-rule="evenodd" d="M216.907 4.61537L217.043 4.6022C217.809 4.52067 218.818 4.30969 219.448 4.97556C220.049 5.60969 219.521 6.03734 219.661 6.72116C219.732 7.06513 220.022 7.25257 220.073 7.68047C220.204 8.78061 218.954 8.77392 219.326 10.079L218.655 9.32489C218.371 9.77045 218.119 10.2344 217.885 10.7074L217.77 10.9446L217.303 9.97395C217.014 10.5777 216.506 10.9912 216.146 11.4953L216.638 11.4536C219.437 11.2099 222.376 10.8564 225.15 11.4096C226.094 11.598 227.105 11.9266 227.341 12.9664C227.59 14.063 227.154 15.4726 226.513 16.3408C226.081 16.9265 224.205 17.6981 224.275 18.4669C224.359 19.3896 226.154 19.1999 226.791 19.2764C228.163 19.4409 229.304 20.0552 230.533 20.5786L231.186 20.8516C232.331 21.334 233.413 21.8698 234.027 23.0969C234.824 24.6916 233.699 26.499 232.334 27.3157C230.763 28.2562 228.862 28.5344 227.104 28.9635L226.28 29.1683C224.349 29.6407 222.404 30.0427 220.416 30.1794C218.248 30.3286 216.042 30.1803 213.913 30.6836L213.677 30.7422L215.063 35.2162C215.252 35.8266 215.384 37.4363 216.101 37.5431C216.718 37.6353 217.791 36.4739 217.836 37.8158C217.851 38.2501 217.409 38.6978 217.301 39.0982C217.177 39.5576 217.225 40.0446 217.25 40.5166L217.256 40.6342C217.313 41.9439 217.462 43.3134 217.356 44.6226C217.316 45.1252 217.173 45.5788 217.075 46.0688C216.97 46.5955 217.142 47.1614 217.024 47.6527C216.921 48.0829 216.653 48.1795 216.634 48.6967C216.617 49.148 216.842 49.5726 216.799 50.052C216.711 51.0422 216.392 52.0254 216.285 53.0231C216.186 53.9384 216.244 55.1482 215.885 56.0038C215.748 56.33 215.384 56.5223 215.266 56.8336C215.129 57.194 215.255 57.5846 215.238 57.9623C215.198 58.8526 214.893 60.0047 214.402 60.7383C214.206 61.0312 214.082 61.0706 213.953 61.3376C213.912 61.4231 213.713 62.0215 213.693 62.125C213.628 62.4687 213.666 62.6718 213.54 62.9808C213.502 63.0727 213.202 63.5044 213.116 63.6589C212.766 64.2864 212.695 65.0732 212.307 65.6267C212.146 65.8553 211.894 65.9406 211.734 66.1872C211.667 66.2912 211.782 66.5536 211.727 66.6594C211.641 66.8242 211.418 66.9158 211.328 67.0703C210.869 67.8556 210.693 68.8223 210.143 69.5868C209.71 70.1874 208.776 70.4784 208.534 71.1444C208.482 71.2894 208.676 71.5108 208.599 71.7229C208.468 72.0795 208.088 72.5128 207.852 72.8254C207.306 73.5483 206.471 73.786 206.064 74.5787L205.87 74.9588C205.525 75.6246 205.168 76.1401 204.183 75.9896C204.475 77.1889 202.672 77.9589 201.974 78.5727C201.488 79.0004 201.228 79.6139 200.745 80.0341C200.164 80.539 199.304 80.8497 198.652 81.2704C197.92 81.7421 197.262 81.9746 196.491 82.3165C196.245 82.4254 196.029 82.6564 195.822 82.7547C195.669 82.8278 195.507 82.7676 195.351 82.8708C194.685 83.3116 194.313 83.8502 193.493 84.1244C192.846 84.3407 192.207 84.4658 191.574 84.7284C191.074 84.9354 190.497 84.8919 190.051 85.0665C189.845 85.1471 189.738 85.3747 189.552 85.4609C189.432 85.5165 189.259 85.2627 189.234 85.2743C188.979 85.396 188.836 85.9969 188.481 86.0232C188.083 86.0528 187.819 85.3095 187.48 85.4143C187.03 85.5531 187.558 85.7905 187.512 85.887C187.46 85.9957 187.477 86.1344 187.336 86.3118C187.133 86.5675 186.271 86.6875 185.959 86.7632L185.715 86.8209C184.859 87.0166 183.463 87.2374 183.148 86.2361L182.531 87.2621C182.209 87.0381 182.343 86.6803 182.369 86.3641L182.259 86.4701C181.367 87.3078 181.102 87.0201 180.102 86.259L179.992 87.042C179.514 86.9635 179.575 86.5868 179.596 86.2117C179.181 86.3376 179.085 86.5515 178.936 86.9346C178.305 86.2513 177.804 87.1434 178.375 87.3726C177.834 87.619 177.596 87.0814 177.199 86.9073C176.603 86.6463 176.311 86.9133 175.785 86.9735C174.797 87.0865 173.68 86.9539 172.679 86.9442C172.008 86.9377 171.614 86.756 170.966 86.5979C170.255 86.4246 169.512 86.5155 168.797 86.3793C168.156 86.2572 167.611 85.8811 166.979 85.7614C166.438 85.6589 165.898 85.7773 165.355 85.6483L164.93 85.5504C164.587 85.4729 164.229 85.3938 163.952 85.325C163.641 85.2477 163.33 84.9645 163.003 84.9089C162.528 84.8281 162.115 85.1514 161.57 85.0073C161.042 84.8675 160.483 84.5498 159.966 84.3312L159.826 84.2743C159.026 83.9617 158.541 83.4236 157.73 83.335L157.294 83.2904C156.754 83.2306 156.77 83.1623 157.268 82.4689C156.169 82.8392 154.882 81.5331 154.156 82.6486L153.958 82.4417C153.191 81.6549 151.886 80.4848 150.828 81.1762C150.716 80.0037 149.079 80.2674 148.335 79.9275C147.722 79.6474 147.261 79.0823 146.633 78.7962L146.324 78.6578C145.981 78.5028 145.8 78.3956 145.507 78.0001C145.252 77.6557 145.176 77.2226 144.717 77.0766C144.381 76.9698 144.143 77.4059 143.787 77.2478C143.636 77.1806 143.602 76.9397 143.484 76.8696C142.712 76.4088 141.859 75.7679 141.03 75.4412C140.09 75.0702 139.068 74.4224 138.088 73.8843C137.48 73.5507 136.874 73.1122 136.384 72.6215C136.126 72.363 135.811 71.7579 135.475 71.6217C134.489 71.2219 134.775 72.5819 134.973 73.322L135.057 73.6251C135.507 75.2376 135.936 76.857 136.396 78.4667L136.497 78.8117C136.853 80.0183 137.275 81.2123 138.002 82.2514L138.115 82.4149C138.662 83.2113 139.458 84.4436 140.238 84.8865C140.765 85.1865 141.532 85.1962 142.109 85.3541C142.891 85.5678 143.649 85.8502 144.399 86.1561C145.63 86.6594 146.728 87.3782 147.932 87.931C149.188 88.508 150.463 88.9071 151.536 89.8102C152.409 90.5466 153.108 91.4601 153.943 92.2355C154.961 93.1807 156.198 93.8081 157.323 94.6083C158.367 95.3514 159.265 96.2612 160.116 97.2164C163.773 101.326 166.849 106.176 169.223 111.14C171.813 116.557 172.099 122.146 172.362 128.041C172.495 131.024 172.297 134.032 171.817 136.979C171.351 139.84 170.312 142.32 169.455 145.051C169.044 146.362 169.314 147.317 168.462 148.359L168.386 148.449C167.569 149.382 167.003 150.511 166.202 151.463C164.427 153.574 162.109 155.432 159.775 156.886C154.907 159.919 149.688 162.376 144.283 164.259L143.855 164.406C140.934 165.406 137.986 166.537 134.984 167.268C133.419 167.649 131.794 167.749 130.196 167.925C129.66 167.984 128.204 168.375 127.686 168.079C127.327 167.874 126.011 164.87 125.698 165.081C125.665 165.103 125.89 166.34 125.691 166.631C125.232 167.303 123.924 167.675 123.162 168.016L123.085 168.051C122.596 168.28 121.256 168.545 121.168 169.201C121.145 169.365 121.499 170.878 121.669 171.057C122.162 171.576 123.015 171.094 123.572 170.916C124.524 170.611 125.495 170.402 126.481 170.231C128.634 169.86 130.668 170.116 132.72 170.787C133.625 171.083 134.528 171.429 135.39 171.748C136.051 171.993 136.474 172.808 137.047 173.267C137.72 173.805 138.431 174.495 138.805 175.287C139.08 175.868 138.805 175.734 138.848 176.106C138.662 176.146 138.575 176.261 138.585 176.448C138.674 176.576 138.798 176.642 138.956 176.646C139.109 176.821 139.394 176.826 139.565 177.064C139.858 177.472 139.837 178.19 139.916 178.664C140.101 179.763 140.535 180.848 140.276 181.971C141.128 181.957 140.425 182.726 140.207 183.016L139.998 183.291C139.694 183.696 139.63 183.878 140.08 184.459C139.255 184.907 139.371 186.25 138.929 186.999C138.309 188.048 137.393 188.586 136.283 189.003C133.721 189.966 131.021 190.491 128.338 190.979C125.859 191.429 123.279 192.249 120.775 192.43C120.173 192.474 119.669 192.287 119.083 192.271C118.498 192.255 117.907 192.455 117.321 192.491C116.333 192.552 115.73 192.12 114.901 192.055C112.535 191.872 110.244 190.831 108.144 189.613C107.169 189.047 106.199 188.462 105.256 187.842L104.854 187.574C104.016 187.009 103.09 186.663 102.472 185.845C101.106 184.034 100.028 181.689 99.7518 179.44L99.6905 178.943C99.5484 177.78 99.4211 176.601 99.4906 175.435C99.5723 174.068 99.7837 172.69 99.3091 171.364L99.0321 171.548C98.4656 171.916 98.1006 172.052 97.5821 171.325C97.3232 172.133 96.8013 172.255 96.6939 173.278C96.5463 174.686 96.6095 176.116 96.6658 177.528L96.6823 177.901C96.8051 180.449 97.1557 182.892 98.418 185.16C99.6245 187.327 101.298 189.401 103.065 191.138C104.755 192.799 107.399 193.398 109.67 193.717C112.066 194.054 114.476 194.003 116.888 193.991L118.461 193.987C121.011 193.976 123.506 193.922 126.033 193.389L128.041 192.965C132.738 191.965 137.475 190.812 141.466 188.028L141.365 187.94C140.726 187.363 139.566 185.965 140.324 185.207C141.228 184.303 142.25 186.135 142.513 186.794C143.603 189.519 140.967 190.811 138.889 191.708C135.832 193.028 132.807 194.279 129.613 195.239C126.293 196.237 123.103 196.743 119.677 196.964L118.768 197.02C115.446 197.24 112.159 197.651 108.843 197.025C105.683 196.428 102.373 194.869 100.01 192.656C97.8778 190.66 96.5926 187.567 95.3873 184.953C93.9336 181.8 93.4732 178.182 93.6953 174.737C93.7166 174.408 94.0542 172.973 93.8763 172.775C93.6066 172.474 92.9607 172.696 92.617 172.708C91.3536 172.753 89.9889 172.59 88.7772 172.513C87.9902 172.463 87.2984 171.994 86.4764 171.849L86.2888 171.818C85.8202 171.742 85.5851 171.726 85.115 171.498L85.024 171.453C83.7249 170.792 82.5523 170.79 81.4295 169.727C81.3362 169.721 81.4413 170.061 81.428 170.058C81.6074 170.089 80.833 170.065 81.102 170.055C80.7932 170.066 80.0443 169.436 79.7152 169.299C79.2004 169.085 78.6387 168.958 78.1394 168.71C77.3887 168.337 77.1344 167.781 76.6258 167.15C76.0247 166.404 75.2647 165.847 74.6906 165.062C73.4519 163.369 72.3901 161.518 71.9237 159.453C71.356 156.937 71.528 154.316 70.9339 151.801C70.6531 152.34 70.3094 152.827 70.1834 153.431C70.1212 153.73 70.2652 154.214 70.1104 154.467C69.942 154.742 69.6491 154.826 69.5129 155.024C69.5718 154.938 69.5615 155.514 69.5571 155.534L69.1193 155.623C69.1064 155.926 69.1319 156.224 69.1964 156.519C69.129 157.09 68.9974 156.978 68.8125 157.438C68.6724 157.787 68.6429 158.238 68.4744 158.567C68.1523 159.194 67.2952 159.615 66.7337 160.086L66.6591 160.151C65.9909 160.748 65.2715 160.993 64.3817 160.85C63.8166 160.759 63.098 160.238 62.8661 161.126C62.746 161.586 63.154 162.181 63.3481 162.576L63.4023 162.691C63.8495 163.685 64.0203 165.193 62.4146 164.336C61.2124 163.693 60.9532 162.239 59.7137 163.622C58.4146 165.073 60.5519 166.299 59.8934 167.733C59.1371 169.378 57.9122 165.964 57.704 165.39C56.1405 166.304 54.6236 167.305 53.0458 168.192C51.9581 168.804 50.8246 169.214 49.7641 169.842L49.5207 169.991C48.7425 170.483 48.4329 170.237 47.6202 170.448C47.0001 170.608 47.089 171.008 46.6792 171.346C46.164 171.771 45.2927 171.96 44.8404 172.075C43.223 172.488 41.0503 173.462 39.2032 173.425C38.0496 173.401 36.6361 173.158 35.5496 172.769C34.6065 172.431 33.8836 171.771 33.0197 171.503C33.7015 172.881 32.6803 172.921 31.5229 172.96C30.297 173.001 29.4164 172.411 28.4541 171.702C26.3346 170.139 25.2002 168.317 24.6323 165.72C23.3831 160.01 26.6507 155.623 31.1431 152.594L31.2797 152.502C32.4461 151.727 33.5535 150.864 34.7737 150.177C35.7026 149.653 36.272 148.994 37.0565 148.291C38.9161 146.624 41.0837 145.259 43.0065 143.653C46.9376 140.369 50.2042 136.815 53.1597 132.663L53.3703 132.366C54.4481 130.834 55.8413 128.628 57.8814 128.499C59.0016 128.428 60.0981 128.731 60.9062 129.527C61.6746 130.283 62.131 131.092 63.1915 131.511C64.3984 131.987 65.7746 132.052 67.0275 132.379C68.1729 132.678 69.2972 133.056 70.3978 133.491C71.4167 133.893 72.4107 134.335 73.3676 134.867L73.7743 135.097C74.3353 135.406 74.9578 135.668 75.4804 135.182C76.2158 134.499 75.9749 133.503 77.1267 133.104C78.2178 132.727 78.4664 133.408 79.2729 133.815C79.7409 134.051 80.2885 134.099 80.7747 134.348C81.2999 134.618 81.7673 134.826 82.3371 134.973C82.8497 135.105 83.4076 135.3 83.9216 135.408C84.3368 135.494 84.5515 135.407 84.9443 135.427C85.4701 135.453 85.6485 135.684 86.1753 135.894C86.6664 136.089 87.2716 136.09 87.7904 136.173L88.7259 136.324C89.6615 136.475 90.5981 136.62 91.5403 136.722C94.0863 136.997 96.4661 136.874 98.8111 135.774L99.3105 135.539C101.014 134.73 103.059 133.669 104.063 132.124C105.165 130.431 105.348 128.095 105.044 126.141C104.691 123.87 103.489 121.789 102.076 120.014C101.3 119.038 100.378 118.408 99.4392 117.62C98.8417 117.119 98.1159 116.909 97.6302 116.334C96.9255 117.509 90.5579 109.477 90.3396 109.226C87.0577 105.447 85.4135 99.6384 84.9554 94.7435C84.8238 93.338 84.9148 91.9567 84.9032 90.5502C84.8934 89.3435 84.4803 89.1068 83.4251 88.5523C82.6253 88.1318 81.7077 88.0443 81.168 87.2583C80.5857 86.4099 80.5021 85.2153 80.4654 84.221C80.4101 82.7256 80.7194 81.2625 80.722 79.771C80.7245 78.3732 80.6559 76.976 80.7559 75.5797C80.9437 72.9538 81.6538 70.3825 82.2762 67.8319L82.3535 67.5131C82.9976 64.8389 83.6696 62.1615 84.4594 59.5261C84.8418 58.2514 85.3827 57.0926 85.9067 55.8763C86.2586 55.0602 86.4877 54.1078 87.2721 53.5833C86.6335 52.8027 83.2781 54.1354 82.4942 54.3218C79.8653 54.9466 77.2257 55.6546 74.7197 56.6775C73.6232 57.1253 72.5996 57.6943 71.5427 58.2231C70.6922 58.6487 69.3465 58.9921 68.7799 59.7988C68.2526 60.5495 68.6886 61.593 68.8236 62.4213C68.9655 63.2901 69.0854 64.1639 69.2012 65.0377L69.3741 66.3479C69.6342 68.3064 69.6132 70.2701 70.6503 72.0041C71.8227 73.9631 73.0647 75.8676 74.4091 77.7105C76.9364 81.1748 78.0653 85.113 79.868 88.9225L80.0603 89.3229C80.7422 90.7249 81.623 92.4301 80.0643 93.5568C78.5227 94.6709 76.5089 94.7929 74.9447 95.9394C71.4872 98.4734 67.2494 99.6338 63.3638 101.323C61.4867 102.139 59.677 103.066 57.7883 103.844C56.7378 104.276 55.8032 104.909 54.708 105.24C53.7963 105.516 52.926 105.69 52.0645 106.117C50.1784 107.052 48.3355 108.106 46.428 108.99C45.4516 109.443 44.4427 109.84 43.5166 110.393C42.9024 110.761 42.2067 111.623 41.4693 111.424C40.6525 111.202 39.7722 109.743 39.284 109.102C38.7037 108.34 37.8044 107.587 37.6576 106.608C37.5629 105.977 37.7977 105.416 37.1074 105.143C36.9035 105.062 36.4916 105.128 36.218 105.017C35.7681 104.836 35.3285 104.465 34.9094 104.209L34.7054 104.083C32.9362 102.973 32.0247 101.943 31.7239 99.7409C31.4018 97.3828 31.8137 95.0805 32.2294 92.7621C31.1529 93.6938 30.2484 94.7067 29.2326 95.668C28.8102 96.0676 28.7631 96.546 28.4199 96.9726C28.1111 97.356 27.6592 97.435 27.2912 97.7293C27.0041 97.9592 26.983 98.0009 26.8141 98.2517C26.7236 98.3861 26.9202 98.6147 26.7398 98.7339C26.5796 98.84 26.3456 98.581 26.0533 98.6582C25.4111 98.8274 24.7243 100.249 24.3258 100.617C24.0047 100.914 23.4447 101.137 22.959 101.707L22.8933 101.787C22.1708 102.697 21.4026 103.199 20.4634 103.855C19.5792 104.472 18.9162 105.213 18.0287 105.744C17.1468 106.272 16.239 106.848 15.3129 107.373C14.9915 107.555 14.8285 107.781 14.4503 107.852C14.3814 107.865 14.3118 107.555 14.2755 107.568C14.0984 107.63 14.1207 107.685 13.932 107.792C13.7456 107.897 13.6271 108.192 13.3847 108.312C13.0623 108.471 12.3601 108.516 12.0079 108.524C11.214 108.543 11.2445 108.34 10.7689 107.885C10.6877 107.807 10.4902 107.532 10.4696 107.503C10.4475 107.472 10.2663 107.557 10.2467 107.528C9.70837 106.724 10.0063 105.087 10.1809 104.204C10.6617 101.776 12.213 100.29 13.4399 98.2692C13.8549 97.5854 13.4464 96.8573 12.755 97.3385C12.9316 97.2154 12.7239 97.8101 12.7188 97.8171C12.5391 98.0493 11.9952 98.0882 11.7205 98.1568L11.6749 98.1693C11.3916 98.2545 11.389 98.0704 11.1774 98.2077C10.7815 98.4641 10.7195 98.7841 10.2082 99.014C9.43322 99.3621 8.73768 99.8056 7.99373 100.207L7.71223 100.355C7.39651 100.517 3.33869 102.263 3.45516 101.369C2.99058 101.635 3.18983 102.035 2.79672 102.3C2.47946 102.514 1.5233 102.356 1.21169 102.157C0.0271106 101.4 1.23446 99.7526 1.75854 98.9165L1.78375 98.876C3.8067 95.6083 6.49314 92.9984 9.24973 90.3664L9.47338 90.1529C12.5239 87.242 15.7379 84.4638 18.3976 81.1868C19.5983 79.7074 20.5117 78.2349 21.2105 76.4572C21.4849 75.7605 22.2552 74.589 22.2068 73.8581C22.1691 73.293 21.819 73.2822 21.3088 72.9873L21.1523 72.8947C20.3249 72.4159 18.7183 71.7134 18.8632 70.7175C19.0499 69.4323 20.6123 68.3025 21.4615 67.4601C22.7092 66.2227 23.6391 64.7191 24.7871 63.3953C26.007 61.988 27.3 60.6394 28.64 59.3469C31.3285 56.7538 34.2499 54.33 37.2012 52.0427C39.9503 49.9121 42.931 48.2357 45.97 46.5812L47.4669 45.7673C50.5101 44.1094 53.5285 42.4502 56.7674 41.1811C58.3416 40.5639 60.2146 40.0549 61.6795 39.2143C62.7946 38.5745 62.2102 37.3034 62.0269 36.2728C60.7784 29.2435 61.8096 21.8394 66.4775 16.2378L66.6159 16.0732C68.3952 13.9739 71.2009 11.3598 74.1584 11.6421C76.3638 11.8527 76.6747 14.2757 76.6731 16.0717C76.671 18.8622 76.284 21.6881 76.0694 24.4762L76.0249 25.084C75.8708 27.0508 75.0785 32.3577 77.9196 32.8421C79.2216 33.0643 80.2089 31.7414 80.9614 30.8717L81.0081 30.8179C82.0933 29.5764 83.1243 28.285 84.2581 27.0868L84.4878 26.8463C86.3145 24.9521 89.6232 21.9738 92.3633 23.0984C95.1073 24.2245 96.3655 28.3942 96.3488 31.0605C96.3424 32.1099 95.4716 33.734 96.5424 34.3668C97.0237 34.6513 97.759 34.6289 98.2979 34.7478C99.178 34.9417 100.046 35.2126 100.918 35.4415L100.832 35.1056C99.4465 29.6025 98.7528 23.2232 102.082 18.2602C103.465 16.1981 105.313 15.0506 107.589 14.1804C109.749 13.3542 112.838 12.6812 115.141 13.1608C115.486 13.2324 115.418 13.3864 115.848 13.4191C116.027 13.4327 116.227 13.3292 116.406 13.3194C117.019 13.286 117.449 13.34 118.035 13.5687C119.091 13.9801 120.083 14.709 120.853 15.5349C121.335 16.0516 121.752 16.6335 122.08 17.2597C122.272 17.6255 122.378 18.2182 122.608 18.5423C122.731 18.7156 123.014 18.8232 123.233 19.0601C123.637 19.4955 123.866 20.2591 124.163 20.7763L124.481 21.3292C125.117 22.4268 125.738 23.4851 126.25 24.6604C126.39 24.9812 126.647 25.2783 126.775 25.5737C126.92 25.9063 126.866 26.4743 127.096 26.7443C127.618 27.3568 128.954 26.8015 129.677 26.8823C130.871 27.0155 131.707 27.7302 132.424 28.647C133.954 30.605 134.602 32.7347 134.948 35.1457L135.037 35.8014C135.189 36.9386 135.312 38.1401 135.07 39.2571C134.806 40.4826 134.085 41.5348 133.524 42.6358C137.084 42.7859 140.552 42.6417 143.911 44.0299C146.899 45.265 149.802 46.8128 152.16 49.0592C153.363 50.2054 154.406 51.4963 155.78 52.4536C157.135 53.3982 158.518 54.1804 159.795 55.2357C162.185 57.212 165.364 58.8845 168.254 59.9749C171.26 61.109 174.544 61.852 177.722 62.2902L178.076 62.3373C180.807 62.6881 184.067 62.8005 186.643 61.7818C188.05 61.2249 188.708 59.902 189.317 58.5972L189.881 57.3864C190.351 56.3757 190.816 55.3604 191.248 54.3364L191.392 53.9927C191.946 52.6631 192.499 51.2028 192.631 49.7783C192.774 48.2248 192.04 46.8221 191.647 45.3538C191.252 43.8793 191.147 42.3739 190.844 40.885L190.744 40.3901C190.549 39.3838 190.559 38.9514 191.341 38.1012L191.401 38.0367C192.418 36.9556 191.499 36.3796 190.491 35.804L189.889 35.4581C188.889 34.8859 187.906 34.3451 186.789 33.9829C183.922 33.0546 181.048 32.2417 178.205 31.2361L177.406 30.949C176.3 30.5594 174.582 30.0793 174.199 28.8635C174.003 28.2407 174.284 27.5824 174.114 26.9609C174.001 26.55 173.499 26.1854 173.555 25.7469C173.682 24.7603 175.664 23.878 176.459 23.7799C177.723 23.624 179.062 23.6434 180.347 23.5987L180.667 23.586C182.404 23.5078 184.09 23.6705 185.783 24.0603C186.503 24.2261 188.272 25.1244 188.976 24.8067C189.624 24.5142 189.949 22.5021 190.309 21.8615C191.006 20.6219 191.952 19.5887 192.867 18.5127C194.814 16.2231 196.575 13.8992 199.012 12.0916C201.29 10.4026 203.854 9.14956 206.466 8.07336L207.758 7.54117C209.924 6.65259 212.153 5.77807 214.38 5.24899C214.957 5.11202 215.469 4.6612 216.049 4.62696C216.266 4.61408 216.366 4.85507 216.541 4.83293C216.668 4.81722 216.809 4.62387 216.907 4.61537ZM117.874 165.192C117.549 165.106 115.713 166.484 115.225 166.734L115.194 166.749C114.23 167.197 113.293 167.68 112.337 168.14C111.471 168.556 110.582 168.744 109.735 169.22C108.809 169.74 107.803 170.035 106.777 170.296C105.801 170.545 104.839 170.715 103.848 170.839L103.55 170.875C102.66 170.978 102.21 171.173 102.278 172.159C102.349 173.19 102.652 173.736 102.451 174.763L102.402 174.991C102.291 175.53 102.129 176.696 102.708 175.67L102.838 176.299C103.307 178.547 104.015 181.435 105.784 182.904C106.556 183.544 107.542 183.914 108.275 184.62L108.405 184.744C108.695 185.017 108.915 185.183 109.358 185.364C109.69 185.499 109.687 185.38 109.995 185.597C110.082 185.658 109.982 186.19 109.981 186.283C110.533 185.355 113.418 187.642 114.252 187.89C115.269 188.192 116.312 188.667 117.37 188.798C118.012 188.878 118.874 188.633 119.005 189.532C119.339 188.6 120.544 189.052 121.298 188.75C121.845 188.53 122.263 188.09 122.864 187.974C123.304 187.889 123.73 188.051 124.166 187.943C124.619 187.83 124.843 187.557 125.361 187.492L125.89 187.425C126.321 187.37 126.737 187.31 127.186 187.224C128.149 187.038 128.983 186.779 129.933 186.517L130.274 186.424C131.123 186.197 132.08 185.987 132.907 186.172C133.266 186.252 133.41 186.383 133.765 186.358C134.133 186.331 134.594 186.033 135.056 186.013L135.182 186.01C135.913 185.996 136.527 186.108 136.733 185.4C136.876 184.905 136.525 184.154 136.47 183.656C136.41 183.114 136.451 182.573 136.459 182.029L136.464 181.666C136.479 179.833 136.372 177.705 135.189 176.259C134.569 175.501 133.861 174.929 132.912 174.698C132.514 174.6 132.363 174.693 131.947 174.554C131.818 174.36 131.642 174.267 131.419 174.277C131.236 174.296 131.056 174.326 130.877 174.367C130.414 174.242 130.455 174.15 130.007 174.099L129.865 174.084C129.6 174.059 129.214 174.032 129.012 174.034L128.241 174.037C127.444 174.042 126.586 174.065 125.83 174.232C125.017 174.411 124.255 174.26 123.521 174.513C122.725 174.787 122.303 175.539 121.46 174.902L121.373 175.187C121.294 175.432 121.212 175.571 120.882 175.697C120.719 175.76 120.631 175.336 120.334 175.465C120.114 175.562 120.044 175.922 119.853 176.021C119.278 176.317 119.271 176.009 118.768 175.779L118.721 175.898C118.571 176.278 118.441 176.504 118.012 176.65C117.681 176.762 117.118 176.508 116.828 176.713C116.624 176.858 116.638 177.293 116.436 177.504C116.136 177.818 115.514 177.913 115.111 177.839C113.709 177.583 115.1 175.189 115.781 174.681C116.579 174.085 118.102 173.663 118.629 172.778C118.996 172.163 118.553 171.681 118.226 171.093L118.195 171.036C117.263 169.297 116.277 170.823 114.821 170.967C112.624 171.184 114.788 169.021 115.502 168.564C116.293 168.058 117.17 167.685 117.704 166.88L117.751 166.806C117.992 166.412 118.51 165.36 117.874 165.192ZM59.2276 131.359C56.9288 131.61 56.103 133.92 54.9653 135.655C53.6251 137.698 52.147 139.593 50.4494 141.351C47.1004 144.82 43.2184 147.567 39.4388 150.524C36.1702 153.081 32.1908 154.85 29.3948 157.995C27.0776 160.601 25.1164 165.323 27.4854 168.548C28.7164 170.224 30.9259 171.051 32.8904 171.442C29.0778 169.291 29.1807 164.119 30.9022 160.627C31.9 158.603 33.719 157.467 35.4506 156.139C37.384 154.656 39.2703 153.114 41.2104 151.639C45.0114 148.747 48.8121 145.784 52.3311 142.549L52.6638 142.241C54.2135 140.795 55.708 139.227 56.744 137.367C57.7924 135.485 57.8716 133.049 59.2276 131.359ZM64.1019 134.851C63.3527 134.797 61.8166 134.285 61.1476 134.663C60.5 135.029 60.2382 136.152 59.976 136.783C59.55 137.809 58.9949 138.763 58.3966 139.699C56.9113 142.023 55.0934 144.149 53.0312 145.979C52.011 146.885 50.9139 147.752 49.7845 148.517C48.8967 149.118 47.4937 149.505 46.8235 150.369C46.5898 150.67 46.6139 151.173 46.3193 151.413C46.0979 151.593 45.5182 151.585 45.2204 151.753C44.6319 152.084 43.439 152.937 43.3012 153.629L42.6209 153.401C42.679 153.712 41.8511 154.835 41.61 155.073C41.1873 155.491 40.6636 155.359 40.216 155.677C39.9134 155.892 39.827 156.265 39.5382 156.5C39.1503 156.815 38.6006 156.853 38.2 157.165C37.8727 157.419 37.6894 157.782 37.4316 158.094C36.6968 158.985 35.7568 159.673 34.9557 160.5C33.5596 161.942 32.4286 164.095 32.9637 166.164C33.1915 167.044 33.7596 167.571 34.5191 168.034C34.8865 168.257 35.3069 168.411 35.636 168.696C36.0054 169.015 36.2013 169.526 36.7076 169.667C36.5788 169.019 37.3935 169.411 37.7514 169.457C38.3867 169.537 39.0246 169.488 39.6611 169.482C40.0455 169.478 40.6716 169.65 41.03 169.586C41.4573 169.51 41.2611 169.347 41.5537 169.215C42.7425 168.683 44.1635 168.604 45.3932 168.14C46.7173 167.641 47.8513 166.833 49.1127 166.218L50.1638 165.708C52.0226 164.804 53.9578 163.832 55.578 162.605C56.8273 161.659 55.9193 160.528 55.4118 159.35L55.3459 159.196C55.0553 158.535 53.979 156.24 54.7352 155.87C55.5357 155.478 56.4576 157.905 56.7074 158.498L56.7309 158.553C56.9692 159.096 57.1335 159.773 57.4569 160.272C57.8436 160.868 58.6159 160.922 58.9262 160.105C59.1705 159.462 58.5102 158.583 58.2984 157.996C58.1148 157.488 57.9712 156.956 57.8459 156.428L57.6885 155.75C57.4727 154.782 57.1836 153.062 58.248 152.989C59.7035 152.891 60.8473 157.502 61.2216 158.421C61.7482 158.087 62.2973 157.857 62.7982 157.481C63.0653 157.281 63.2049 157.023 63.5368 156.885C64.4614 156.498 65.0648 156.648 65.7363 155.752C66.3958 154.873 66.7874 153.79 67.3046 152.829C67.7975 151.913 68.6272 151.165 69.0761 150.256C69.5813 149.236 66.0929 147.538 65.6085 146.635C65.1366 145.755 65.1185 144.476 65.3078 143.496L65.3288 143.392C65.5286 142.454 65.5857 141.552 65.8911 140.622L65.9965 140.306C66.373 139.198 66.833 138.089 67.5581 137.168L67.6174 137.094C68.1597 136.444 68.9204 135.98 67.9037 135.422C66.9174 134.881 65.2023 134.93 64.1019 134.851ZM92.5448 167.237C92.1874 167.122 91.6292 167.452 91.2803 167.523C90.4034 167.704 89.6313 167.507 88.7559 167.454C89.4268 167.955 90.2723 167.931 91.0669 167.874L91.3983 167.848C91.9978 167.794 93.6855 167.603 92.5448 167.237ZM138.444 87.2802L138.346 87.2812C137.736 87.3002 137.614 87.947 137.032 87.923C136.594 87.9048 136.394 87.2956 135.896 87.5016C135.277 87.7575 134.6 88.4246 133.969 88.7608C133.327 89.1022 132.525 89.395 131.963 89.8607C130.951 90.7006 131.183 92.0852 130.55 93.1601L130.494 93.2512C130.17 93.7596 129.9 93.8786 130.44 94.4953C130.869 94.9853 131.548 95.2685 132.058 95.6652L132.136 95.7274C132.986 96.4179 134.311 97.9525 133.125 98.9829C132.216 99.7718 130.52 98.4734 129.688 97.9919L129.643 97.9664C129.101 97.6608 128.356 97.0586 127.693 97.2311C127.183 97.364 126.785 98.0648 126.4 98.3959L126.316 98.4661C125.499 99.142 124.348 99.7046 123.814 98.4286C123.171 96.8946 124.541 95.7183 125.466 94.7216C124.826 94.1503 124.537 93.3928 123.987 92.8118C123.589 92.3916 123.461 92.4714 122.897 92.572C121.027 92.9057 119.225 93.0628 117.316 93.0424C116.56 93.0345 115.495 92.7654 114.835 93.2554C114.498 93.5054 114.122 94.346 113.958 94.7489C113.384 96.1588 115.139 97.1449 116.044 98.0982L116.092 98.1511C116.792 98.946 117.844 101.326 115.873 101.01C114.333 100.763 113.389 99.2022 112.039 98.6592C110.616 98.0867 109.902 100.704 108.533 99.8217C107.712 99.2929 107.908 97.7787 108.193 97.012C108.414 96.4183 108.81 96.1428 108.568 95.5295C108.359 95.0028 107.373 94.2595 106.948 93.881C105.645 92.7206 103.837 92.9961 102.197 92.8887L102.062 92.8779C100.676 92.7477 98.3049 91.9989 97.5109 93.3403C97.2728 93.743 96.8651 94.5975 96.807 95.0777C96.689 96.0457 97.5909 96.5759 98.1863 97.1855L98.3052 97.3085C99.1096 98.1495 100.134 99.412 100.088 100.595C100.031 102.03 98.8697 101.778 97.9076 101.306C97.3757 101.045 96.8345 100.721 96.355 100.372C95.8662 100.017 95.3276 99.2074 94.7299 99.0645C94.0581 98.9038 93.8303 99.4278 93.4032 99.848C92.8944 100.349 91.6714 100.786 91.4449 101.495C91.2628 102.065 91.9622 103.228 92.2203 103.711C92.6306 104.479 93.2808 105.064 93.7845 105.768C94.8419 107.247 95.7809 108.819 97.1716 110.02C100.025 112.486 103.41 114.077 105.62 117.294C106.434 118.479 107.124 120.785 108.659 120.859C109.993 120.924 110.505 121.508 111.608 122.207C112.691 122.893 113.135 122.569 113.839 121.756L113.93 121.649C114.372 121.13 115.277 119.774 116.113 119.882C117.629 120.077 116.437 122.391 116.023 123.102L115.845 123.403C115.138 124.628 115.136 125.144 116.234 126.234L116.299 126.297C117.07 127.049 118.148 127.937 118.489 128.998C118.921 130.343 117.719 130.662 116.649 130.236C115.997 129.977 115.398 129.528 114.843 129.105C114.37 128.744 113.789 127.97 113.201 127.849C111.94 127.588 111.459 129.969 110.127 129.264C108.854 128.591 109.605 126.755 109.991 125.879C110.245 125.303 110.403 125.328 109.995 124.809L109.952 124.755C109.72 124.467 109.141 123.979 108.859 124.364C108.648 124.65 109.097 125.627 109.146 125.926C109.269 126.68 109.232 127.48 109.225 128.248L109.224 128.439C109.222 130.272 108.998 131.638 108.376 133.318C108.188 133.826 107.323 135.201 107.507 135.732C107.725 136.357 108.556 136.403 109.101 136.484C110.057 136.625 111.015 136.756 111.98 136.828C112.489 136.866 113.06 136.77 113.353 137.279C113.974 138.354 112.506 139.6 111.627 139.816C110.541 140.083 108.155 139.126 107.506 140.279C106.956 141.254 107.884 142.829 107.606 143.909C107.043 146.092 105.577 143.402 105.404 142.526C105.119 141.086 105.682 139.161 103.603 139.105C102.13 139.066 100.58 140.176 99.2433 140.683C97.2703 141.432 95.3459 141.775 93.242 141.89C92.3756 141.937 91.5043 141.961 90.6371 141.922C89.6753 141.879 88.7595 141.525 87.8216 141.466C86.8955 141.409 86.8803 141.616 86.8127 142.472C86.7654 143.065 86.8592 143.705 86.5065 144.242C85.8442 145.249 85.0222 144.823 84.7741 143.82C84.5715 143.001 84.967 141.644 84.4777 140.951C84.1681 140.513 83.5727 140.527 83.1012 140.383C82.2479 140.122 81.5514 139.62 80.7677 139.227L80.5983 139.144C80.1661 138.94 79.0896 138.246 78.6235 138.363C77.9916 138.52 77.7705 140.162 77.6483 140.674C77.2552 142.322 76.7765 143.974 76.4608 145.637C76.27 146.643 76.2011 147.668 76.0044 148.671C75.8676 149.368 75.9114 150.064 75.8211 150.714C75.728 151.384 75.3244 151.525 75.4609 152.232C75.5895 152.896 75.8969 153.407 75.9347 154.131C76.043 156.208 76.3302 158.182 77.0038 160.163L77.1772 160.676C77.5886 161.887 78.0669 163.181 79.0066 164.052C79.79 164.777 80.9112 165.093 81.8506 165.568L82.0749 165.68C82.6402 165.959 83.2395 166.212 83.8776 166.241C84.7351 166.281 85.0783 165.69 85.8614 165.519C86.3386 165.416 86.9361 165.591 87.3318 165.24C88.1452 164.519 86.9921 161.64 88.3026 161.31C89.4243 161.027 89.3354 163.449 89.4027 164.038C89.622 165.959 90.8795 165.541 92.39 166.018L92.6521 166.102C93.1229 166.256 93.6363 166.466 93.8598 166.914C94.1434 167.483 93.7889 167.739 94.6034 167.79C95.0931 167.82 95.5629 167.527 96.0753 167.54C96.3293 167.546 96.5584 167.635 96.8216 167.633C97.632 167.628 98.1277 167.157 98.8522 166.925C99.6783 166.661 100.632 166.666 101.484 166.453C102.489 166.201 103.483 165.894 104.477 165.604L104.632 165.561C106.164 165.145 107.985 165.042 108.334 163.27L108.349 163.182C108.479 162.374 108.622 159.848 109.892 160.821C110.907 161.599 109.523 163.94 111.38 163.197C112.875 162.599 114.326 161.695 115.666 160.793L115.877 160.65C116.479 160.242 118.742 159.203 118.48 158.333C118.33 157.837 116.232 156.46 115.727 156.483C114.662 156.532 113.775 158.939 112.628 157.746C112.045 157.139 112.09 155.708 112.407 154.98C112.793 154.091 113.272 153.876 112.426 153.082C112.033 152.713 111.504 152.488 111.133 152.095C110.471 151.392 110.17 150.007 111.246 149.528C112.428 149.002 113.564 150.425 114.464 150.945C115.823 151.73 116.355 150.748 117.229 149.753L117.322 149.648C117.855 149.059 119.261 147.611 119.581 149.184C119.752 150.021 119.051 151.222 118.663 151.92C118.37 152.447 117.835 152.974 117.953 153.621C118.073 154.277 118.987 154.786 119.418 155.225L119.917 155.742C120.63 156.468 121.058 156.713 122.074 155.624C123.343 154.263 124.43 152.769 125.438 151.199C126.415 149.679 127.207 148.109 128.125 146.573C128.514 145.924 128.617 145.214 128.949 144.551C129.203 144.044 129.816 143.935 130.011 143.571C130.192 143.232 130.07 142.467 130.201 142.057C130.444 141.293 131.12 140.871 131.361 140.145C130.103 140.137 128.781 140.747 127.519 140.906C126.663 141.014 125.758 140.843 125.49 141.677C125.235 142.469 126.147 144.049 125.181 144.695C124.654 145.048 124.324 144.614 124.01 144.184C123.241 143.132 123.53 141.194 122.213 140.812C121.358 140.563 120.374 140.638 120.131 139.564C119.903 138.559 120.616 137.908 121.497 137.676C122.364 137.447 123.143 137.73 123.603 136.806C123.921 136.168 123.647 134.469 124.599 134.272C125.679 134.049 125.334 135.908 125.354 136.457C125.4 137.699 126.101 137.606 127.13 137.651C128.153 137.696 129.151 137.726 130.169 137.707L131.214 137.68C131.996 137.655 132.04 137.56 132.206 136.457C132.358 135.454 132.596 134.506 132.707 133.469C132.843 132.188 133.339 131.468 132.962 130.229C133.929 130.544 134.597 130.116 134.076 129.007C133.666 128.134 132.163 127.892 131.346 127.52L131.222 127.462C130.24 126.99 129.433 126.31 128.459 127.11C127.871 127.593 127.412 128.388 126.636 128.602C125.675 128.868 125.06 128.013 125.106 127.109C125.155 126.135 125.81 125.575 126.331 124.851C127.025 123.888 126.197 123.674 125.747 122.833C125.406 122.197 125.221 120.885 125.7 120.269C126.816 118.835 128.052 121.639 129.279 121.324C130.094 121.114 130.867 119.842 131.57 119.352C132.213 118.904 132.476 118.975 132.41 118.199C132.329 117.243 131.859 116.219 131.638 115.256L131.6 115.076C131.387 113.987 131.04 112.953 130.813 111.88L130.773 111.68C130.623 110.883 130.595 110.367 129.546 110.685L129.48 110.706C128.506 111.021 127.613 111.279 126.589 111.414L126.474 111.427C125.627 111.519 124.364 111.477 124.089 112.414C123.889 113.092 124.235 113.831 123.976 114.55C123.607 115.573 122.922 115.625 122.366 114.644C121.976 113.955 122.041 113.125 121.732 112.411C121.088 110.93 118.761 111.633 118.616 109.911C118.451 107.943 120.597 108.638 121.611 107.975C122.26 107.551 122.53 103.638 123.686 105.21C123.925 105.536 123.97 106.035 123.981 106.479L123.987 106.945C124.001 107.536 123.844 107.943 124.262 108.17C124.805 108.466 126.244 108.343 126.996 108.374L127.073 108.377C129.055 108.498 128.752 107.627 128.181 106.089C127.551 104.396 128.948 102.847 130.117 101.639L130.178 101.577C130.829 100.907 133.988 99.1191 134.092 100.871C134.135 101.597 133.871 102.65 133.579 103.297C133.239 104.052 132.511 104.71 132.541 105.585C132.576 106.615 133.499 107.794 133.903 108.726L133.996 108.938C134.27 109.56 134.449 109.857 135.167 110.085C136.677 110.565 138.994 109.993 140.109 111.285C140.065 110.725 140.243 109.987 139.777 109.571C139.333 109.174 138.586 109.327 138.051 109.222C136.459 108.91 137.079 107.436 138.278 107.028C138.755 106.866 139.343 106.873 139.665 106.425C139.996 105.965 139.879 105.171 139.896 104.617L139.899 104.546C139.941 103.785 140.248 101.027 141.503 102.248C142.486 103.203 141.581 104.955 142.115 106.045C142.52 106.873 144.171 106.701 145.012 106.755L145.068 106.759C146.614 106.883 148.073 106.807 149.609 106.745C150.778 106.697 151.439 107.656 150.513 108.583C148.748 110.351 145.567 109.319 143.394 109.738C142.168 109.974 142.381 110.779 142.475 111.818C142.595 113.147 143.091 113.872 143.895 114.894L143.976 114.997C144.912 116.18 145.954 117.354 146.706 118.669L146.751 118.749C147.147 119.492 147.515 120.794 148.52 120.195C149.134 119.829 149.675 118.118 150.64 118.728C151.688 119.392 150.724 121.223 150.327 121.932C150.072 122.385 149.748 122.638 149.974 123.159C150.194 123.664 151.242 124.199 151.643 124.531L151.818 124.675C152.713 125.406 153.902 126.318 154.274 127.415C154.563 128.264 154.369 129.557 153.268 129.423C152.197 129.293 150.939 128.341 149.945 127.934L149.95 129.139C149.952 130.478 149.912 131.815 149.531 133.113C149.372 133.655 148.055 135.629 148.369 136.134C148.81 136.842 150.925 135.881 151.658 136.142C152.912 136.587 152.188 138.064 151.299 138.527C149.256 139.591 145.87 138.076 144.315 140.14C143.562 141.14 144.468 142.687 143.65 143.586C142.544 144.802 142.063 142.72 141.791 141.989C140.607 142.558 139.471 143.552 138.184 143.877C137.637 144.015 136.944 144.088 136.432 144.18C136.045 144.25 135.781 144.207 135.374 144.242C134.122 144.349 133.722 145.442 133.256 146.405C132.699 147.555 132.05 148.67 131.751 149.925C132.828 149.849 133.344 148.621 134.12 148.055C135.19 147.275 135.675 148.104 135.52 149.231C135.398 150.124 134.251 151.289 134.468 152.087C134.675 152.845 135.911 153.399 136.476 153.866C137.219 154.48 137.809 155.214 137.651 156.248C137.504 157.205 136.853 157.394 135.978 157.134C134.867 156.804 133.883 155.98 132.849 155.474C131.816 154.968 131.553 155.572 130.835 156.298L130.735 156.399C129.971 157.154 129.3 157.567 128.306 156.886L128.11 156.752C127.556 156.383 127.62 156.529 127.111 157.182L127.069 157.235C126.421 158.051 125.745 158.456 126.192 159.522C126.663 160.643 127.401 161.652 127.846 162.801C128.221 163.768 128.197 164.494 129.369 164.492C130.528 164.49 131.848 164.217 132.972 163.933C134.288 163.601 135.642 163.379 136.946 163.011C138.104 162.685 139.179 162.131 140.312 161.736C141.581 161.293 143.047 161.141 144.246 160.534C145.256 160.021 146.21 159.685 147.271 159.272C148.397 158.834 149.802 158.683 150.808 158.044C151.588 157.55 152.143 156.777 153.065 156.51C152.458 156.063 151.15 154.614 150.352 154.685C149.715 154.741 149.279 155.739 148.887 156.193L148.751 156.348C148.264 156.897 147.644 157.471 146.939 156.893C146.238 156.319 146.411 155.102 146.783 154.409C147.177 153.674 148.174 153.211 148.106 152.291C148.045 151.454 147.094 150.723 146.844 149.904C146.351 148.285 147.231 146.935 148.632 148.236L148.717 148.317C149.539 149.122 149.997 150.144 151.029 149.059L151.079 149.004C151.614 148.391 152.668 146.504 153.602 147.425C154.061 147.879 153.829 148.869 153.663 149.4C153.468 150.027 152.618 150.768 152.564 151.366C152.497 152.096 153.595 152.57 154.056 152.934C154.746 153.48 155.367 154.376 156.244 154.621C156.245 154.28 156.942 154.111 157.174 153.943C157.631 153.612 157.98 153.14 158.438 152.799C159.167 152.257 160.063 151.763 160.734 151.238C161.203 150.872 161.312 150.266 161.586 149.745C162.018 148.925 163.045 148.486 163.583 147.724C164.245 146.788 165.051 145.863 165.679 144.926C166.122 144.265 166.092 143.626 166.598 142.992C166.878 142.642 167.067 142.284 167.427 142.025C167.685 141.839 167.911 141.758 168.083 141.614C167.881 141.731 168.254 140.787 168.241 141.181C168.251 140.878 168.394 140.815 168.253 140.406L168.23 140.342L167.996 140.955C167.67 140.736 167.699 140.308 167.648 139.972C168.286 140.079 168.719 138.662 169.044 138.152C168.131 137.775 168.301 136.199 168.382 135.426C168.528 134.035 168.546 132.707 168.632 131.317C168.669 130.708 168.624 129.964 168.748 129.366C168.86 128.825 168.859 128.752 168.839 128.255C168.833 128.109 168.663 128.009 168.692 127.819C168.733 127.561 169.09 127.496 169.161 127.288L169.222 127.109C169.318 126.813 169.193 127.057 168.913 126.73C168.312 126.029 168.319 124.123 167.065 124.638C166.273 124.962 165.537 126 164.835 126.514C162.853 127.966 161.841 126.041 163.051 124.331C163.576 123.589 165.305 122.559 165.134 121.549C164.979 120.626 163.636 120.225 163.342 119.314C163.037 118.373 163.631 117.292 164.673 117.323C165.725 117.355 166.346 118.357 167.177 118.801C168.348 119.427 167.886 118.295 167.651 117.549L167.64 117.513C167.354 116.585 167.032 115.674 166.67 114.775L166.512 114.39C166.109 113.426 165.833 112.324 165.161 111.537C164.719 111.019 164.484 110.339 164.04 109.843C163.455 109.19 160.649 108.962 160.125 109.802C159.695 110.492 160.403 111.766 160.007 112.574C159.514 113.578 158.798 113.241 158.369 112.383C157.59 110.826 158.39 109.406 156.242 109.3L155.973 109.29C155.236 109.258 154.564 109.133 154.405 108.243C154.24 107.318 154.904 106.671 155.733 106.478C156.47 106.307 157.278 106.585 157.763 105.861C158.21 105.194 158.327 103.353 158.408 102.562C158.525 101.422 157.734 100.61 156.958 99.8351C156.365 99.2432 155.938 98.4793 155.237 98.0812C154.022 97.3912 153.229 95.9095 151.975 95.4883L151.549 95.3467C151.087 95.1902 150.633 95.0104 150.261 94.6763C149.943 94.39 149.826 93.9526 149.509 93.6838C149.368 93.5646 148.377 93.1719 148.243 93.3143C147.991 93.5813 151.974 96.6124 152.418 97.2746C152.805 97.8519 153.131 98.9149 152.732 99.5859C152.256 100.388 151.38 99.859 150.718 99.5391L150.631 99.4978C149.637 99.0359 148.674 98.5279 147.819 97.8325C147.438 97.522 146.748 96.5246 146.218 96.5347C144.977 96.5583 144.603 99.6253 142.965 99.0887C142.013 98.7769 142.131 97.3624 142.439 96.6549C142.775 95.8848 143.851 95.3274 143.888 94.4618C143.925 93.5986 142.93 92.6876 142.67 91.873C142.375 90.9482 142.62 90.18 143.214 89.4289L142.503 88.9852C141.301 88.24 139.667 87.2938 138.444 87.2802ZM123.335 161.16C121.85 161.055 122.043 163.65 122.003 164.468C121.227 163.851 121.23 164.899 120.978 165.574C122.293 164.893 123.768 164.555 125.242 164.496C124.845 163.743 124.374 163.008 124.095 162.2C123.934 161.738 123.941 161.203 123.335 161.16ZM80.6154 151.577C81.5315 151.236 82.9634 148.153 84.0969 149.362C85.758 151.133 81.8083 152.796 82.5909 154.275C83.1693 155.367 86.3385 157.819 85.0061 159.255C83.8787 160.47 81.6028 158.029 80.7895 157.373C79.1329 156.036 78.6394 159.312 77.3141 158.342C75.7618 157.207 77.9862 154.856 77.7941 153.681C77.669 152.914 76.9227 152.302 76.6733 151.553C76.4417 150.857 76.3577 149.333 77.4217 149.26C78.7888 149.167 79.1306 152.13 80.6154 151.577ZM94.8998 149.108C96.419 148.788 97.024 151.558 98.5663 151.275C99.3351 151.135 99.7779 150.061 100.346 149.62C101.289 148.888 102.046 149.376 102.043 150.501C102.04 151.502 101.134 152.155 101.074 153.096C101.007 154.145 102.055 154.657 102.705 155.321C103.488 156.123 104.379 157.298 104.355 158.479C104.325 159.98 103.391 159.668 102.422 159.22C101.428 158.761 100.766 158.299 99.9785 157.657L99.725 157.448C99.0637 156.899 98.6521 156.799 97.9712 157.36L97.9112 157.41C96.9503 158.241 95.4111 160.435 94.6942 157.983C94.3002 156.636 95.313 155.956 95.6085 154.776C95.8499 153.81 95.136 153.248 94.7096 152.476L94.6727 152.407C94.2759 151.645 93.5848 149.386 94.8998 149.108ZM31.4843 137.472L32.0308 137.341C32.7315 137.164 33.9119 136.831 33.9323 137.976C33.9474 138.834 32.8869 139.018 32.2507 139.248L32.2049 139.265C27.0709 141.21 22.7801 143.875 19.2103 148.072L18.8249 148.527C17.3494 150.273 15.9082 152.063 14.8096 154.065L14.7775 154.126C14.5406 154.592 14.166 155.626 13.5659 155.249C12.6466 154.67 13.7211 152.774 14.0628 152.071L14.097 151.999C16.3142 147.223 19.7412 142.907 24.2642 140.067C26.573 138.616 28.9039 138.086 31.4843 137.472ZM72.5727 137.509L72.183 137.342C71.5456 137.073 71.2007 136.99 70.6403 137.632C69.7085 138.701 69.0146 140.003 68.6084 141.36L68.5318 141.623C68.2234 142.718 67.918 144.27 68.4847 145.253C68.6624 145.561 69.3183 146.356 69.5885 146.569C69.7458 146.693 70.0649 146.738 70.2482 146.851C70.5454 147.033 70.6434 147.334 70.9853 147.503C71.5412 146.103 71.282 144.463 71.7291 143.008C72.0958 141.813 72.5229 140.648 72.9591 139.488L73.3339 138.494C73.5704 137.866 73.075 137.717 72.5727 137.509ZM159.499 134.131L159.51 134.036C159.577 133.31 159.68 130.708 160.658 130.921C161.219 131.043 161.368 132.592 161.381 133.026L161.382 133.148C161.385 134.281 161.01 135.249 162.497 135.5C163.633 135.692 165.257 135.355 166.235 136.081C167.592 137.085 166.352 138.265 165.216 138.518C163.904 138.812 161.761 138.17 161.701 139.874L161.698 140.083C161.679 140.958 161.461 143.24 160.253 142.348C158.916 141.362 160.137 138.879 158.123 138.705L158.04 138.697C156.824 138.562 154.724 137.691 156.344 136.203C157.611 135.039 159.206 136.454 159.499 134.131ZM135.633 113.454C135.737 114.614 136.097 115.74 136.39 116.863C136.667 117.926 136.657 119.055 136.94 120.093C137.584 122.458 137.54 124.924 137.428 127.355L137.393 128.075C137.258 130.801 136.976 133.465 136.455 136.146C136.279 137.05 136.082 137.893 135.814 138.754L135.637 139.306C135.504 139.741 135.411 140.268 135.902 140.451C136.681 140.741 138.391 139.415 139.016 139.002L139.054 138.977C139.57 138.644 140.07 138.29 140.57 137.933C141.075 137.571 141.704 137.386 142.188 137.028C142.842 136.543 143.078 135.633 143.706 135.094C144.415 134.486 145.023 134.166 145.39 133.245L145.598 132.724C146.223 131.136 146.697 129.706 146.374 127.879C146.008 125.802 145.055 123.746 144.083 121.888L143.841 121.429C142.042 118.033 139.672 114.168 135.633 113.454ZM27.0271 132.585C27.4852 132.566 28.2065 132.277 28.6339 132.337C29.3774 132.441 29.766 133.143 28.8718 133.613C28.0188 134.06 26.981 134.023 26.0429 134.063L25.9262 134.069C24.6183 134.136 23.306 134.179 22.0012 134.3C21.396 134.355 19.3846 135.11 19.7865 133.993C19.9743 133.47 20.6665 133.227 21.1233 133.07C22.522 132.588 24.0854 132.599 25.5362 132.593C26.0325 132.591 26.5311 132.607 27.0271 132.585ZM133.408 132.184C133.348 132.391 132.738 133.049 133.147 133.21C133.735 133.442 133.471 132.316 133.408 132.184ZM179.982 104.702C179.632 103.494 180.329 102.771 181.509 103.208C183.64 103.998 185.18 106.363 186.133 108.279C187.201 110.429 187.722 112.78 188.092 115.131C188.485 117.618 188.541 119.918 188.108 122.397L187.98 123.095C187.752 124.281 187.161 126.874 186.062 126.277C185.485 125.964 185.612 124.856 185.687 124.354C185.877 123.076 186.228 121.935 186.234 120.622C186.246 118.135 186.109 115.529 185.42 113.127C184.768 110.854 183.668 108.407 181.883 106.768C181.189 106.132 180.26 105.662 179.982 104.702ZM133.137 121.014C132.531 120.65 132.275 121.891 132.114 122.29L132.038 122.48C131.728 123.266 131.69 123.59 132.432 124.255C133.344 125.073 133.725 123.435 133.655 122.799L133.652 122.769C133.613 122.494 133.352 121.143 133.137 121.014ZM105.065 102.558C105.721 102.341 105.879 102.941 106.015 103.428C106.265 104.324 105.82 105.801 106.406 106.538C106.98 107.259 108.404 107.059 109.213 107.197C109.586 107.261 109.979 107.433 110.357 107.449C110.709 107.464 111.234 107.226 111.559 107.37C112.251 107.675 112.048 108.954 111.729 109.429C111.169 110.26 110.077 110.493 109.15 110.499C108.416 110.503 107.423 110.136 106.712 110.334C105.892 110.562 106.032 111.176 106.106 111.905L106.119 112.038C106.211 112.864 106.633 115.252 105.407 115.29C104.591 115.316 104.253 113.923 104.087 113.145L104.027 112.86C103.807 111.853 104.062 110.099 102.988 109.715C102.284 109.464 101.269 109.876 100.801 109.081C100.489 108.551 100.758 107.812 101.156 107.407C101.7 106.854 102.408 106.974 103.081 106.736C103.99 106.414 104.098 105.724 104.232 104.82L104.245 104.72C104.323 104.067 104.343 102.797 105.065 102.558ZM189.787 103.805L189.748 103.759C189.353 103.279 188.776 101.966 190.008 102.275C192.035 102.782 192.572 106.648 192.333 108.326L192.296 108.56C192.218 109.029 192.14 109.237 191.67 108.814C191.138 108.335 191.257 106.92 191.13 106.293C190.914 105.216 190.516 104.612 189.787 103.805ZM43.5968 106.94C43.4585 106.634 42.6029 106.742 42.3797 106.825C41.7899 107.045 41.7665 107.208 41.9445 107.819C42.2627 107.626 43.9105 107.635 43.5968 106.94ZM160.818 103.815C160.285 103.346 159.898 104.243 159.799 104.745C159.519 106.168 160.899 106.123 161.9 106.238C161.107 105.597 161.644 105.658 161.602 104.936C160.786 105.25 161.161 104.117 160.818 103.815ZM37.4588 67.7052L36.5546 68.4938L36.4845 68.3984C36.0328 67.8019 36.1253 68.3208 35.5264 68.4112C35.1357 68.4701 33.8759 68.1298 33.5064 67.8718L33.3668 68.5909C33.4193 68.6455 32.4461 68.5682 32.5029 68.5525C31.9471 68.7055 31.4807 69.13 30.9236 69.3151C30.3112 69.5188 29.6805 69.6313 29.0418 69.6228C28.75 69.6187 28.4567 69.5113 28.1615 69.579C28.0109 69.6133 27.9898 69.881 27.8988 69.9099C27.6646 69.9843 27.3882 69.9091 27.1624 69.9861C27.001 70.0412 26.8313 70.2842 26.6593 70.3666C26.1528 70.6091 25.4874 70.3893 25.137 70.9433C24.911 71.3007 25.03 72.1887 25.0033 72.5532C24.9532 73.2466 24.8835 73.9376 24.7573 74.6214C24.2417 77.4164 22.8615 80.0254 21.1459 82.2699L20.5111 83.0939C19.9411 83.8329 19.3316 84.5977 18.6915 85.1545C18.311 85.4854 17.9603 85.6893 17.6842 86.1465C17.4718 86.498 17.5373 86.9887 17.0141 86.6532C16.8655 87.3 16.6678 87.0556 16.238 87.3167C15.7592 87.6076 15.786 87.9143 15.444 88.2603C15.3065 88.3993 15.1026 88.4846 14.9864 88.6061L14.5535 89.0611C14.4808 89.1379 14.4036 89.2196 14.322 89.3061C14.005 89.6419 13.4109 89.8043 13.1409 90.1859C12.9481 90.458 13.0389 90.8095 12.8789 91.0837C12.4596 91.8033 11.5325 91.8154 11.0502 92.4451C10.9627 92.5593 10.8147 92.7264 10.6966 92.8391L10.65 92.8819L10.6567 92.8764C10.6961 92.8447 10.3073 93.2215 10.2806 93.2087L10.2794 93.2041C10.1943 93.3545 10.122 93.5862 10.0171 93.6776C9.4001 94.2162 9.33943 94.5846 8.90236 95.2945C8.28737 96.2939 7.94466 95.5313 7.25357 95.7839C7.11499 95.8346 5.99249 97.1979 5.98092 97.3266C5.89685 98.2836 7.65645 97.1673 7.95083 97.0321C9.02345 96.5398 10.0961 96.0478 11.1636 95.545L12.0194 95.1401C14.0158 94.1908 16.0044 93.2028 17.8911 92.053L18.5387 91.6596C19.3338 91.1749 20.133 90.6698 20.8388 90.0767C21.5602 89.4704 22.0096 88.5829 22.9064 88.2263C23.8651 87.8453 25.0779 87.722 25.0622 89.095C25.0519 90.0093 24.2281 90.8648 23.6481 91.4995C20.6511 94.7784 17.097 97.7433 14.5911 101.44L14.3753 101.765C13.9304 102.454 11.8663 105.895 13.9595 104.98C15.6613 104.237 17.0788 102.939 18.6201 101.936L18.8218 101.807C22.5478 99.4665 25.7607 95.8737 28.7889 92.6473L29.2007 92.2098C30.087 91.2711 30.9644 90.3154 31.7684 89.3041C32.2731 88.6692 32.6857 87.9076 33.293 87.3641C33.8849 86.8337 34.8572 86.4426 35.5038 87.0981C35.9864 87.5872 35.922 88.353 35.8133 89.0152L35.7398 89.4372C35.1197 93.0175 33.4959 98.5439 36.9017 101.298C38.616 102.685 41.0086 102.711 43.0155 103.393C43.45 103.541 43.8359 103.858 44.3082 103.873C44.4653 103.878 44.6988 103.694 44.9338 103.698C45.4742 103.708 46.2944 104.378 46.8515 103.979C47.5829 103.456 43.9797 98.9329 43.4565 98.6441L43.2881 98.5498C40.8204 97.1513 38.4866 95.0385 39.3408 91.9325L39.4673 91.465C39.8048 90.2047 40.1511 88.848 40.7137 87.6975C41.3999 86.2953 42.6816 85.3615 43.8866 84.4295C46.7628 82.2043 49.7004 80.15 52.6756 78.0617C51.4055 76.9126 49.4356 76.2278 48.7106 74.5651C48.3429 73.7214 48.5019 73.0662 48.7413 72.2775L48.8235 72.0092C49.1685 70.882 49.0813 70.5221 47.9784 70.1956C47.1577 69.9526 46.8093 69.5587 45.9714 69.4778C44.7726 69.3617 43.7964 68.913 42.6831 68.4871C41.8076 68.1527 41.0458 68.3108 40.1023 68.2596L39.9725 68.2513C39.2596 68.1982 37.6871 68.6632 37.4588 67.7052ZM62.592 75.7267C61.8425 75.1451 60.2398 76.7378 59.6187 77.2004L59.5852 77.2249C58.3105 78.1412 57.0687 79.1023 55.8004 80.0269C53.016 82.0565 50.0809 83.9329 47.16 85.7596L47.0523 85.8253C45.3122 86.8635 41.1469 88.2946 41.8817 90.8373C42.2635 92.1583 43.6208 93.5079 44.4165 94.5859C45.2852 95.7628 46.1378 97.0926 47.1662 98.1371C47.4084 98.383 47.8794 98.6127 48.0475 98.8977C48.1954 99.1479 48.12 99.3392 48.217 99.592C48.4548 100.21 48.8083 100.718 48.9988 101.37C49.2256 102.15 49.2497 104.228 50.2786 104.188C51.1764 104.153 52.8954 102.777 53.6757 102.385C55.1651 101.636 56.6727 100.922 58.1992 100.251C61.1517 98.9517 64.0382 97.657 66.9365 96.2427C67.6432 95.8979 68.3662 95.5885 69.0815 95.2624L69.6162 95.0138C70.2572 94.709 71.3023 94.3859 71.7656 93.8359L71.8424 93.743C72.182 93.322 72.0671 93.292 71.7759 92.7214C71.6716 92.5167 71.5569 92.3181 71.4399 92.1208L71.2054 91.7265C70.7935 91.0286 70.3276 90.355 70.0322 89.596C69.5175 88.2716 68.7614 87.3973 67.9741 86.2119C67.1578 84.9828 66.7431 83.5917 65.8651 82.3858C65.3823 81.7228 65.3946 81.3042 65.1309 80.565C64.9095 79.9453 64.4061 79.3709 64.0521 78.8153L63.8537 78.5026C63.5258 77.9821 63.2165 77.4608 63.0005 76.8781C62.8817 76.5581 62.8763 75.9476 62.592 75.7267ZM89.9984 90.8653C88.7757 89.4593 88.8505 92.5194 88.8884 93.3857L88.898 93.5885C88.9687 95.2561 89.4871 97.1626 90.3663 98.5485C90.724 97.9517 91.4495 97.338 91.5459 96.6189C91.656 95.7993 90.9214 95.2492 90.5283 94.6207C90.1067 93.9469 89.8262 93.1449 89.9159 92.3447C89.9691 91.8697 90.372 91.2948 89.9984 90.8653ZM52.0384 85.1702C54.9533 82.6907 59.96 82.4177 62.7834 85.1366L62.9433 85.2921C64.4376 86.7593 65.9503 88.6662 65.7114 90.8141C65.4494 93.1679 64.4285 95.0024 62.5471 96.4321C59.0393 99.0977 54.6653 99.4444 51.3516 96.2309C48.2073 93.1816 48.7666 87.9532 52.0384 85.1702ZM61.8437 87.3134L61.7637 87.2345C60.4836 85.9755 58.8279 84.968 56.9771 85.1402L56.7447 85.1633C55.4351 85.3012 53.6303 85.6295 52.6472 86.4595C51.409 87.5039 50.9549 89.2128 50.8571 90.7593C50.7482 92.4779 51.4842 93.6615 52.7022 94.8359C55.583 97.613 59.1572 97.9827 62.3048 95.4029C63.5587 94.3747 64.5345 93.0681 64.3536 91.3557C64.1857 89.7668 62.94 88.3976 61.8437 87.3134ZM56.6472 87.1103C56.8225 86.8526 56.8082 85.9611 57.3919 86.0479C57.7489 86.1011 57.738 86.7411 57.9592 86.9397C58.2128 87.1671 58.9537 87.0726 59.1227 87.3588C59.4144 87.8514 58.6643 88.0589 58.4078 88.3354C57.7474 89.0462 58.0837 90.0408 57.4637 90.8326C56.9858 90.3191 57.0159 89.3219 56.495 88.9894C56.1931 88.7969 54.992 88.9191 54.7835 89.1971L54.8842 89.249C55.3567 89.4991 55.9855 89.9378 55.4865 90.4784C55.0597 90.9413 54.2808 90.3944 54.0816 91.1521C53.7505 92.4115 55.8467 92.1047 56.3474 92.409C57.3076 92.9922 56.4721 94.7919 58.0062 94.7835C58.7654 94.7792 59.9551 93.5396 60.6731 94.0689C61.3188 94.5449 60.4677 95.5793 60.1571 95.9808C59.5117 95.2461 59.347 95.2339 58.536 95.4927L58.2346 95.5896C57.5044 95.8194 56.7388 95.9851 56.2281 95.2102C55.8081 94.5722 56.0951 93.8425 55.2988 93.4917C54.7143 93.2341 53.9862 93.6651 53.4414 93.0727C53.0449 92.6417 53.0877 92.0151 53.1154 91.4795C53.1302 91.1969 53.2866 90.7957 53.2155 90.5141C53.1336 90.1892 52.8038 90.0149 52.7172 89.73C52.3785 88.6154 54.1236 88.8677 54.7633 89.1869C53.8031 87.6172 56.12 87.884 56.6472 87.1103ZM60.556 89.4091C61.4677 88.439 61.1725 90.6715 61.9216 90.8101C62.2492 90.8707 63.3143 90.5093 63.1668 91.1392C63.0476 91.6479 61.7664 91.4799 61.4484 91.8419C61.1354 92.1978 61.3092 93.3431 60.694 93.4208C60.0327 93.5041 60.2901 92.3632 60.2901 91.9755C59.7756 92.0701 59.4033 92.042 58.9213 91.8251C59.057 91.5996 59.1153 91.3046 59.3457 91.1506C59.6018 90.9788 59.9268 91.1333 60.183 90.8714C60.5643 90.4819 60.2143 89.7726 60.556 89.4091ZM91.7711 91.5056C92.327 92.0303 92.9268 92.8517 93.6554 93.1398C94.5229 93.4827 94.8605 92.8565 95.3803 92.2585C94.3136 91.5399 92.9883 91.6514 91.7711 91.5056ZM129.637 90.526C128.912 90.732 128.184 90.9292 127.462 91.1447C126.414 91.4567 126.787 92.2523 127.733 92.0816C128.517 91.9397 129.088 91.0301 129.637 90.526ZM67.2938 71.9909C66.3104 71.941 65.2316 72.8408 64.366 73.201C65.1703 74.6104 66.1178 75.9785 66.8501 77.4091L67.0036 77.7167C67.7605 79.2746 68.8231 80.6391 69.5255 82.2251C70.2752 83.9179 71.3519 85.4619 72.2644 87.0744C72.6421 87.7416 73.0135 88.4125 73.3926 89.079L73.7748 89.7438C74.1114 90.3226 74.5667 91.5231 75.112 91.9129C75.4981 92.1888 75.7367 92.1263 76.1995 91.9275L76.569 91.766C77.1153 91.5234 77.6052 91.2536 77.6198 90.605C77.6347 89.9392 77.0156 89.1707 76.739 88.5984C76.3345 87.7624 75.9872 86.8965 75.6046 86.0502C73.9677 82.4313 71.8751 79.0593 70.0173 75.5553L70.0114 75.6114C69.9658 76.1463 70.0203 78.1158 69.2704 78.005C68.1038 77.8325 68.3664 74.8056 68.3306 73.883L68.3061 73.4047C68.2618 72.7102 68.1328 72.0337 67.2938 71.9909ZM146.213 91.6825C146.409 90.9881 146.037 90.9554 145.474 91.2299L146.213 91.6825ZM196.39 40.5781L196.329 40.5433C195.856 40.2681 194.525 39.3619 194.106 39.7849C193.726 40.1671 194.927 42.2367 195.172 42.7938L195.186 42.826C195.929 44.6128 196.359 46.5108 196.223 48.4573C195.985 51.8576 194.815 55.5563 193.298 58.5905C191.975 61.2344 189.95 63.5631 187.429 65.0881C186.862 65.4313 186.291 65.3525 185.657 65.5178C184.871 65.7227 184.361 66.0551 183.496 66.0309C182.743 66.0101 182.194 65.8643 181.533 65.6223C180.949 65.4081 180.618 65.4349 179.971 65.4231C179.656 65.4174 179.285 65.5652 179.03 65.5577C178.591 65.5448 178.446 65.4753 177.999 65.3363C177.263 65.1074 176.536 65.1347 175.773 65.0806C174.155 64.9653 172.54 64.6532 170.964 64.2794C167.491 63.4553 164.416 62.1319 161.237 60.548C158.129 58.9988 155.566 56.7602 152.67 54.8609C150.229 53.26 147.668 51.8617 145.482 49.9312C144.851 49.3738 144.168 49.3373 143.516 48.8622C142.986 48.4758 142.63 48.0479 142.024 47.7263C141.633 47.5185 140.681 47.3476 140.398 47.1048C140.073 46.8262 140.239 46.3164 139.934 46.0301C139.231 47.5474 137.471 45.3906 136.463 45.0829C134.811 44.5786 133.143 44.7392 131.451 44.6151C130.97 44.5799 130.09 44.2549 129.634 44.4802C129.073 44.7573 129.183 45.2686 129.055 45.8113C128.697 47.3324 127.293 48.4892 126.016 49.2706L125.767 49.4216C123.635 50.701 121.16 51.8606 118.702 51.615C118.642 51.4886 118.547 51.4186 118.417 51.4049C118.27 51.3303 118.134 51.3656 118.008 51.5108L117.548 51.414C117.507 51.405 117.482 51.399 117.486 51.3988C116.852 51.4328 116.096 51.5553 115.386 51.4747C113.594 51.2713 112.053 50.3107 110.441 49.5808C110.711 50.3084 110.046 51.1907 109.442 51.5205C108.95 51.7886 108.005 51.5347 107.674 51.941C107.372 52.3115 107.598 53.4428 107.604 53.8836C107.617 54.874 107.623 55.8655 107.582 56.8552C107.419 60.7754 106.318 64.0133 103.673 66.9151L103.546 67.0531C102.398 68.2855 100.987 69.3259 99.223 68.924C97.6629 68.5687 96.327 67.3914 95.2924 66.2245C92.7803 63.3906 91.8205 59.6868 90.9183 56.1016C89.8928 57.5313 89.1685 59.2012 88.6921 60.8876C88.4954 61.5848 88.1319 61.792 87.8444 62.3693C87.5313 62.9988 87.647 63.515 87.2539 64.1471C86.8608 64.7802 86.8459 65.3672 86.6885 66.1053C86.5034 66.9766 86.1365 67.7912 85.9468 68.6589C85.8046 69.3113 85.8077 69.9776 85.5699 70.6079C85.3719 71.1313 84.8081 71.7003 84.7554 72.2618C84.716 72.6794 85.0816 72.9281 85.0577 73.2855C85.04 73.5537 84.8266 73.5398 84.7543 73.716L84.6999 73.8425C84.5074 74.2728 84.3932 74.359 84.3779 74.9729L84.3764 75.0599C84.3608 76.6553 84.1132 78.2273 83.9214 79.8086L83.8812 80.1476C83.7946 80.8999 83.6216 81.7545 83.829 82.5019L83.8535 82.5752C83.964 82.8863 84.3727 83.9091 84.3936 83.9277C84.6009 84.1117 85.1925 84.3386 85.5414 84.4608L85.6596 84.5014C86.4692 84.7732 86.5088 84.6896 86.8443 85.5116L86.9547 85.4319C87.5729 84.9925 87.427 85.2474 87.8827 85.4413C88.336 85.6341 88.8535 85.7135 89.3668 85.8419L89.5377 85.8868C91.1554 86.3332 92.7605 86.5183 94.4036 86.8571C97.4493 87.4852 100.54 87.6501 103.58 88.2792L104.116 88.3952C105.683 88.75 107.233 88.7927 108.838 88.8813C109.521 88.9192 110.217 88.7899 110.888 88.9629C111.004 88.9928 111.161 89.1861 111.271 89.1905C111.511 89.1998 111.648 89.0443 111.84 89.0481C112.642 89.0639 113.576 89.1516 114.513 88.9666L114.679 88.931C115.173 88.816 115.71 88.8133 116.217 88.869L116.343 88.8841C116.589 88.9161 116.879 88.923 117.1 89.0451C117.213 89.1076 117.422 89.4593 117.54 89.4588C117.592 89.4588 118.008 88.9874 118.084 88.9354C118.499 90.1995 118.653 88.7634 119.491 88.7147C119.866 88.6931 120.214 88.9228 120.607 88.8962C121.057 88.8661 121.45 88.5847 121.952 88.5811C122.453 88.5778 122.814 88.7212 123.251 88.68C123.899 88.619 124.654 88.1349 125.344 87.9738C127.878 87.3819 130.314 87.0701 132.741 85.9995C133.508 85.6612 134.506 85.0001 134.874 84.2174C135.224 83.4715 134.747 82.7153 134.476 82.0181C132.649 77.323 131.806 72.0231 132.095 66.9877C132.234 64.568 132.86 62.3358 133.762 60.105L134.203 59.0296C134.91 57.3157 135.744 55.5047 137.343 54.5136C138.228 56.3614 136.619 59.0573 135.987 60.8049C135.666 61.6897 135.378 62.58 135.106 63.4795L134.972 63.93C134.733 64.739 134.272 65.7863 134.655 66.6203C134.933 67.2266 135.679 67.5543 136.209 67.8893C136.986 68.3795 137.719 68.9344 138.473 69.4604L138.797 69.6838C139.553 70.1977 140.261 70.7358 140.981 71.2984C141.835 71.9662 142.797 72.224 143.707 72.7757C147.029 74.7892 150.31 76.5796 153.928 78.0023L155.096 78.4545C158.209 79.6676 161.294 80.9636 164.487 81.7519C166.372 82.2174 168.449 82.6046 170.367 82.92C172.17 83.2163 174.112 83.0307 175.945 83.1056C180.074 83.2748 184.207 82.8721 188.138 81.5428C191.893 80.2733 195.316 78.1829 198.488 75.8328C200.076 74.657 201.137 73.2474 202.464 71.8154L202.777 71.4801C203.984 70.1953 205.253 68.9047 206.12 67.3677L206.621 66.4758C208.286 63.5076 209.861 60.5732 210.872 57.2901C211.502 55.2448 211.919 53.14 212.505 51.0826C212.807 50.0242 212.708 49.0865 212.843 48.0219C212.95 47.1833 213.322 46.4745 213.263 45.6214L213.251 45.4923C213.154 44.6846 213.897 43.2871 212.801 42.9352C212.366 42.7956 210.497 42.9774 210.935 43.6417C210.329 43.9269 209.474 43.4761 209.026 44.1252C208.937 43.8517 208.906 43.5719 208.933 43.2853C208.263 43.661 208.225 43.8341 207.548 43.8954L207.46 43.9025C207.061 43.9308 206.579 44.0013 206.131 43.9725L205.915 43.9584C205.322 43.9159 204.631 43.8136 204.871 43.144C204.502 43.2462 204.087 43.5667 203.685 43.5358C203.258 43.5029 203.162 43.2277 202.823 43.0755L202.755 43.0446C202.288 42.8288 201.123 42.2598 200.905 42.6787C200.003 41.5019 197.678 41.2776 196.39 40.5781ZM66.7172 61.6504C66.8205 61.1363 66.6647 60.9736 66.2495 61.1623C66.0356 61.2246 65.8448 61.3289 65.6767 61.4746C64.8809 61.9697 64.1768 62.7014 63.3697 63.2233C62.2349 63.9576 61.1833 64.7864 60.1824 65.696C58.2511 67.4508 56.4177 69.4354 54.7512 71.4415C54.4969 71.7474 53.9742 72.9093 53.5662 72.8795C53.3397 72.863 52.8944 71.891 52.6157 71.7201C52.4324 71.6073 51.623 71.2554 51.3888 71.2932C50.4746 71.4408 51.551 73.1526 51.8516 73.4531C52.6249 74.2255 53.2695 74.675 53.8066 75.6603L53.9066 75.8417C54.4333 76.7822 54.6882 76.9537 55.6919 76.2538C56.6321 75.5983 57.4944 74.8274 58.4352 74.1763C58.9615 73.8122 59.5821 73.6261 60.0922 73.2432C60.465 72.9636 60.7203 72.5581 61.1509 72.3524C62.141 71.8787 63.1895 71.5623 64.1927 71.0368C64.7555 70.7422 65.3255 70.459 65.9106 70.2119C66.3163 70.0407 67.0871 69.9207 67.4047 69.5991C67.9638 69.033 67.7278 68.3689 67.624 67.6182C67.4352 66.2596 67.2272 64.9035 67.0159 63.548C66.9295 62.9929 66.9552 62.1533 66.7172 61.6504ZM62.3439 43.1944C61.6842 42.9869 61.0658 43.5667 60.5059 43.8108C60.2138 43.938 59.8487 44.0773 59.5317 44.1352C59.5618 44.2995 59.4975 44.377 59.3386 44.3682L58.9964 44.1834C58.1909 44.4514 57.4407 44.9344 56.6229 45.2155C56.4838 45.351 56.3532 45.3417 56.2316 45.188C56.0657 45.3819 55.8837 45.5595 55.6852 45.7209C55.3073 45.8265 55.2273 45.7575 54.9944 45.4176C54.5355 46.1527 53.27 46.4763 52.4951 46.7407C52.2532 46.8234 52.0017 46.8512 51.7752 46.9158L51.6653 46.9479C51.2941 47.0596 51.4666 47.0552 51.0661 47.3756C50.5504 47.7889 49.9403 47.8242 49.3888 48.1581C49.0806 48.345 48.8767 48.7034 48.5784 48.8743C48.1357 49.1277 47.7287 48.8911 47.2652 49.114C46.8805 49.2989 46.8134 49.6684 46.5684 49.9614C45.9676 50.6805 45.3446 50.3833 44.5134 50.7592C43.8262 51.0703 43.586 51.6493 43.0868 52.0221C42.5875 52.3949 41.9116 52.5483 41.393 52.9358C41.1747 53.0988 40.9806 53.443 40.7086 53.5303C40.2972 53.6626 40.1568 53.5182 39.8751 53.6601C39.7651 53.7154 39.6504 53.8139 39.5435 53.8951L39.4804 53.9412C39.0127 54.2667 38.4605 54.9062 37.9342 55.399C37.0079 56.2664 36.0335 57.0496 35.0894 57.9015C34.6538 58.2947 34.2623 58.7486 33.8162 59.1276C33.3545 59.5197 32.7865 59.3848 32.3896 59.6772C32.1615 59.8451 32.0301 60.3096 31.8309 60.5691C31.4776 61.0292 30.966 61.359 30.5608 61.7715C29.3887 62.9638 27.9008 63.8263 26.9056 65.1944C31.8098 64.3793 36.7613 62.6615 41.819 63.7709C44.2841 64.3113 46.851 65.4372 48.9777 66.7995C49.3261 67.0224 49.6318 67.3687 50.0002 67.5458C50.5167 67.794 50.9836 67.63 51.5024 67.8334C52.2432 68.1241 53.4317 69.0296 53.8755 69.6743L54.1886 69.246C56.491 66.11 58.9355 63.0813 62.1665 60.8526C62.9622 60.3037 63.7749 59.7751 64.6156 59.2985L64.7433 59.2282C65.3237 58.9168 65.9676 58.6576 66.1366 57.9615C66.2845 57.3516 65.8746 56.5058 65.7101 55.9322C65.4581 55.0542 65.29 54.1547 65.0987 53.2618C64.6282 51.0674 64.1567 48.8736 63.6883 46.6787L63.6669 46.5701C63.4927 45.6181 63.4032 43.5277 62.3439 43.1944ZM98.2854 37.7097L97.968 37.6625C97.1903 37.5428 95.3701 37.1948 95.0206 38.0037C94.3969 39.4471 94.3817 41.47 94.0946 43.0137L93.8153 44.4965C93.5983 45.6501 93.3879 46.8054 93.2281 47.968L93.1628 48.4668C93.0297 49.5419 92.3602 51.2044 93.7896 51.347C94.1601 51.3841 95.1291 51.1089 95.1271 51.8426C95.1258 52.3887 94.2324 52.3684 93.8745 52.4338C92.5401 52.6784 92.7651 53.4268 92.8193 54.607L92.8405 55.0767C92.8936 56.248 92.9574 57.3979 93.2405 58.5501C93.8413 60.996 95.0404 63.8582 97.0713 65.4581C99.4806 67.3563 101.502 65.7825 103.158 63.7714C104.984 61.5555 105.727 58.7689 105.928 55.95L105.939 55.7808C105.988 55.0087 106.444 52.9235 106.024 52.2281C105.551 51.4474 104.395 51.7031 103.627 51.5602C101.433 51.1526 99.2386 48.6838 98.5455 46.6501C97.6379 43.9872 98.4337 41.6556 99.4693 39.2128C99.9496 38.0803 99.2461 37.8584 98.2854 37.7097ZM93.0035 38.0918C92.9992 37.1407 92.4118 37.3081 91.5688 37.3363L91.5122 37.3379C89.3204 37.393 86.9965 37.2936 84.8603 37.8081C82.9562 38.2666 80.8341 38.4914 78.9151 38.4314C78.1777 38.4085 77.7669 39.0449 76.9022 39.2352C75.9152 39.4522 74.8986 39.5009 73.9139 39.72C72.8907 39.9476 71.6964 40.0918 70.7398 40.522C70.3636 40.6911 70.0273 40.9993 69.6265 41.1113C69.156 41.2429 68.9169 41.0611 68.4595 41.0336C67.9577 41.0032 66.6984 41.1901 66.2078 41.4033C66.0065 41.4911 65.6679 41.901 65.4738 42.0686C65.1558 42.3433 64.9607 42.3451 64.8128 42.7897C64.5341 43.629 65.2018 45.2197 65.3854 46.0729C65.6433 47.2729 65.9065 48.4717 66.1821 49.6676C66.7547 52.1521 67.362 54.6284 67.9417 57.1111L69.6288 56.3067C71.8794 55.2367 74.1446 54.201 76.5397 53.4871C79.5889 52.5782 82.7356 51.9891 85.8982 51.6565C87.0931 51.5309 88.1213 51.5021 89.2357 51.1151L89.5333 51.0067C90.4864 50.6669 90.981 50.6898 91.093 49.5207L91.0999 49.441C91.3027 46.8332 91.7567 44.3368 92.2931 41.7686C92.5347 40.6103 93.0086 39.2784 93.0035 38.0918ZM47.0919 34.0958L47.2182 34.0508C47.8628 33.8169 48.6899 33.4815 48.942 34.3905C49.1722 35.2203 48.3709 35.6859 47.7544 35.9837C43.1698 38.198 38.1372 39.2561 33.6519 41.755C29.3946 44.1267 25.1469 46.9989 21.5272 50.2884C20.8804 50.8763 21.1026 51.509 20.2218 51.9669L20.1181 52.0188C19.1569 52.481 18.4107 52.3053 18.6396 50.9843C18.8248 49.9144 19.7496 49.0415 20.476 48.2908L20.5479 48.2161C22.5458 46.1314 24.7872 44.2753 27.1268 42.5966C31.1485 39.7109 35.5943 37.2452 40.3416 35.8154C42.5655 35.1454 44.8993 34.8585 47.0919 34.0958ZM104.18 41.6269L103.846 41.1231C103.379 40.4281 102.849 39.7957 101.927 40.3088C100.965 40.8446 100.859 42.039 100.703 43.0204L100.691 43.0974C100.299 45.4985 101.304 47.803 103.462 49.0461C104.565 49.6812 105.378 49.3797 106.503 49.2989C106.713 49.2837 107.038 49.5412 107.174 49.4433C107.466 49.2339 107.353 48.6425 107.319 48.3155L107.315 48.2745C107.087 45.6801 105.576 43.7113 104.18 41.6269ZM119.892 32.7873C119.84 33.6691 119.948 34.771 119.438 35.5475C118.814 36.4994 117.751 35.8786 117.076 36.5334C116.865 36.7383 117.019 37.176 116.779 37.3848C116.509 37.6183 116.015 37.5107 115.683 37.6374C114.829 37.963 114.099 38.8902 113.227 39.144C112.83 39.2599 112.841 39.1433 112.462 39.1381C112.254 38.8675 112.063 38.8685 111.89 39.1417C111.698 39.2885 111.506 39.4365 111.316 39.5861C110.522 40.2599 110.219 40.815 110.644 41.807C110.798 42.1669 111.127 42.49 111.192 42.887C111.246 43.2158 111.036 43.5667 111.146 43.8816C111.285 43.9563 111.422 44.033 111.559 44.1118C111.626 44.2997 111.64 44.4921 111.602 44.6893C111.633 45.1038 111.484 45.4581 111.581 45.8806C111.81 46.8901 112.755 47.4248 113.539 47.9755C114.546 48.6826 115.686 48.5722 116.86 48.7645L116.982 48.7855C119.327 49.2127 121.839 49.2237 124.07 48.2657L124.349 48.144C125.191 47.7704 126.048 47.3081 126.48 46.4689C126.98 45.4969 127.042 44.1792 127.048 43.1079C127.059 40.9483 126.392 38.3106 125.343 36.4152C124.967 35.7368 124.248 34.9361 124.693 34.1135L124.341 34.2108C123.697 34.3949 123.639 34.4891 123.42 35.3403C122.134 34.5859 121.457 33.0864 119.892 32.7873ZM105.499 38.7048C104.706 38.4708 104.32 39.1466 104.539 39.6924C104.945 40.7112 106.09 41.7655 106.679 42.73C107.874 44.6859 108.944 46.7405 109.176 49.0571C110.874 48.2965 109.303 44.3938 108.713 43.2546L108.443 42.7454C107.981 41.8822 107.49 41.0178 106.917 40.2303L106.782 40.0456C106.45 39.597 105.839 38.8053 105.499 38.7048ZM122.074 44.6144L122.333 44.5177C123.055 44.2543 123.854 44.0384 123.944 45.0593C124.041 46.159 122.94 46.8346 121.935 46.8541L121.841 46.8541C120.982 46.8374 119.289 46.3907 119.413 45.2991C119.471 44.7855 119.529 45.0157 119.952 44.95L119.996 44.9424C120.699 44.8064 121.361 44.8799 122.074 44.6144ZM121.043 38.6412C121.589 38.4515 122.334 39.5601 122.657 39.8536L123.058 40.2164C124.043 41.1223 125.381 42.535 123.76 43.4854C123.218 43.8033 122.085 43.9193 121.835 43.164C121.564 42.3418 122.593 42.2197 123.127 42.03C122.44 41.3123 121.588 40.5531 121.111 39.6708L120.986 39.4254C120.854 39.1598 120.68 38.7671 121.043 38.6412ZM117.377 38.3355C118.55 39.0694 119.526 42.1177 118.204 43.21C116.758 44.4038 114.462 40.7621 114.923 39.4888C115.884 39.9526 116.441 40.9513 117.336 41.5111C117.28 40.4621 117.06 39.3652 117.377 38.3355ZM127.876 29.3053C126.02 29.3014 126.773 30.1621 127.815 30.8985L127.939 30.985C128.883 31.6305 130.075 33.3552 128.194 33.7185C129.537 35.4512 130.121 38.0668 129.41 40.1559L129.37 40.2673C128.974 41.3484 129.458 41.5307 130.431 41.6486L130.55 41.6625C131.423 41.7612 132.089 41.6914 132.631 40.9316C134.024 38.9814 133.272 36.3222 132.525 34.2989L132.489 34.2015C131.792 32.3305 130.265 29.3102 127.876 29.3053ZM124.534 38.0703L124.521 38.0225C124.398 37.5949 123.909 36.4604 124.739 36.6537C125.178 36.7559 125.355 37.7628 125.43 38.0795L125.468 38.2447C125.628 38.9617 125.921 40.5754 125.111 40.8571C123.853 41.2953 121.701 37.3828 122.863 36.8059L122.901 36.7888L124.449 39.5651C124.729 39.0788 124.661 38.589 124.534 38.0703ZM214.143 8.55662L214.011 8.53572C213.566 8.47255 213.074 8.47957 212.83 8.7183C212.524 9.01928 212.723 9.5651 212.223 9.7515C211.866 9.88436 211.628 9.54785 211.228 9.71778C211.037 9.79888 210.836 10.1915 210.688 10.3367L210.56 10.4608C210.21 10.7959 209.693 11.2432 209.233 11.2054C208.985 11.1851 208.798 10.7971 208.565 10.8491C208.361 10.8941 208.348 11.227 208.19 11.3179C207.782 11.5536 207.354 11.7084 206.911 11.9202L206.72 12.0149C206.012 12.3802 205.29 12.6207 204.59 12.9636C203.847 13.3282 203.315 13.9487 202.492 14.1855C201.889 14.3591 201.584 14.3573 201.102 14.7756C200.575 15.2339 200.343 15.6296 199.627 15.815C199.203 15.925 198.97 15.7895 198.63 16.1229C198.453 16.2965 198.516 16.5944 198.311 16.7782C197.963 17.0902 197.332 17.0897 196.935 17.3902C196.393 17.8006 196.197 18.5467 195.639 18.9285C195.258 19.1893 195.043 19.179 194.752 19.5194C194.412 19.9174 194.666 19.9028 194.09 20.194C193.797 20.3423 193.747 20.1299 193.424 20.4367C193.153 20.6942 193.163 21.1937 192.954 21.5026C192.727 21.8384 192.326 22.0734 192.019 22.3255C191.497 22.7549 191.225 23.1829 190.78 23.6702C190.389 24.0989 189.415 24.5155 189.623 25.2253C189.836 25.9488 191.114 26.2073 190.694 27.2441C190.299 28.215 188.249 27.2557 187.462 27.1934C186.938 27.1522 186.391 27.1789 185.88 27.0386L185.455 26.9009C185.201 26.5919 185.005 26.5896 184.867 26.8942C184.354 26.898 183.895 26.966 183.403 26.8757C183.135 26.8262 183.003 26.6432 182.681 26.6269C182.332 26.6092 182.072 26.7871 181.684 26.7258L181.573 26.7071C180.781 26.566 180.55 26.354 180.239 27.2654C180.587 26.5402 182.577 27.4627 183.066 27.74C183.429 27.9464 183.545 28.1552 183.877 28.2199C183.998 28.2433 184.205 28.0502 184.392 28.0677C184.566 28.0839 184.859 28.2497 185.02 28.3208L185.473 28.5218C187.815 29.5701 190.159 30.775 192.057 32.4999C193.031 33.3853 193.735 34.2916 194.489 35.3557C194.903 35.9407 195.033 36.5563 195.66 36.917C196.605 37.4607 197.952 37.6574 198.978 38.0045L199.95 38.3334C200.922 38.6613 201.896 38.9828 202.882 39.2676L203.174 39.3507C205.403 39.9726 208.406 40.5588 210.645 40.0143C212.803 39.4895 210.144 35.2 209.613 34.0481C209.337 33.4477 209.099 32.8519 208.907 32.2211C208.738 31.6632 208.451 31.2904 208.247 30.7706C207.803 29.6357 208.73 28.8272 209.469 28.1241C211.511 26.1805 213.889 26.6478 216.469 26.2875L216.598 26.2688C219.216 25.8757 221.859 25.7575 224.49 25.6947C225.435 25.672 226.222 25.2698 227.225 25.1967C228.504 25.1033 229.798 24.9704 231 24.4928C232.86 23.7531 228.048 22.4892 227.532 22.3788C225.525 21.9496 223.457 21.8404 221.41 21.9244C219.237 22.0135 217.074 22.301 214.904 22.4385C214.037 22.4934 212.911 22.4712 212.089 22.7627C211.828 22.8556 211.93 23.1527 211.653 23.1429C211.321 23.1311 211.107 22.7228 210.899 22.5129L210.373 23.0101C208.594 20.9679 211.781 20.0109 213.275 19.4661C215.269 18.7389 217.253 18.1449 219.267 17.5154L219.872 17.3253C221.373 16.8503 223.433 16.3791 224.623 15.2906C226.077 13.9616 224.118 13.7965 223.095 13.7642L223.058 13.763C222.354 13.7427 221.632 13.6783 220.935 13.8096C220.528 13.8866 220.131 14.1255 219.721 14.1582C219.348 14.1879 218.946 13.969 218.58 13.9288C218.111 13.8776 217.167 13.8665 216.705 14.0947C216.399 14.2466 216.493 14.5354 216.115 14.6799C215.948 14.744 215.335 14.597 215.13 14.6194C213.541 14.7922 211.927 15.5203 210.373 15.9414L209.488 16.1728C208.456 16.4343 206.992 16.7188 206.313 16.0104C204.819 14.4538 210.653 11.442 212.236 10.6569L212.516 10.519C213.077 10.2451 216.06 8.8908 214.143 8.55662ZM75.0722 15.0308C75.0907 13.3725 73.6651 13.8671 72.4665 14.3828C71.0887 14.976 69.8595 15.9085 68.8136 16.9754C66.739 19.0918 65.2815 21.8229 64.4161 24.644C63.6156 27.2547 63.4037 29.7383 63.5431 32.4371L63.5571 32.6907C63.616 33.6814 63.344 37.8042 64.4932 38.0449C65.1846 38.1899 66.1857 37.5223 66.8246 37.3039C67.7726 36.9798 68.6542 36.8675 69.6129 36.6953C70.5827 36.5207 71.6455 36.2355 72.6706 35.9814C74.0204 35.6466 75.3745 35.3274 76.7295 35.0128C74.5911 32.1655 73.9995 29.3293 74.0985 25.7958C74.2001 22.1901 75.0316 18.6309 75.0722 15.0308ZM115.452 16.3325C113.163 16.0964 110.533 16.2092 108.344 16.9399L107.735 17.1426C106.244 17.6428 104.582 18.2639 103.622 19.4955C102.21 21.3044 102.197 23.8075 102.072 25.9871C101.943 28.2258 102.601 30.1295 102.533 32.3334C102.501 33.3872 102.634 34.1477 103.146 35.0645C103.643 35.9541 103.854 35.8346 104.856 35.6858C104.17 34.0056 104.543 33.5051 105.41 31.9835C105.761 31.3692 106.005 30.7412 106.236 30.0969L106.574 29.1509C106.847 28.4116 107.128 27.857 107.989 28.1197C108.316 28.2196 108.366 28.4897 108.745 28.4132C109.121 28.3372 109.465 27.6542 109.686 27.3394L110.001 26.914C110.577 26.1476 111.369 25.2317 112.355 25.6195C112.932 25.8463 112.706 26.1334 113.37 25.8633C113.856 25.6657 114.332 25.0233 114.726 24.6298L114.882 24.4779C115.322 24.0367 115.925 23.3237 116.505 23.8301C116.98 24.2454 116.845 25.301 116.922 25.8692L117.633 25.494C118.982 24.791 120.194 24.3129 121.495 25.7021C121.716 25.939 121.655 26.1164 121.94 26.3082C122.207 26.4871 122.559 26.4593 122.856 26.6831C123.235 26.9686 123.666 27.9356 124.161 27.9621C125.393 28.0279 123.612 25.2389 123.356 24.7354L123.135 24.2845C122.318 22.6178 121.395 20.8328 120.232 19.4213C118.988 17.9126 117.467 16.5406 115.452 16.3325ZM94.5512 30.9518L94.5962 30.379C94.7584 28.3136 93.8172 25.2503 91.2631 25.5925C88.6217 25.9465 86.9903 28.1699 85.4202 30.0757C84.3952 31.3197 83.3598 32.5553 82.3299 33.7957C85.4187 33.7957 88.5769 33.0996 91.6572 33.5167C92.371 33.6132 93.3677 34.0854 93.9295 33.459C94.3296 33.0129 94.4789 31.7917 94.5512 30.9518ZM38.9728 29.2517L38.9958 29.2506C41.0724 29.1885 40.8018 30.5546 39.0822 30.9186L39.0201 30.9312C37.1531 31.2932 35.3217 31.8611 33.4266 32.0883C31.507 30.5775 38.155 29.2975 38.9728 29.2517ZM126.54 25.9519V27.3342C127.034 27.2476 126.84 26.3737 126.564 25.9841L126.54 25.9519ZM189.88 0.478487L190.029 0.354053C190.474 -0.00762925 190.979 -0.298839 191.224 0.568878C191.387 1.14642 190.745 1.82882 190.349 2.32166L190.311 2.3703C189.157 3.83609 187.833 5.13598 186.747 6.66161C185.696 8.13895 184.709 9.69436 183.825 11.2783L183.686 11.5269C183.312 12.2004 182.913 12.9536 182.769 13.6991C182.614 14.4993 182.994 15.4818 182.473 16.1836C181.848 17.0269 181.381 15.7899 181.226 15.2768C180.979 14.4605 180.98 13.5905 181.13 12.7566C181.421 11.1422 182.252 9.65173 183.131 8.29072C184.983 5.42308 187.276 2.69283 189.88 0.478487ZM175.677 7.77819L175.708 7.72934C175.904 7.43352 176.397 6.83987 176.7 7.22526C176.932 7.51964 176.501 8.46774 176.416 8.73635C176.24 9.29031 176.1 9.78988 176.048 10.3802C176.006 10.8674 176.392 12.5298 176.032 12.9121C175.341 13.6434 175.123 11.4894 175.091 11.1293C174.999 10.1345 175.128 8.66159 175.677 7.77819Z" fill="#F5F6F8"/>
</svg>
