<svg width="235" height="182" viewBox="0 0 235 182" fill="none" xmlns="http://www.w3.org/2000/svg">
<path fill-rule="evenodd" clip-rule="evenodd" d="M78.5132 56.2708C80.8137 62.1494 83.1137 68.0279 85.4142 73.9065C86.2649 76.0804 85.776 78.7138 85.8518 81.0194C86.0054 85.7136 86.2244 90.3808 88.5354 94.5644C90.6926 98.4705 93.3476 102.141 96.062 105.677C99.7461 100.446 105.457 96.3552 110.949 93.2671C114.733 91.1397 118.868 89.249 123.206 88.6361C124.555 88.4455 126.042 88.3165 127.38 88.6685C127.199 86.5999 127.165 84.4992 127.321 82.4287C127.566 79.1841 128.414 76.981 130.877 74.8144C132.13 73.7127 133.479 72.7194 134.854 71.7761C135.345 71.4394 136.79 70.8425 137.086 70.3179C137.345 69.8571 137.11 68.5296 137.145 67.9845C137.267 66.0746 137.562 64.1599 138.122 62.3273C139.181 58.8626 141.056 55.6625 142.229 52.2211C140.483 51.9716 138.737 51.7224 136.992 51.473C135.81 51.3039 135.027 50.8061 134.269 51.6709C131.645 54.6644 129.405 58.1123 127.006 61.2892C125.425 63.384 123.885 65.489 122.094 67.4148C119.232 70.4921 114.081 75.4746 109.857 71.5968C107.688 69.606 107.359 66.1867 107.316 63.4264C107.257 59.669 107.83 55.9109 108.481 52.2211C102.093 51.6125 95.5099 52.6576 89.2449 53.841C85.6431 54.5213 82.051 55.3091 78.5132 56.2708Z" fill="#5B2CE7"/>
<path fill-rule="evenodd" clip-rule="evenodd" d="M132.084 3.60793C136.195 0.621402 140.887 -0.409117 145.949 0.142185L146.134 0.163636C149.172 0.536425 152.803 2.01658 151.96 5.7829C151.812 6.44247 151.333 7.03453 151.23 7.70085C151.103 8.52044 151.397 8.45991 152.169 8.55099L152.225 8.55777C154.091 8.78995 155.77 9.16064 157.434 10.1183L157.62 10.2271C159.413 11.2957 161.103 12.8537 161.218 15.0603C161.346 17.5066 159.705 19.2493 158.239 20.9955L158.5 21.1515C160.9 22.6017 163.128 24.3809 162.844 27.484C162.764 28.3598 162.569 29.2929 162.163 30.0785C161.89 30.6079 161.294 31.1565 161.272 31.788C161.248 32.5132 161.912 33.1911 162.159 33.8431C162.425 34.5464 162.524 35.3129 162.552 36.0602C162.645 38.5729 161.865 41.7741 159.694 43.3011C157.11 45.1181 153.159 44.4726 150.543 43.0827L150.296 44.0623C149.787 46.0578 149.115 48.1868 147.015 48.9359C145.485 49.4815 143.675 49.2973 142.097 49.0446L141.55 48.9554C140.802 48.8324 140.023 48.6932 139.324 48.4467C138.43 48.1319 138.463 47.8708 137.998 47.151C136.303 44.5282 131.161 48.3109 128.899 48.7415C127.675 48.9745 126.168 48.9683 125.268 49.9975C124.12 51.3096 125.122 51.7472 126.311 51.8134L126.414 51.8182C127.98 51.8776 129.605 52.2472 131.16 52.2262C132.558 52.207 132.95 50.9259 134.079 50.3144C135.212 49.7003 136.684 49.6529 137.959 49.5073L138.522 49.4398C139.555 49.3221 140.959 49.2421 141.636 50.0693C141.962 50.468 141.751 51.1635 142.111 51.494C142.577 51.9227 143.748 51.5226 144.271 51.4516C145.987 51.2189 147.718 51.0779 149.445 50.9645C152.914 50.737 156.39 50.6765 159.864 50.5899L161.969 50.5353C175.308 50.1937 188.959 50.1313 201.086 56.5634C207.01 59.7057 211.418 64.7155 213.59 71.0687C214.733 74.4091 214.527 77.809 214.106 81.2583L214.027 81.8928C213.616 85.1737 213.1 88.4906 211.939 91.5967C210.872 94.4515 209.124 97.1124 206.593 98.8703C204.145 100.571 201.107 101.228 198.821 103.189C197.519 104.306 196.418 105.565 194.886 106.386C193.673 107.036 192.3 107.621 190.975 107.997L190.852 108.031C189.713 108.337 188.328 108.455 187.806 107.151C187.261 105.791 188.457 104.587 188.449 103.242C186.648 104.599 185.126 106.381 183.068 107.374C181.692 108.037 179.478 108.568 178.084 107.66C176.335 106.522 177.547 103.987 178.311 102.612C179.542 100.398 180.955 98.3392 182.069 96.0517C183.227 93.6757 184.237 91.2305 185.144 88.7487L185.687 87.2493C186.362 85.3764 186.995 83.4902 187.053 81.4808C187.115 79.3552 186.723 77.1983 185.977 75.2096C184.326 70.8033 180.617 68.1575 176.3 66.5856C166.128 62.8819 153.834 63.735 143.418 66.0279L143.103 66.0978C141.367 66.486 138.617 66.2503 137.607 67.9596C137.061 68.8824 137.037 70.0468 136.525 70.9545C136.059 71.7831 135.012 72.2714 134.286 72.8632C130.244 76.1575 126.907 81.626 128.425 86.9313L128.473 87.0921C128.736 87.9555 128.867 89.0718 129.563 89.7106C130.227 90.32 131.317 90.4576 132.124 90.7905C134.528 91.7818 136.803 93.3968 139.046 94.7361L139.305 94.8894C143.991 97.6427 148.179 101.26 152.178 104.92L152.464 105.181C153.343 105.988 154.369 106.769 154.796 107.922C155.049 108.603 154.963 109.381 155.483 109.935C156.282 110.786 157.941 111.109 158.944 111.707C160.037 112.359 160.929 113.245 161.865 114.095C165.919 117.776 170.479 120.881 174.436 124.655C176.423 126.551 178.185 128.666 180.206 130.529C182.221 132.385 183.992 134.305 185.59 136.538C187.106 138.655 188.469 140.883 189.661 143.199L189.859 143.585C190.418 144.695 191.11 145.883 191.409 147.093C191.59 147.828 191.423 148.957 191.908 149.584C193.086 151.105 195.707 148.345 196.754 150.868C197.169 151.867 197.16 155.513 198.642 155.394C200.327 155.259 201.434 152.638 203.405 153.688C205.238 154.665 202.431 156.582 201.575 157.263L201.548 157.284C200.88 157.822 199.685 158.419 199.538 159.339C199.318 160.725 200.198 160.617 201.066 160.304L201.302 160.215C202.251 159.85 203.641 159.245 204.489 159.997C205.269 160.688 204.443 161.334 203.822 161.78C202.681 162.6 199.814 163.444 200.559 165.387C200.969 166.457 201.916 165.894 202.735 165.6C203.695 165.255 204.682 164.987 205.659 164.692L206.077 164.563C208.857 163.692 211.675 163.273 214.538 162.786L216.225 162.499C218.471 162.121 220.707 161.778 222.996 161.662L223.404 161.643C225.754 161.543 228.008 161.638 230.017 163.101C231.739 164.356 233.233 166.519 233.668 168.616L233.734 168.939C234.382 172.173 234.718 175.701 233.302 178.782L233.166 179.075C232.86 179.713 232.36 180.559 231.7 179.953C230.881 179.199 231.592 177.257 231.736 176.377C232.468 171.913 230.23 166.96 225.615 165.785C222.654 165.031 219.415 166.232 216.464 166.653C214.541 166.928 212.602 166.939 210.677 167.177C209.061 167.376 207.474 167.676 205.848 167.811C204.492 167.923 202.172 167.697 201.034 168.509C200.327 169.014 199.826 169.896 199.1 168.703C198.671 167.997 199.056 166.685 198.328 166.168C197.629 165.67 196.764 166.557 196.239 166.958L195.962 167.169C195.309 167.662 194.501 168.179 193.692 167.668C192.79 167.098 193.366 166.235 193.915 165.647C194.658 164.849 195.662 164.288 196.32 163.409C196.942 162.579 196.735 161.894 196.513 160.932C194.924 161.67 192.913 162.992 191.159 163.208C189.385 163.428 189.163 161.909 190.267 160.849C191.476 159.689 193.119 159.103 194.46 158.125C195.729 157.201 195.439 156.215 195.158 154.842L195.072 154.419C194.8 153.099 194.647 152.864 193.062 153.411C191.51 153.947 189.822 154.21 188.223 154.605C184.294 155.573 180.315 156.361 176.33 157.061C177.573 159.684 178.543 162.404 179.517 165.134C180.482 167.84 181.918 170.335 182.572 173.151C182.759 173.961 182.701 175.671 183.117 176.39C183.53 177.106 184.438 177.017 185.178 176.984C187.477 176.879 189.721 176.91 192.018 176.989L192.549 177.008C197.735 177.2 202.914 177.304 208.096 177.665L209.068 177.736C214.452 178.147 219.749 178.073 225.144 177.981C226.27 177.962 227.404 177.978 228.526 177.874L228.875 177.841C229.586 177.779 230.324 177.793 230.148 178.795C229.831 180.605 226.763 180.881 225.384 181C220.346 181.435 215.304 181.745 210.249 181.941C204.692 182.155 199.063 181.734 193.506 181.562C190.835 181.479 188.209 181.18 185.553 180.916L185.405 180.903C183.726 180.774 180.991 181.125 180.223 179.331C179.261 177.079 179.42 174.508 178.747 172.185C177.986 169.559 176.637 167.082 175.723 164.502C174.921 162.237 173.585 160.153 172.949 157.831L172.884 157.59C172.701 156.897 172.521 156.031 172.796 155.382C173.273 154.251 174.001 154.767 174.868 155.069C173.831 153.104 172.74 151.165 171.279 149.478L170.89 149.028C169.601 147.534 168.363 146.092 166.845 144.813L166.615 144.623C164.799 143.143 163.152 141.461 161.434 139.871C159.7 138.267 157.902 136.779 155.996 135.386C155.125 134.749 154.428 133.948 153.518 133.36C152.546 132.732 151.614 132.101 150.705 131.385C147.073 128.521 143.47 125.457 139.617 122.895L139.479 122.804C137.311 121.416 139.868 124.465 138.256 124.812C137.815 124.907 137.358 124.482 136.971 124.347C136.583 124.213 136.197 124.204 135.801 124.111C134.803 123.873 133.862 123.299 132.943 122.831L132.79 122.754C131.907 122.317 129.65 120.738 128.671 121.237C128.035 121.56 127.707 122.531 127.346 123.098C126.986 123.663 126.569 124.193 126.142 124.713L125.5 125.489C124.032 127.274 122.478 128.979 120.762 130.531C114.123 136.539 106.064 140.418 97.4864 142.782L96.813 142.965C92.2148 144.208 87.6847 145.161 82.8912 145.26L81.1574 145.3C79.284 145.342 77.4228 145.364 75.541 145.21C73.2147 145.018 71.0965 144.443 68.8526 143.896L68.5458 143.822C64.0741 142.744 59.5937 141.437 55.297 139.778C50.9402 138.096 47.1251 135.533 42.9712 133.475L42.5682 133.278C41.637 132.827 40.7493 132.333 40.0004 131.609C39.7428 131.36 38.9086 130.212 38.5781 130.22C38.0573 130.234 37.2611 131.628 36.9654 132.047L36.6643 132.461C36.2903 132.966 35.8414 133.494 35.2363 133.633C34.246 133.859 33.4755 132.946 33.6048 132C33.6886 131.387 34.1721 130.786 34.5317 130.28L34.6138 130.161C34.9795 129.605 36.5836 126.785 35.0225 127.703C34.4002 128.069 33.9452 129.184 33.5767 129.769L33.1235 130.491C32.77 131.053 32.4095 131.61 32.0097 132.14L31.5925 132.68C31.1956 133.191 30.6385 133.834 30.0073 133.707C29.2465 133.554 29.1658 132.627 29.3313 132.016C29.5929 131.05 30.3518 130.055 30.8083 129.164C31.2155 128.368 31.5964 127.559 32.0524 126.79L32.3409 126.318C32.8562 125.462 33.5221 124.168 32.2255 123.997C31.1944 123.861 29.8121 124.989 29.0273 125.512C27.6954 126.4 26.284 127.112 24.8779 127.876C21.0285 129.969 17.4359 133.156 12.9564 133.794C9.29191 134.317 5.27054 131.937 3.16063 129.034C1.8636 127.25 1.37003 125.092 0.968868 122.962L0.936529 122.789C0.812608 122.125 0.474861 121.051 0.967307 120.467C1.5637 119.759 2.34367 120.353 2.96706 120.694C2.78293 118.928 5.24273 117.958 6.50273 117.069C8.45119 115.694 10.4868 114.467 12.6186 113.398C17.1872 111.108 22.1222 109.186 26.4373 106.467L27.0955 106.05C30.8216 103.677 34.4947 101.158 38.5808 99.4496C39.7048 98.9799 40.8403 98.5387 41.9667 98.0749C42.8905 97.6945 44.0107 96.9466 45.039 96.975C46.7715 97.023 47.2766 99.178 47.9419 100.404C49.0547 102.455 50.5348 104.306 51.7176 106.323C52.6617 107.933 53.629 109.523 54.645 111.09L54.7528 111.254C55.2473 111.997 55.6333 112.413 56.4704 112.719L56.8511 112.852C57.4517 113.067 57.6913 113.233 57.8613 114.046L57.8761 114.119C58.2441 116.006 59.0432 116.392 60.7771 117.145C64.4747 118.752 68.4491 119.442 72.3004 120.564L72.6611 120.671C76.5963 121.849 81.267 121.872 85.3545 121.666C87.5582 121.554 89.7266 120.979 91.8394 120.355L92.326 120.21C93.9731 119.717 95.8552 119.398 97.1268 118.191L97.2443 118.081C97.6346 117.724 97.8213 117.639 98.3585 117.497C98.6808 117.411 98.7729 117.646 99.1206 117.383C99.4726 117.118 99.8406 115.983 100.045 115.548L100.067 115.502C100.837 113.973 100.927 112.584 100.373 110.96C99.7084 109.011 98.2475 108.177 96.5339 107.219C94.958 106.338 93.745 105.255 92.5784 103.883C89.9785 100.824 87.9021 97.7798 86.6529 93.9339C85.4023 90.0853 84.5138 85.9778 84.9091 81.9125L84.9478 81.5288C85.162 79.4659 85.4035 77.8171 84.3667 75.898L84.3016 75.7801C83.8996 75.0682 83.3837 73.3719 82.7408 72.901L82.6467 72.8338C82.2344 72.549 82.1843 72.6655 81.6841 72.9618C74.5207 77.2059 65.5722 79.1392 57.2714 78.7955C53.0129 78.6192 49.014 77.5223 45.0936 75.8976C41.4934 74.4056 38.0819 72.3289 35.9688 68.9555C33.9493 65.7314 32.4547 61.2057 32.4228 57.3987C32.3888 53.3104 34.2298 49.6435 36.0975 46.1178C34.6664 46.2228 33.7868 47.1459 32.7498 48.0155C31.4973 49.0658 30.0891 49.8846 28.6531 50.6562C26.1958 51.977 23.6467 53.1141 21.1781 54.4109L20.5069 54.7688C18.7037 55.7459 15.7828 57.3142 14.3338 54.9746C13.0241 52.8595 14.8716 50.2215 16.1546 48.5668L16.0363 48.5974C14.9627 48.8844 13.6473 49.4769 12.8621 48.3616C12.3019 47.5657 12.5155 46.3808 12.7928 45.5222C13.5808 43.0835 15.6092 41.2924 17.2426 39.4137C15.5665 40.2892 12.965 41.0395 11.2417 39.8799C9.23953 38.5322 9.53219 35.2662 10.3375 33.3342C12.5042 28.1361 19.611 26.4202 24.8403 25.3355L26.1574 25.065C31.9952 23.866 38.1621 23.1384 44.0074 24.6948C45.3768 25.0595 46.7378 25.5171 48.0145 26.1369L48.2529 26.255C49.3115 26.7904 50.5326 27.19 51.5083 27.8676C53.3539 29.1495 54.3186 31.5391 54.9965 33.5974C56.6704 38.6804 55.7219 44.2892 53.8078 49.1713C52.7729 51.8106 51.1031 54.3166 50.2472 57.0037C49.5977 59.0437 50.5866 60.4033 52.6028 60.7476C54.9679 61.1509 57.5173 60.6501 59.8059 60.0807C62.854 59.3223 65.8662 58.4012 68.8832 57.5291L71.4938 56.7759C76.7129 55.2733 81.9241 53.7996 87.1869 52.4408C92.86 50.9759 98.9305 49.9032 104.826 50.3965C106.138 50.5064 107.709 51.3015 108.978 50.8457C110.095 50.445 111.257 49.6366 112.263 48.977L112.406 48.8838C114.72 47.3794 117.095 45.2903 118.58 42.9466C115.659 44.1197 112.237 44.5052 109.231 43.4177C107.946 42.9531 106.601 42.212 105.584 41.2946C104.197 40.0435 104.547 39.0702 104.378 37.4109C104.218 35.8337 102.653 35.041 101.795 33.8547C100.956 32.6962 100.437 31.0796 100.464 29.6465C100.519 26.7909 103.232 24.5698 105.918 24.2056L105.858 23.9388C104.908 19.5509 104.787 13.7204 108.881 10.8534C109.869 10.1612 111.18 9.52673 112.404 9.46383C113.073 9.42927 114.968 10.115 115.444 9.39066C115.688 9.01917 115.424 7.86635 115.508 7.37741C115.634 6.64684 115.905 5.9484 116.271 5.30558C119.062 0.403258 129.08 -2.71773 132.084 3.60793ZM153.422 112.481C152.552 112.003 152.173 112.146 151.392 112.702C149.612 113.971 147.838 115.264 146.034 116.501L145.695 116.731C144.107 117.802 142.442 118.838 141.213 120.329C143.829 121.838 146.41 123.413 148.941 125.06C150.178 125.865 151.387 126.707 152.593 127.557C153.714 128.347 154.681 129.447 155.844 130.133C160.373 132.804 163.871 136.872 167.602 140.56C169.523 142.46 171.29 144.686 172.98 146.801C173.722 147.731 174.422 148.709 174.955 149.776C175.418 150.702 175.573 151.713 175.956 152.668C176.881 154.973 178.819 153.397 180.528 152.847C183.315 151.95 186.191 151.335 189.055 150.742C190.106 150.524 188.801 148.978 188.514 148.478L187.961 147.46C187.48 146.577 186.99 145.7 186.438 144.857C185.004 142.664 183.374 140.545 181.719 138.513C178.631 134.722 175.009 131.296 171.374 128.037C167.908 124.928 164.27 122.106 161.122 118.664L160.809 118.318C159.316 116.646 157.648 115.2 155.772 113.973C155.007 113.472 154.223 112.921 153.422 112.481ZM55.5435 120.254L55.1989 120.012C54.65 119.631 54.2809 119.457 53.5526 119.955C51.9751 121.035 50.7543 123.119 49.4538 124.52L49.1103 124.891C48.5041 125.554 47.9293 126.229 47.5168 127.033L47.3745 127.321C47.0258 128.019 46.33 129.25 46.3595 129.941C46.3903 130.653 47.0825 130.782 47.646 131.081C48.7067 131.644 49.7459 132.247 50.8139 132.797C55.2397 135.078 60.0246 136.137 64.6929 137.771L65.2045 137.952C67.4099 138.739 69.4724 139.553 71.8287 139.914C74.3347 140.297 76.8304 140.631 79.3669 140.712C84.5489 140.878 89.7612 140.276 94.8349 139.247C97.2594 138.756 99.6978 138.185 102.09 137.554C104.481 136.923 106.658 135.7 108.923 134.741C110.072 134.255 106.836 131.256 106.375 130.716L106.36 130.698C104.707 128.687 102.657 127.119 101.004 125.103C100.314 124.261 99.8109 122.888 98.9662 122.222C98.1946 121.614 97.2495 122.361 96.4007 122.733L95.0903 123.282C92.8977 124.196 90.6968 125.068 88.3759 125.622C83.4944 126.789 78.6471 126.233 73.7443 125.661C68.7645 125.08 63.5028 123.891 58.8737 121.928L58.2725 121.673C57.331 121.269 56.3712 120.83 55.5435 120.254ZM108.758 114.82C108.758 116.886 108.854 118.966 109.116 121.016C109.346 122.821 109.94 124.71 109.784 126.541C109.719 127.303 109.337 128.084 109.508 128.857C109.677 129.624 110.35 130.225 110.771 130.858L110.859 130.995C111.434 131.91 111.943 133.144 113.217 132.446C113.488 132.292 113.757 132.135 114.024 131.973C111.927 128.695 111.773 125.01 111.819 121.236C111.831 120.284 111.799 119.325 111.855 118.374C111.889 117.81 112.105 117.096 111.943 116.544C111.579 115.298 109.769 115.279 108.758 114.82ZM117.109 117.366L117.034 117.321C116.37 116.935 114.958 116.426 114.562 117.251C114.401 117.586 114.625 118.272 114.659 118.605C114.739 119.389 114.76 120.182 114.79 120.968C114.921 124.347 114.971 127.73 115.056 131.111C116.411 130.738 117.41 129.58 118.513 128.781C118.884 128.513 118.381 126.804 118.318 126.452C118.13 125.399 118.03 124.364 117.952 123.295C117.873 122.224 117.849 121.19 117.856 120.127L117.861 119.727C117.874 118.783 117.97 117.901 117.109 117.366ZM45.5215 101.673C38.3405 104.858 32.3075 110.111 25.1511 113.369C21.4889 115.036 17.6303 116.386 13.9091 117.932C12.1089 118.68 10.3294 119.472 8.61399 120.399L7.98667 120.739C6.59702 121.485 5.02237 122.207 3.51809 121.375C4.13095 123.134 3.88769 125.299 4.84019 126.924C5.54511 128.126 6.97763 128.948 8.27489 129.348C11.5492 130.356 14.7242 128.12 17.3311 126.423C18.8298 125.447 20.4548 124.726 21.9826 123.804L23.3513 122.974C24.4928 122.283 25.6416 121.603 26.8315 120.999L27.1898 120.821C28.3445 120.255 29.5594 119.027 30.9123 119.35C32.3356 119.689 33.4582 120.934 34.6377 121.722C35.306 120.578 36.0314 119.468 36.8038 118.391C37.3062 117.691 37.8675 116.624 38.5344 116.071C40.4664 114.47 40.2042 117.691 39.8033 118.664C39.417 119.603 38.8754 120.467 38.3832 121.351C38.0814 121.894 37.0687 123.097 37.1685 123.779C37.2809 124.547 37.8154 124.526 38.2385 124.133C38.867 123.551 39.2928 122.319 39.7426 121.559C40.2933 120.629 40.8563 119.708 41.4899 118.832L41.6821 118.571C42.0776 118.042 42.529 117.217 43.1287 116.905C43.9729 116.465 44.8409 116.903 44.9864 117.877C45.1141 118.732 44.5301 119.559 44.1368 120.264L43.5603 121.296C42.8884 122.497 42.214 123.684 41.489 124.856L41.1751 125.357C40.043 127.141 41.0036 127.523 42.411 128.652C42.6203 127.345 43.2801 126.176 44.0128 125.096C46.6857 121.154 50.1679 117.877 53.6984 114.718C50.001 111.082 47.2105 106.57 45.5215 101.673ZM120.919 118.196V126.7C121.713 126.371 122.222 125.587 122.797 124.989C123.643 124.109 122.768 121.935 122.634 120.915C122.553 120.297 122.836 119.42 122.625 118.856C122.357 118.138 121.634 118.286 120.976 118.204L120.919 118.196ZM103.628 112.064L103.603 112.432C103.516 113.654 103.405 114.812 103.638 116.041L103.722 116.489C103.913 117.535 104.072 118.576 104.066 119.648C104.06 120.709 103.791 121.849 104.294 122.842C104.774 123.788 105.806 124.492 106.728 124.947L106.714 124.73C106.009 122.11 105.786 119.241 106.086 116.545L106.107 116.373C106.221 115.504 106.449 114.498 105.97 113.716C105.482 112.918 104.369 112.565 103.628 112.064ZM126.621 119.894L124.773 119.198L124.95 122.362C125.631 121.752 126.051 120.935 126.484 120.143L126.621 119.894ZM130.236 93.638C130.659 98.9337 131.357 104.212 132.216 109.455L132.552 111.465C132.886 113.477 133.169 115.468 133.004 117.519C132.926 118.493 133.064 119.01 133.846 119.569L133.913 119.616C134.452 119.987 135.532 120.587 136.162 120.077C136.458 119.834 137.172 119.441 137.136 119.041C137.116 118.827 136.404 118.052 136.266 117.791C135.653 116.629 135.658 115.315 135.622 114.035C135.536 110.983 135.194 107.931 135.187 104.878C135.184 103.499 135.287 102.122 135.339 100.744L135.356 100.227C135.386 99.0898 135.575 97.8109 134.931 96.8108C133.934 95.2622 131.83 94.4037 130.236 93.638ZM138.296 99.1208C138.675 102.367 138.71 105.639 138.92 108.897C139.024 110.506 139.162 112.114 139.187 113.726C139.2 114.581 139.186 115.437 139.118 116.29L139.104 116.394C139.062 116.681 138.944 117.404 138.996 117.44C139.222 117.594 139.419 117.409 139.506 117.2C140.454 116.381 142.164 115.754 142.501 114.417C142.698 113.633 142.248 112.812 142.049 112.073C141.864 111.386 141.8 110.684 141.75 109.978L141.709 109.4C141.548 107.171 141.199 104.945 141.174 102.709C141.166 101.968 141.236 101.44 140.772 100.837C140.208 100.102 139.105 99.5209 138.296 99.1208ZM127.15 90.2014C126.75 89.6428 125.587 90.3048 124.967 90.4112C124.29 90.527 123.087 90.5073 122.766 91.2697C122.511 91.8729 123.116 93.222 123.211 93.8292C123.643 96.5957 123.573 99.404 123.953 102.175C124.317 104.827 124.906 107.482 125.53 110.089L125.648 110.578C126.127 112.56 126.381 115.271 128.408 116.326C128.804 116.532 129.193 116.751 129.584 116.964C128.576 111.073 128.025 105.139 127.348 99.2064L127.269 98.532C127.019 96.4323 126.754 94.3201 127.083 92.2241C127.162 91.7263 127.482 90.6658 127.15 90.2014ZM120.121 91.7622C119.109 92.0011 117.257 91.9733 116.596 92.9361C116.167 93.5611 116.512 94.3716 116.677 95.0371C116.939 96.09 117.138 97.1292 117.312 98.2004C118.082 102.933 118.255 107.727 118.846 112.48C118.991 113.65 122.096 113.778 122.955 113.877C120.348 106.815 119.999 99.2148 120.121 91.7622ZM143.947 103.217C143.947 104.934 144.37 106.615 144.494 108.322C144.613 109.955 144.499 111.595 144.634 113.227C145.32 112.706 146.501 112.325 146.972 111.577C147.422 110.86 146.87 109.962 146.612 109.228C146.178 107.991 146.446 106.836 146.251 105.576C146.049 104.275 144.928 103.887 143.947 103.217ZM113.386 93.9774C112.253 94.5317 109.752 95.0619 109.822 96.5511C109.921 98.6667 110.915 100.866 111.204 102.987C111.515 105.271 111.921 107.53 112.305 109.803C112.619 111.653 113.566 112.013 115.347 112.263C114.292 106.216 113.991 100.077 113.386 93.9774ZM151.381 109.026L148.82 106.971V110.422L151.381 109.026ZM106.513 97.6032L105.975 97.8262C105.342 98.0929 104.617 98.4441 104.326 98.9823C103.954 99.6691 104.399 100.447 104.659 101.108C105.546 103.36 105.847 105.839 105.969 108.243C106.031 109.472 107.612 109.593 108.511 109.84C107.292 105.869 107.039 101.7 106.513 97.6032ZM101.232 101.528C100.584 102.283 99.5572 102.901 99.085 103.788C98.4203 105.038 99.5863 105.133 100.544 105.585C100.948 105.776 101.341 105.988 101.735 106.197L102.032 106.352L101.232 101.528ZM173.183 53.4797C169.34 53.3458 165.487 53.6842 161.637 53.6674L160.958 53.6606C157.02 53.5977 153.088 53.8817 149.155 54.0021C148.003 54.0375 146.851 54.0468 145.7 54.0733L144.694 54.1005C143.972 54.1137 142.571 54.1059 142.309 54.8595C141.229 57.9579 139.697 60.9093 138.997 64.1326C142.097 63.6833 145.114 62.9036 148.18 62.2929C151.141 61.7033 154.198 61.4139 157.204 61.1601C162.991 60.6712 169.169 60.7967 174.933 61.4933C176.099 61.6342 177.114 61.8283 178.15 62.3669C178.312 62.5381 178.497 62.6782 178.705 62.7873C178.884 62.7295 179.063 62.6736 179.243 62.6202C179.798 62.7314 180.315 63.0953 180.798 63.3694C181.882 63.9838 183.17 64.4431 184.123 65.2546C184.983 65.9859 185.784 66.97 186.552 67.83L186.982 68.3064C187.724 69.1376 188.486 70.0843 188.781 71.1483C189.051 72.1251 189.638 72.8443 189.988 73.8457L190.136 74.2782C190.638 75.7769 191.818 79.7024 190.177 79.7024C190.528 80.1507 190.256 80.5084 190.254 80.9688L190.255 81.0245C190.264 81.2359 190.198 81.3871 190.289 81.5944C190.366 81.7713 190.812 81.7297 190.846 81.8255C191.01 82.284 190.386 83.6938 190.224 84.0988L190.125 84.3437C190.01 84.6229 189.873 84.9149 189.665 85.1163C189.446 85.3294 188.888 85.3693 188.788 85.4746C188.612 85.6598 188.412 86.7168 188.279 87.027L188.14 87.3521C187.979 87.7235 187.822 88.0678 187.613 88.3912C186.017 90.8526 185.154 93.922 183.788 96.5749C182.321 99.424 180.67 102.172 179.055 104.938C181.564 104.292 183.713 102.835 185.873 101.464L186.285 101.204C188.035 100.109 190.184 98.8522 191.13 96.9642L191.149 96.9249C191.455 96.2645 192.395 93.2797 193.278 95.0622C193.412 95.3343 193.335 95.7906 193.402 96.0886C193.484 96.4569 193.706 96.7952 193.779 97.1632C193.966 98.1186 193.567 98.8937 193.069 99.6964C192.506 100.602 190.118 102.997 190.486 104.18C190.931 105.608 193.432 104.306 194.219 103.863C196.249 102.721 197.828 100.974 199.205 99.1262C199.963 98.1084 200.712 97.0716 201.411 96.0128C201.81 95.4091 202.234 94.4023 202.966 94.1478C205.233 93.3583 203.108 98.5206 203.147 99.3182L203.714 98.9389C206.398 97.1257 208.924 95.1215 210.17 92.0122C211.738 88.0969 211.915 83.747 212.401 79.6055C213.189 72.8892 209.465 66.8124 204.466 62.6134C198.901 57.9384 191.663 56.0361 184.7 54.7019C180.9 53.9737 177.049 53.6141 173.183 53.4797ZM139.708 53.0596C138.117 53.0596 135.945 52.6076 134.439 53.2596C133.226 53.7853 132.681 55.4095 132.045 56.463C130.189 59.5323 128.127 62.3714 125.986 65.2285L125.064 66.4545C121.834 70.7311 117.084 76.5588 111.157 73.9083C107.11 72.0978 106.093 66.8254 106.045 62.8529C106.012 60.1323 106.516 57.4514 107.212 54.8344C107.66 53.1506 106.387 53.3187 105.067 53.3199L104.953 53.3196C103.278 53.3072 101.605 53.366 99.9354 53.5048C96.4769 53.7926 92.9772 54.3096 89.6078 55.1468C86.3991 55.9441 82.9525 56.599 79.9068 57.9025C82.1906 61.9779 83.5573 66.4944 85.108 70.8781C85.354 71.5738 85.5465 72.6114 86.1421 73.1176C86.5767 73.4872 87.1839 73.3519 87.5681 73.7512C88.5966 74.8197 87.8921 78.0927 87.8386 79.4706L87.8365 79.5401C87.7838 81.8361 87.5732 84.1852 87.8024 86.4752C88.0298 88.7465 88.7204 91.0257 89.4739 93.1728C90.1688 95.154 91.2992 96.7744 92.6554 98.3613C94.1195 100.074 95.3587 101.901 96.616 103.767C96.7958 103.305 96.9605 102.837 97.1584 102.383C99.3312 97.3948 104.082 94.1664 108.739 91.7247C111.613 90.2182 114.613 88.912 117.785 88.1879C119.253 87.8531 120.778 87.5845 122.281 87.486C122.964 87.4414 123.695 87.4463 124.365 87.6045C124.804 87.7084 125.315 88.0851 125.781 87.986C125.702 85.9336 125.452 83.8563 125.8 81.815C126.066 80.2571 126.676 78.7744 127.3 77.3267L127.68 76.4503C128.73 74.0573 130.168 71.175 132.702 70.1823C133.854 69.7315 135.464 70.2871 135.655 68.7144C135.87 66.9447 136.106 65.3267 136.625 63.594C137.167 61.7824 137.827 60.0605 138.633 58.3501C139.465 56.585 139.587 54.9783 139.708 53.0596ZM26.0638 66.4157C26.7979 65.2607 27.2431 66.8493 27.4123 67.5291C27.7115 68.7302 27.9083 69.913 28.3573 71.0756C29.3217 73.5707 30.6799 75.8672 32.6832 77.665C34.8657 79.624 37.2159 80.4064 40.0774 80.8084L40.2064 80.825C40.9774 80.9166 42.0578 80.9306 42.4846 81.6796C42.8642 82.3459 42.5521 83.067 41.9614 83.4361C40.7929 84.1667 38.8336 83.8144 37.5655 83.5808C35.1341 83.1327 32.8403 81.8781 31.1292 80.0937C29.3395 78.2268 27.9609 76.0602 27.0508 73.6396L26.7547 72.8535C26.0482 70.9534 25.0673 67.9837 26.0638 66.4157ZM41.4378 28.6398C36.8038 28.2183 32.3888 28.4972 27.8018 29.2864C25.7267 29.6433 23.6987 30.1274 21.651 30.5926L20.2778 30.902C18.5982 31.2842 17.0183 31.6919 15.4729 32.5383L14.5676 33.0451C13.4962 33.6506 12.1786 34.4846 11.9861 35.5994C11.763 36.8934 13.1416 36.858 14.0681 36.74C15.8792 36.5097 17.5944 35.8253 19.2928 35.1952C21.1557 34.5038 23.0812 33.9976 24.9395 33.2945L25.0671 33.2449C26.4707 32.6878 28.7327 31.441 28.6282 34.0129C28.57 35.4374 27.4763 36.1718 26.3728 36.8222L26.0915 36.9868C24.1495 38.1199 22.2372 39.3159 20.4375 40.6666C19.6806 41.2347 18.9431 41.8292 18.2374 42.4596L17.9742 42.6977C17.4443 43.1831 16.2156 44.0401 16.0028 44.7504C15.7396 45.6286 17.3025 44.5293 17.7097 44.3168C19.535 43.3635 21.3998 42.4831 23.2364 41.5514C25.075 40.6191 27.0807 39.2158 29.0834 38.7055C30.631 38.3113 31.1501 39.5586 30.703 40.9312C30.1598 42.5994 28.2198 43.5843 26.8356 44.4574C25.5472 45.2701 24.2286 46.0382 22.9702 46.8973C21.2496 48.0715 19.5297 49.3184 17.9761 50.7128L17.6535 51.0057C17.2697 51.3447 16.0947 52.2902 16.2734 52.8236C16.4753 53.4271 17.5499 52.7612 17.9199 52.5489L17.9659 52.5229C20.4643 51.1397 22.6803 49.3425 25.2184 47.9874C27.382 46.8322 29.578 45.7604 31.7859 44.6934C33.3985 43.9145 35.0627 42.85 36.8643 42.5822C38.2029 42.3832 39.786 42.8049 39.5325 44.4677C39.364 45.5733 37.8438 46.9502 38.3173 48.1081C38.1483 47.9424 37.9582 47.806 37.7474 47.6988C37.6942 48.1851 37.975 48.7855 37.9553 49.2366C37.9334 49.7304 37.891 50.2658 37.8106 50.7647C37.5804 52.1954 37.1086 53.5411 37.0465 54.9951L37.0403 55.214C37.0328 55.7902 36.9658 56.2138 37.0346 56.7284L37.0858 57.1104C37.1437 57.5548 37.181 57.9333 37.1571 58.4323L37.1491 58.5715C37.0522 60.0154 37.4342 61.2403 37.5457 62.6334C37.3421 62.4881 37.1375 62.345 36.9315 62.2036C37.4005 63.388 38.3883 64.483 39.0244 65.5959C39.5687 66.5473 39.9472 67.5387 40.7453 68.3057C41.5355 69.066 42.4283 69.732 43.2264 70.4801C43.5706 70.803 44.1378 70.8181 44.6049 71.0449C44.93 71.2029 45.1063 71.6076 45.4186 71.7857C45.744 71.9715 46.1022 71.9564 46.4699 72.0449C47.4497 72.2812 48.3277 72.7841 49.325 72.9793L49.4513 73.0027C50.7079 73.2228 52.9565 73.2966 53.3939 74.7372C54.1484 74.252 55.4869 74.647 56.3298 74.8329L56.4028 74.8487C57.5022 75.0819 58.4874 75.269 59.6215 75.3028L60.717 75.3348C62.8139 75.3919 64.8961 75.4045 66.9772 75.0328C71.9446 74.1454 76.7789 72.6173 81.5416 70.9782C82.8888 70.5147 78.2513 59.2845 78.0375 58.4384C73.1816 59.9357 68.3114 61.3731 63.3929 62.6526C60.9039 63.3 58.3947 63.8899 55.8475 64.2608L55.6011 64.2955C53.7944 64.5399 51.9828 64.5631 50.3704 63.5632C46.8004 61.3496 47.7937 56.8334 49.1249 53.5831L49.3205 53.1096C51.0244 49.0161 52.9385 45.1811 53.3537 40.662C53.6509 37.4228 52.8742 33.6849 51.0245 30.9435C50.2653 29.8188 49.2173 28.9494 47.8207 28.8204C45.7202 28.626 43.5617 28.8328 41.4378 28.6398ZM137.903 29.0402C137.266 28.504 136.501 29.0172 135.868 29.3668L135.82 29.3933C132.534 31.1781 128.647 32.4938 124.887 31.6611L124.885 31.8035C124.843 33.8569 123.876 32.2458 123.013 31.5739C121.602 30.4746 119.977 31.3944 119.585 33.0283C119.126 34.9398 120.584 35.4058 121.479 36.7327C122.628 38.4374 121.643 41.1745 121.023 42.9077C120.247 45.0749 119.178 46.9229 117.533 48.545C115.939 50.116 114.216 52.1098 112.108 52.9775C111.314 53.3042 110.278 53.3212 109.58 53.8506C108.874 54.3863 108.81 55.2859 108.666 56.0958C108.223 58.5837 108.134 61.0643 107.954 63.5794C107.784 65.9577 108.666 68.7676 110.723 70.148C113.12 71.7574 116.06 70.9045 118.172 69.2522C120.7 67.2744 122.786 64.7438 124.502 62.0497C126.18 59.4149 128.166 57.0002 129.919 54.4176C128.733 54.4176 127.598 54.8604 126.412 54.8717C125.847 54.8771 124.906 54.5955 124.5 55.1063C124.148 55.5494 124.31 56.5132 124.326 57.0821L124.327 57.1436C124.336 58.0316 124.484 59.0281 124.276 59.8958L124.243 60.0246C123.854 61.4586 123.267 60.5217 122.962 59.5607C122.507 58.1315 122.436 56.6132 122.433 55.1231L122.434 54.1781C122.44 52.4965 122.475 50.738 122.808 49.1076C123.178 47.3021 123.872 46.5722 125.686 46.5457L125.778 46.5449C129.942 46.5379 133.448 44.3516 136.111 41.1947C135.235 41.3451 134.827 40.5611 134.217 40.1191L134.187 40.2563C133.984 41.225 133.932 42.3516 132.902 42.8049C132.227 43.1019 131.051 43.0155 130.474 42.5535C129.911 42.1035 129.551 41.0206 130.234 40.503C130.956 39.9569 132.077 40.7082 132.783 40.939C132.912 39.9828 133.06 39.0133 133.386 38.0999C133.645 37.3725 133.838 37.3077 134.393 36.9538L134.514 36.8761C136.33 35.6866 134.901 37.7641 135.559 38.4047C136.13 38.9595 137.651 37.6482 138.095 37.2606C139.053 36.4228 139.555 35.2233 139.922 34.0239L139.997 33.7759C140.143 33.2735 140.486 32.4268 140.369 31.8833C140.216 31.1781 139.441 30.9441 138.947 30.5226C138.474 30.1193 138.334 29.4036 137.903 29.0402ZM185.984 39.0883C189.382 39.0938 192.808 39.4655 196.14 40.1281L196.579 40.2168C201.924 41.3142 207.389 43.0875 211.512 46.7972L211.746 47.01C213.478 48.6002 215.522 50.8319 216.459 52.9562C216.762 53.6441 216.892 55.3375 215.68 54.6485C214.889 54.1995 214.238 52.6682 213.654 51.97C209.94 47.5307 204.6 45.2248 199.107 43.823L198.244 43.6045C192.375 42.1319 186.127 40.8613 180.083 41.4753C179.347 41.5498 179.071 41.0363 179.381 40.4226C179.647 39.896 180.367 39.776 180.89 39.6611L180.947 39.6483C182.6 39.2736 184.29 39.0859 185.984 39.0883ZM125.797 41.0728C126.321 41.0517 126.572 42.3193 126.759 42.6751C127.047 43.224 127.82 43.8763 127.162 44.4454C126.353 45.1458 125.4 43.8693 125.261 43.1654L125.254 43.1295C125.171 42.6233 124.978 41.1055 125.797 41.0728ZM140.626 39.9058C140.147 39.2225 138.215 42.7431 137.973 43.1321C138.921 43.1486 141.392 40.9982 140.626 39.9058ZM114.066 32.8338C107.769 32.8561 105.18 41.3564 112.239 41.3564C118.403 41.3554 121.836 32.8064 114.066 32.8338ZM114.039 34.0024C119.719 34.0024 117.387 40.1207 112.964 40.1666C107.296 40.2252 109.336 34.0024 114.039 34.0024ZM129.084 34.6521C129.949 34.3019 129.64 35.4942 129.823 35.9697L129.834 35.9964C129.982 36.3233 129.691 36.2623 130.074 36.4375C130.45 36.61 131.025 35.9513 131.277 35.7944L131.35 35.7497C131.921 35.4132 132.61 35.2398 132.709 36.1076C132.819 37.0733 131.207 38.4556 130.541 38.9942C128.997 40.2429 128.172 37.7764 128.263 36.5814C128.299 36.1046 128.56 34.8643 129.084 34.6521ZM120.772 32.4099C121.768 31.6115 122.522 34.2444 122.318 34.9242C122.092 35.6765 121.522 34.456 121.328 34.2041L121.317 34.1907C120.944 33.7447 119.958 33.0622 120.772 32.4099ZM159.127 16.1874C159.299 15.9693 159.522 15.2444 158.991 15.3151C158.858 15.6399 158.904 15.9307 159.127 16.1874ZM104.531 7.484L104.596 7.46387C105.017 7.34178 105.725 7.26929 105.745 7.91219C105.76 8.42732 104.429 9.02343 104.083 9.30691C102.224 10.8293 101.418 13.0505 99.789 14.7265C98.7177 12.5829 102.523 8.13465 104.531 7.484Z" fill="#F5F6F8"/>
</svg>
