<svg width="235" height="191" viewBox="0 0 235 191" fill="none" xmlns="http://www.w3.org/2000/svg">
<path fill-rule="evenodd" clip-rule="evenodd" d="M132.102 43.0434C129.341 44.1395 127.486 46.6964 126.846 49.5607C126.549 50.8849 126.831 52.9061 125.963 53.9736C124.924 55.2513 123.31 54.1454 122.113 54.9461C119.382 56.773 122.306 60.0707 124.341 60.6136C125.963 61.0465 127.614 61.3118 129.246 61.6279C130.778 61.9246 131.526 63.2786 132.445 64.5054C131.175 64.2939 129.929 63.9739 128.652 63.7719C128.102 63.685 127.305 63.4117 126.732 63.447C126.042 63.4898 125.601 63.9707 124.945 64.0847C123.817 64.2806 123.041 63.5565 122.597 64.9741C122.269 66.0188 122.79 67.2674 123.725 67.7828C122.899 68.5916 120.992 68.8091 119.911 69.1446C118.345 69.6305 116.752 69.9461 115.3 70.7662C115.3 68.2134 115.331 66.1924 114.084 63.8571C113.479 62.7234 112.324 59.5391 111.087 59.0652C110.715 58.9227 110.19 59.0014 109.802 58.8856C109.399 58.7655 109.176 58.4148 108.724 58.4029C107.903 58.3808 107.016 59.3403 106.528 59.9674C105.295 61.5532 105.343 64.0901 105.419 66.0006C105.498 67.9752 105.697 70.454 106.504 72.2806C106.692 72.705 106.884 73.182 107.293 73.4371C107.59 73.6222 108.144 73.4761 108.373 73.6866C109.203 74.4517 108.05 74.8898 107.41 75.3582C105.773 76.555 104.36 77.7146 103.162 79.3209C102.151 80.6769 100.575 82.3229 100.316 84.0611C99.2035 82.5547 98.4213 80.8553 97.5679 79.1978C97.0834 78.2565 97.073 78.4473 97.5884 77.7343C97.9902 77.1786 98.6964 76.6004 99.27 76.2121C100.443 75.4179 101.656 74.563 102 73.0517C102.261 71.909 101.638 69.7974 101.281 68.6411C100.825 67.1636 99.6336 66.0299 98.1052 66.8929C96.973 67.5324 96.4283 69.8187 95.3307 70.1387C94.0922 70.4997 94.2624 67.4971 94.1482 66.664C93.9357 65.1096 93.114 62.4955 93.6276 60.9689C94.0276 59.7803 95.9559 59.1467 96.9577 58.4236C98.4457 57.3497 99.9126 55.9819 100.959 54.4639C102.031 52.9069 101.937 51.3214 101.745 49.5067C101.633 48.4483 101.458 45.5677 99.692 46.1786C98.6754 46.5303 94.1319 52.7156 93.3276 50.5205C93.101 49.9015 93.5908 48.3414 93.6769 47.6276C93.7397 47.1073 93.7296 44.6274 94.0808 44.2817C94.2157 44.1488 95.8088 43.9342 96.1571 43.7198C96.9923 43.2051 97.6193 42.5306 98.1218 41.6918C99.7859 38.9129 97.8939 34.5693 94.7665 33.8719C92.7278 33.4172 91.6255 34.1322 90.4843 35.7743C89.38 37.3637 87.2126 36.6767 85.3691 37.0598C85.0221 36.1161 86.2425 34.2596 86.5651 33.3502C87.0403 32.0107 87.5648 30.6199 87.7543 29.2067C88.1233 26.4488 87.4872 23.474 86.612 20.875C87.6619 21.0359 89.154 20.9721 89.8762 21.7572C90.6004 22.5436 90.9219 24.1582 91.5334 25.1034C92.7133 26.9269 94.0693 28.9168 95.6933 30.3671C97.8137 32.2607 98.6523 31.3764 100.277 29.6181C101.925 27.8358 101.062 25.3204 100.476 23.1197C101.809 22.9199 103.349 23.2949 104.66 23.5059C105.847 23.697 108.075 23.74 109.083 24.4574C109.837 24.9939 109.569 25.5786 109.642 26.6334C109.741 28.0598 109.965 29.502 110.399 30.8682C111.282 33.6482 113.276 34.6022 115.674 32.8137C116.507 33.9313 117.411 35.4094 118.697 36.0432C119.96 36.6658 122.306 37.1781 123.719 37.2807C125.498 37.4094 126.918 36.6183 128.389 35.7198C129.109 35.2801 129.311 34.9194 129.939 35.2646C130.404 35.5199 131.017 36.7265 131.488 37.1434C132.017 37.61 132.598 38.0395 133.164 38.4587C133.428 38.6759 133.702 38.8794 133.986 39.0691C134.612 39.2186 134.822 39.5898 134.617 40.1825C135.012 41.3245 135.089 42.5342 135.423 43.6881C135.818 45.0515 136.755 45.7943 138.015 46.2973C138.452 46.4216 138.882 46.569 139.303 46.7395C140.054 46.7543 140.225 47.058 139.814 47.6505C139.814 48.4468 139.006 49.6578 138.573 50.2845C138.148 49.1039 136.506 47.7891 135.232 48.2897C133.75 48.8716 133.693 50.5742 133.798 51.9056C132.872 51.4701 132.077 50.8412 131.286 50.2043C130.901 49.8947 130.265 49.5358 129.982 49.1223C129.492 48.406 129.535 48.7774 129.88 47.806C130.261 46.7317 133.081 44.0886 132.102 43.0434Z" fill="#5B2CE7"/>
<path fill-rule="evenodd" clip-rule="evenodd" d="M122.506 0.155536C123.784 0.489561 123.885 1.01097 124.854 1.58585C125.84 2.17137 127.725 1.69382 128.983 2.07949C129.602 2.26928 129.998 2.603 130.51 2.93567L130.614 3.00215C130.956 3.21679 130.913 3.33098 131.272 3.47996C131.459 3.5573 131.879 3.46413 132.1 3.51214C133.629 3.84668 133.766 5.6471 134.74 6.00007C135.49 6.27207 135.842 5.7452 136.665 6.32449C137.13 6.65177 137.59 7.26298 137.836 7.77116C137.956 8.02057 138.073 8.85966 138.178 8.9845L138.249 9.06802C138.481 9.33533 138.408 9.19585 138.661 9.36146L138.697 9.386C139.36 9.84123 140.139 9.83812 140.866 10.6048C141.852 11.645 143.027 12.4693 143.261 13.9713C143.301 14.2261 143.309 14.4605 143.299 14.686L143.291 14.5529L143.299 14.6865C143.279 15.1349 143.19 15.5473 143.138 16.0121L143.109 16.3161C143.066 16.7229 143.016 16.7547 143.118 17.1021C143.193 17.3582 143.634 17.7034 143.74 18.0813C144.575 21.0444 139.769 24.3821 137.298 22.7154C136.289 24.8495 135.561 27.0953 134.591 29.2409C134.059 30.4166 131.263 33.1669 131.465 34.0029C131.631 34.6917 133.223 35.155 133.778 35.4869C134.784 36.0891 135.758 36.8155 136.724 37.4807C137.562 38.0589 138.367 38.6744 139.184 39.2695L139.156 39.2622C139.623 39.3703 139.97 39.6376 140.237 40.0128C140.796 40.3924 141.37 40.7516 141.973 41.0735L142.365 41.2834C142.983 41.6216 143.211 41.8213 143.546 42.6538C143.953 43.6652 143.445 43.312 144.332 43.9583C146.004 45.177 148.525 45.7272 150.455 46.5393L150.629 46.6139C154.957 48.5072 159.197 49.5004 163.956 48.6772C168.133 47.9547 172.043 45.9787 175.952 44.395L176.219 44.2876C180.177 42.7031 184.121 40.9694 187.874 38.957C191.286 37.1265 194.666 35.1942 197.832 32.9289L198.211 32.6554C200.046 31.3193 201.986 30.129 203.749 28.7011C205.482 27.2983 207.098 25.7418 208.857 24.3829C212.305 21.72 215.942 19.1706 219.582 16.7577C220.619 16.0701 221.637 15.3538 222.651 14.6323C223.261 14.1981 224.485 12.9336 225.292 13.0901C227.811 13.5775 225.288 16.8329 224.862 17.7854C226.034 17.1596 227.002 16.2526 228.191 15.6372L228.504 15.4832C229.227 15.1239 230.939 14.1219 231.61 14.57C233.253 15.6666 229.374 19.2817 228.75 20.1208L228.972 19.9905C230.216 19.2509 233.343 17.3 234.139 19.1015C235.019 21.0906 231.866 23.4443 230.656 24.5805L230.616 24.6188C227.14 27.9253 223.125 30.5293 219.588 33.7384L219.52 33.7978C218.967 34.2636 217.507 35.1902 217.622 35.9539C217.732 36.6799 219.13 37.5156 219.688 38.0155L219.901 38.2161C221.08 39.339 223.944 42.2704 221.957 43.7865C221.22 44.3494 219.116 43.8835 218.234 43.7903C216.942 43.6541 215.668 43.5487 214.386 43.3346C212.501 43.0195 210.653 41.5415 208.766 41.4856C206.684 41.4243 204.446 43.231 202.638 44.1541L202.536 44.2053C200.392 45.2687 198.332 46.4462 196.199 47.5324C192.126 49.6058 188.237 51.9289 184.034 53.7976C179.59 55.7732 174.836 57.0765 170.421 59.1191L169.932 59.3491C165.3 61.5645 160.834 62.2684 155.761 62.1119C150.809 61.9593 145.515 58.6787 141.596 55.8692L140.916 55.3779C140.496 54.7366 140.13 54.72 139.817 55.3276L139.644 55.3571C139.126 55.4491 138.845 55.5255 138.159 55.4773C136.97 55.3941 136.352 55.1339 135.299 54.7415L134.478 54.4359C132.237 53.5922 130.479 52.7946 128.824 50.7737C127.643 53.844 130.575 57.0817 132.198 59.5023L132.249 59.5801C133.137 60.9186 134.146 62.195 134.911 63.6097C135.532 64.7589 135.757 66.5443 136.945 67.0491C137.655 67.3507 138.094 66.8516 138.573 67.5674C138.874 68.0181 138.567 68.5331 138.49 68.9234L138.482 68.9663C138.326 69.9699 137.841 68.5555 138.188 70.0356C138.298 70.503 138.956 71.3943 139.175 71.8236C140.666 74.7496 141.882 77.8111 143.158 80.8378C144.427 83.849 145.684 86.8311 146.928 89.8477C147.464 91.1495 148.217 92.3494 148.729 93.6652C149.3 95.1357 149.67 96.666 150.185 98.1561L150.33 98.5614C151.252 101.071 151.429 104.391 150.668 106.985C149.922 109.526 146.686 112.138 144.106 111.975C145.301 114.366 146.655 116.516 147.9 118.864C149.066 121.064 149.881 123.414 151.091 125.535C152.468 127.949 153.671 130.525 155.053 132.89C156.22 134.887 156.952 137.162 158.048 139.192C160.547 143.819 162.957 148.63 165.636 153.221C167.194 155.892 168.599 158.639 170.18 161.301C171.026 162.725 171.89 164.136 172.751 165.55C173.249 166.366 173.811 168.159 174.744 168.554C174.476 168.834 173.615 169.478 173.584 169.887C173.502 170.975 174.602 170.674 175.218 170.523C176.784 170.142 178.291 169.743 179.804 169.2C182.556 168.212 185.182 166.834 187.95 165.899L188.388 165.755C191.329 164.818 194.105 163.207 197.139 162.45L197.544 162.353C199.077 161.968 203.623 160.066 204.031 161.722C204.11 162.041 203.904 162.809 203.908 163.197C203.913 163.882 204.093 164.494 203.995 165.206C203.808 166.57 203.059 167.933 202.329 169.072C200.581 171.798 198.622 174.47 196.318 176.749C192.43 180.596 188.91 185.734 184.152 188.555L183.924 188.687C182.957 189.241 182.041 190.222 180.948 190.513C179.733 190.836 178.701 190.43 177.616 190.385C177.019 190.36 176.986 190.692 176.267 190.421C175.701 190.208 174.981 189.54 174.498 189.15L174.433 189.098C173.215 188.137 172.187 186.92 171.182 185.742C170.293 184.7 169.351 182.711 168.148 182.045C167.48 181.676 167.516 182.269 166.916 181.447C166.585 180.992 166.555 180.528 166.146 180.073C165.709 179.587 165.434 179.518 165.145 178.932C164.943 178.522 164.935 178.123 164.674 177.702C163.806 176.302 162.493 175.101 161.562 173.716C160.172 171.646 158.385 169.856 156.921 167.846C155.17 165.44 153.222 163.044 151.322 160.758C147.814 156.538 144.576 151.901 141.261 147.427L140.829 146.844C137.079 141.811 133.577 136.439 130.45 130.99C128.774 128.069 126.747 125.243 124.987 122.356C123.267 119.534 121.683 116.577 119.671 113.959C119.283 114.266 119.938 115.379 119.461 115.836C118.963 116.314 116.629 116.333 115.992 116.443L115.004 116.614C113.235 116.918 111.398 117.213 109.621 117.306L109.289 117.321C104.736 117.494 100.247 118.419 95.6577 118.618C94.6923 118.66 93.915 118.519 93.0023 118.33L92.2177 118.165C91.2761 117.973 91.0291 118.033 90.7778 119.199L90.3889 121.045C90.0373 122.726 89.7009 124.45 89.5502 126.107C89.339 128.43 89.3011 130.756 89.2686 133.089C89.2533 134.201 89.2232 135.314 89.2284 136.425C89.2362 138.042 89.6758 139.619 89.592 141.233L89.5819 141.413C89.4623 143.393 89.0618 145.095 87.0057 145.657L86.8477 145.699C85.817 145.965 85.7584 145.786 84.9601 145.165C84.0797 144.48 82.9175 143.862 82.176 143.051C79.4199 140.036 77.2367 135.813 76.4049 131.782C75.4625 127.215 76.7311 122.29 77.1934 117.749L77.2142 117.536C77.3949 115.619 77.5114 112.717 78.8059 111.256C80.2411 109.636 83.1713 109.69 85.1002 109.668C85.5408 109.663 85.8809 109.619 86.175 109.541C86.1082 109.535 86.0417 109.531 85.9759 109.533L86.3513 109.488C86.8781 109.315 87.2797 109.026 87.9289 108.668C88.7927 108.192 90.0231 107.938 90.9879 107.59L91.1461 107.532C93.6906 106.552 96.363 106.033 98.9499 105.199L99.3577 105.065C101.552 104.324 103.731 103.889 105.959 103.35C107.59 102.955 109.29 102.88 110.925 102.602C110.738 102.58 110.551 102.558 110.369 102.583C110.756 102.33 111.177 102.468 111.586 102.475C111.983 102.391 112.375 102.29 112.76 102.165C110.198 97.5079 107.858 92.7605 105.018 88.2588C104.398 89.3922 103.345 89.4127 102.113 89.0255C101.424 88.8085 101.137 88.1275 100.492 87.8848C100.09 87.7335 99.8497 88.1924 99.4283 87.8653C99.1829 87.6752 99.0323 87.0039 98.8891 86.4289C96.5229 84.0401 95.4023 81.3307 94.3077 78.1761C95.112 79.6705 95.8465 81.2096 96.6788 82.6882C96.8677 83.0238 97.1085 83.3638 97.3659 83.708L97.2914 83.5978C96.9491 83.0901 96.616 82.5742 96.3234 82.0239C93.7397 77.1651 92.3615 72.3987 91.5188 66.9772C90.7875 62.2697 90.6206 57.3073 90.7624 52.5365L90.7766 52.0899C90.7843 51.8618 90.794 51.635 90.8058 51.4092L90.8249 51.0711C90.9538 48.978 91.2598 46.9684 91.7464 44.8981C91.9367 44.0888 92.334 42.8975 92.3512 42.0935L92.3514 41.9834C92.3443 41.3214 92.2112 39.2094 92.062 39.0844C91.4742 38.5909 89.2614 38.937 88.4793 39.0291L88.3818 39.04C87.1531 39.1675 85.9318 39.3608 84.7031 39.4898L83.9621 39.5609C83.4877 39.4395 83.1415 39.5739 82.9237 39.9642C82.2775 40.0779 83.0942 40.6136 82.1939 40.0893C81.1482 39.4807 81.1747 37.216 81.1708 36.1887C81.1692 35.8002 81.4566 34.1568 81.189 33.8703C80.9826 33.6494 79.5676 33.7379 79.2139 33.7089C77.8697 33.5993 76.517 33.4366 75.169 33.3826C72.5079 33.2757 69.8072 33.3421 67.1464 33.3538C62.4176 33.3741 57.9388 35.5272 53.9891 37.958C52.1651 39.0805 50.1521 39.8622 48.3512 41.0081C46.5793 42.1358 45.0231 43.5207 43.2822 44.7052C40.9494 46.2921 38.5091 47.6327 36.3229 49.4099L36.0392 49.6442C34.9583 50.5516 33.523 51.4589 32.7312 52.6601C31.9357 53.8661 32.4714 55.2308 32.4381 56.6144C32.4018 58.1132 32.4965 59.7029 32.2396 61.1719L32.2205 61.2877C32.1373 61.8167 32.0382 62.6758 31.6024 62.9853C30.9046 63.4808 31.059 63.1396 30.4975 62.8079L30.454 62.7831C27.8007 61.3159 27.3294 58.5695 26.5643 55.9505C22.2835 61.6977 19.4039 68.3142 15.4117 74.287L15.0358 74.8445C14.3899 75.8146 13.3203 77.5898 12.0426 76.6733C11.261 76.1125 11.1127 75.034 11.1912 73.9786L11.1981 73.8934C11.2565 73.2129 11.4049 72.5483 11.5339 72.0448L11.6793 71.4838C12.1366 69.7085 12.5763 67.9119 13.4104 66.272C13.7999 65.5063 14.2546 64.7753 14.6669 64.0218L14.869 63.6429C15.1049 63.1885 15.8365 62.2845 15.8044 61.774L15.1446 62.6118C14.1096 63.1111 13.3203 64.7278 12.4654 65.5321C11.6876 66.2637 10.8041 66.992 9.96423 67.6904C8.50446 68.9036 7.22637 70.216 5.98543 71.6768L5.71592 71.9962C4.93364 72.9137 3.9633 73.7226 3.27568 72.0338C2.73584 70.7081 3.58245 69.5181 4.20145 68.3855C5.01069 66.9048 5.82434 65.5643 6.89909 64.2648C7.80955 63.1646 9.08803 61.9915 9.4449 60.6048C7.63047 61.8633 6.00317 63.3315 4.04132 64.3826L3.94653 64.4317C2.38073 65.216 -0.0219711 65.123 0.920894 62.6655C1.61957 60.8454 3.7727 58.6336 5.19496 57.3079C6.67303 55.9297 8.37015 54.6484 9.95749 53.3855C13.5112 50.5578 17.4586 48.2163 21.2218 45.6657L21.6551 45.3704C25.2092 42.9357 28.8435 40.6375 32.3743 38.2541L32.9472 37.8662C40.6776 32.6152 48.286 26.8438 57.2513 23.8462C61.3652 22.4707 65.6845 21.3879 69.9543 20.6254L70.4285 20.542C72.7112 20.1467 75.1513 19.5819 77.461 19.4799C78.3122 19.4423 79.1342 19.603 79.9761 19.5521C80.8516 19.4994 81.9336 19.7301 82.795 19.5306C83.7015 19.3209 84.5009 18.3523 85.402 18.4114C85.6766 18.4296 85.9319 18.6971 86.2057 18.7614L86.2747 18.7729C86.6343 18.7344 86.9867 18.4541 87.3268 18.7157L87.3675 18.7499C88.6176 18.7861 89.8658 18.8032 91.1099 18.8656L91.0548 18.8891C91.503 18.6877 91.9505 18.7209 92.3977 18.892L91.5576 18.8902C92.5248 18.9478 93.4893 19.0377 94.4501 19.19C98.6159 19.8508 103.477 20.1981 107.452 21.8597C107.434 21.8399 107.417 21.8191 107.399 21.7978C107.754 21.7225 108.022 21.8611 108.237 22.1347C108.199 22.1458 108.162 22.1538 108.127 22.1591C108.578 22.3707 109.017 22.602 109.439 22.855C110.081 21.4758 108.881 21.8916 107.766 21.3767C106.535 20.808 105.564 20.0974 104.643 19.1288C103.856 18.3009 103.182 17.2676 103.457 16.0341C103.599 15.3961 104.31 15.1426 104.437 14.6751C104.48 14.516 104.044 13.9858 104.026 13.7574C103.986 13.2529 103.982 12.8571 104.08 12.3761L104.147 12.0768C104.736 9.37583 104.537 5.99826 107.566 4.85291C108.236 4.59986 108.222 4.88146 108.72 4.35434C109.201 3.84461 109.381 2.99825 109.932 2.44829C110.985 1.39665 112.301 0.577025 113.76 0.253641C115.289 -0.0855749 116.584 0.440508 118.054 0.38886C119.648 0.3328 120.839 -0.280488 122.506 0.155536ZM199.271 166.341C198.18 167.231 197.052 168.107 195.92 168.945C193.332 170.863 190.921 172.962 188.469 175.051C186.251 176.941 183.876 178.634 181.566 180.407C179.371 182.092 177.417 184.08 175.363 185.937L175.524 186.033C176.817 186.808 178.22 187.856 179.772 187.5C181.084 187.198 182.633 186.057 183.765 185.315C186.317 183.644 188.464 181.359 190.597 179.195L190.803 178.986C192.961 176.806 195.023 174.676 197.06 172.413C199.35 169.869 200.97 167.445 202.503 164.396C201.335 163.622 200.054 165.704 199.271 166.341ZM179.693 172.484C178.154 172.982 176.559 173.201 175.024 173.673C173.69 174.083 172.546 175.378 171.705 176.454C171.153 177.16 170.791 177.991 170.297 178.752C170.017 179.182 168.949 180.195 168.962 180.616C168.98 181.159 170.55 182.521 170.919 182.938C171.604 183.711 172.308 184.467 173.024 185.21C174.076 182.997 176.594 181.139 178.473 179.622C180.422 178.046 182.468 176.487 184.487 174.928C188.944 171.483 193.141 168.084 197.956 165.103C197.666 164.408 181.483 171.903 179.693 172.484ZM172.242 171.185L172.072 171.393C170.607 173.165 168.523 175.159 168.064 177.46C168.99 176.392 169.808 175.218 170.704 174.123C171.045 173.707 171.399 173.33 171.775 172.952L171.938 172.79C172.74 171.998 172.994 172.069 172.242 171.185ZM134.39 70.1563C131.586 70.3662 128.753 70.8469 125.984 71.4433L125.588 71.5296C124.889 71.6831 124.194 71.8437 123.506 72.0086C116.72 73.6335 109.976 76.8692 105.077 81.9059L104.913 82.0764C104.684 82.439 104.152 82.9458 104.258 83.4338C103.926 83.2252 103.821 83.0453 103.854 82.883C103.808 82.9503 103.767 83.0233 103.732 83.1028C105.12 83.9754 106.007 85.9793 106.924 87.332C107.958 88.857 109.116 90.2907 110.106 91.8482C112.258 95.2339 114.322 98.7306 116.255 102.246C119.602 108.331 123.723 114.106 127.404 119.995C131.079 125.874 134.585 131.667 138.259 137.538C142.169 143.788 146.656 149.676 150.695 155.769C153.104 159.402 155.855 162.809 158.323 166.408C160.658 169.814 162.96 173.219 165.339 176.594C166.593 173.071 169.039 170.045 172.419 168.263C167.816 161.73 163.412 155.111 159.36 148.216C156.044 142.572 153.1 136.912 150.035 131.205L149.55 130.303C146.357 124.38 143.206 118.451 139.979 112.532C138.367 109.576 137.01 106.47 135.627 103.382C134.156 100.096 133.538 96.4361 131.945 93.2118L131.778 92.8773C131.059 91.4498 130.199 89.8367 130.291 88.218C130.385 86.571 131.529 84.89 132.409 83.5627L132.468 83.4714C133.004 82.6186 133.972 80.5846 135.008 80.5744C136.928 80.5554 134.695 84.4385 134.355 85.2726L134.345 85.297C132.947 88.8884 134.894 91.9938 136.357 95.211C137.787 98.353 138.923 101.65 140.444 104.755C141.083 106.058 141.731 107.33 142.312 108.653L142.412 108.889C142.661 109.49 143.133 110.629 143.575 110.758C143.867 110.842 145.315 109.905 145.538 109.763C146.671 109.04 148.216 107.784 148.896 106.613C149.57 105.454 149.297 103.477 148.988 102.238C148.117 98.7418 146.311 95.4115 144.848 92.1291L143.613 89.3305C142.41 86.6042 141.212 83.8517 140.186 81.0745C139.46 79.1124 138.807 77.1327 138.014 75.1947C137.639 74.2766 137.249 73.3646 136.839 72.4613L136.493 71.7073C135.945 70.4958 135.825 70.0487 134.39 70.1563ZM82.3932 112.965L82.1913 113.064C80.9026 113.701 80.5448 114.091 80.2671 115.568C79.9842 117.074 80.0868 118.56 79.9604 120.071L79.9357 120.338C79.6792 122.828 79.3631 125.318 79.2108 127.78C79.0149 130.938 80.1473 133.891 81.5115 136.653L81.5889 136.81C82.2043 138.045 82.8316 139.246 83.7651 140.281C84.1951 140.758 84.6764 141.181 85.1678 141.591L85.6611 141.999C86.4939 142.685 86.6208 143.109 87.1643 142.179C87.8321 141.036 87.2995 139.181 87.1101 137.948C86.8116 136.004 86.6566 134.148 86.681 132.174C86.741 131.461 86.787 130.748 86.8287 130.034L86.8594 129.497C86.9819 127.317 87.0863 125.137 87.4446 122.974C87.5736 122.197 87.7293 121.423 87.9224 120.658C88.0984 119.961 88.8137 118.696 88.7563 118.012C88.6984 117.322 87.6242 116.034 87.4215 114.887C87.3171 114.295 87.3056 113.671 87.2777 113.067L87.2676 112.867C87.2141 111.904 87.4446 111.671 86.611 111.403C85.6331 111.088 83.2881 112.521 82.3932 112.965ZM67.7432 105.448C67.3645 106.597 65.8247 107.742 65.0289 108.599C62.8563 110.938 61.174 113.316 59.4689 115.994C56.7328 120.291 54.2392 125.297 53.0972 130.325C50.2133 131.122 51.178 125.256 51.5857 124.013L51.5978 123.977C52.5794 121.131 53.7237 118.333 55.213 115.715C56.5789 113.315 58.4442 110.714 60.3521 108.713L61.2411 107.777C61.7338 107.261 62.2478 106.735 62.7441 106.277L63.5557 105.539C64.4063 104.77 65.5999 103.744 66.3383 103.622C67.4468 103.44 68.1278 104.28 67.7432 105.448ZM171.624 87.5458L171.805 87.8858C173.467 90.9686 174.297 94.7601 174.905 98.2053L174.946 98.4397C175.501 101.617 175.941 105.087 175.857 108.314C175.94 108.867 175.973 109.424 175.98 109.982L175.998 109.255C176.165 109.663 176.185 110.066 175.981 110.463C175.972 111.276 175.923 112.091 175.906 112.905C175.88 114.081 176.13 116.484 175.328 117.495C174.105 119.038 173.739 116.272 173.663 115.516C173.473 113.623 173.446 111.708 173.296 109.811L173.219 108.857C172.694 102.573 171.82 95.7535 169.476 89.9202L169.355 89.6245C169.113 89.0369 168.731 87.7781 168.265 87.3618C167.935 87.0673 167.681 87.3904 167.301 86.8755C166.904 86.3387 166.343 83.2134 167.027 82.6076C168.346 81.4391 170.785 85.9644 171.624 87.5458ZM55.3927 103.373C57.4275 104.792 49.959 108.252 48.9577 108.888C47.1677 110.024 45.3836 111.126 43.6341 112.328C41.7963 113.59 40.0571 115.101 38.1677 116.252C35.8707 113.548 42.0755 109.647 44.2155 108.467L44.402 108.365C46.2517 107.371 48.0174 106.247 49.9209 105.371L50.2795 105.21C51.2556 104.782 54.361 102.654 55.3927 103.373ZM113.302 104.398C112.901 104.461 112.126 104.945 111.739 105.081C107.921 106.425 103.516 107.061 99.9979 108.968C97.6221 108.991 95.116 110.41 92.8381 111.065C91.9333 111.325 90.1215 111.583 89.361 112.1C88.509 112.68 88.9157 115.075 88.9157 116.133C90.3979 114.744 92.1365 115.028 94.0979 114.945C96.8565 114.827 99.5972 114.555 102.341 114.397C105.105 114.238 107.81 113.823 110.581 113.791L111.019 113.79C113.898 113.801 116.716 113.2 119.551 113.754C119.057 111.812 117.278 109.733 116.196 108.072C115.53 107.049 115.041 105.747 114.284 104.799C113.709 104.078 114.114 104.272 113.302 104.398ZM93.9343 114.941L92.9535 114.957C93.2764 114.695 93.6044 114.756 93.9343 114.941ZM180.822 91.3555L181.003 91.8718C182.337 95.6978 183.532 99.4532 183.614 103.562L183.624 104.086C183.645 105.554 183.616 107.54 183.057 108.755C182.011 111.03 181.069 109.017 181.111 107.455C180.768 103.528 180.299 99.5763 179.451 95.7214C179.057 93.9285 178.186 91.663 178.501 89.8047C178.959 87.0996 180.489 90.4265 180.822 91.3555ZM189.872 98.8785L189.948 99.0845C190.407 100.376 191.068 102.988 190.356 104.102C189.35 105.672 188.598 103.912 188.304 102.785C187.842 101.01 187.875 99.1655 187.206 97.4482C188.227 95.2735 189.296 97.3641 189.872 98.8785ZM46.6513 97.2087C46.6513 98.4641 44.7362 98.8487 43.7011 99.3683C42.9389 99.7508 42.0453 100.868 41.5579 99.9772C40.739 98.4794 45.6443 97.2087 46.6513 97.2087ZM86.6123 20.875C87.4866 23.4722 88.1233 26.4514 87.7545 29.2067C87.5648 30.6227 87.0397 32.0084 86.5653 33.3502C86.2725 34.1786 85.0387 36.1605 85.3693 37.0598C86.7314 36.7769 88.9702 37.249 90.0729 36.4906C91.3268 35.6284 91.2128 33.8275 93.1895 33.707C96.2227 33.5222 98.666 36.2152 98.8778 39.2318C98.9873 40.7932 97.8378 42.4439 96.6699 43.366C96.0773 43.834 95.513 44.0011 94.8717 44.279L94.7506 44.3325C94.2911 44.5394 94.1562 44.5304 94.1258 44.5198L94.1313 44.5295C94.1498 44.5693 94.1635 44.706 93.9787 45.1285C93.7293 45.6992 93.8007 46.6037 93.727 47.2136C93.619 48.1078 93.2603 49.2243 93.3782 50.1052L93.4224 50.4377C93.5126 51.073 93.5993 51.1101 94.4916 50.8166C95.3776 50.5252 96.4516 49.5332 97.3075 48.6842L98.0758 47.9141C98.946 47.0512 99.8077 45.2007 101.058 46.6816C102.017 47.8173 102.015 50.6678 101.868 52.0761C101.536 55.2742 97.9684 57.8943 95.3721 59.4626L95.1926 59.5703C93.3538 60.666 93.6174 61.3839 93.7332 63.4522C93.8197 65.001 94.051 66.5611 94.2615 68.1011L94.3135 68.4856C94.5832 70.4968 95.2289 70.5277 96.2159 69.0361L96.4304 68.7143C97.1958 67.5799 98.353 66.0831 99.8305 66.6793C101.414 67.3183 101.307 69.3494 101.646 70.716L101.663 70.7849C102.168 72.6969 102.006 74.1358 100.38 75.5331C99.6413 76.1677 97.2616 77.2004 97.0592 78.2292C96.9608 78.7293 98.115 80.2941 98.3904 80.8287C98.9655 81.9458 99.5681 83.048 100.316 84.061C100.563 82.401 101.987 80.9878 102.921 79.6601L102.99 79.5606C104.075 77.9789 105.395 76.8497 106.936 75.7042L107.102 75.5814C107.693 75.1467 109.183 74.5625 108.485 73.8075C107.88 73.1516 107.249 73.6362 106.649 72.5848C105.711 70.9432 105.522 68.3674 105.437 66.4179L105.411 65.7753C105.346 64.022 105.328 61.6764 106.338 60.203C107.62 58.3312 108.905 58.2598 110.827 59.0574C112.299 59.6685 113.084 62.012 113.871 63.4646L113.916 63.5459C115.273 65.9886 115.3 68.0636 115.3 70.7662C116.692 69.9802 118.213 69.6576 119.715 69.2045L119.911 69.1446C120.992 68.809 122.899 68.5915 123.725 67.7828C122.838 67.2941 122.365 66.2321 122.549 65.2297C122.851 63.5871 123.695 64.3019 124.945 64.0846C125.506 63.9873 125.911 63.564 126.475 63.483C127.017 63.4057 127.596 63.6029 128.139 63.701L128.248 63.7192C129.662 63.938 131.04 64.2715 132.445 64.5054C131.663 63.4618 130.873 62.0413 129.614 61.6479C128.097 61.1734 126.272 61.0969 124.687 60.7008C122.643 60.1903 119.12 56.9484 122.113 54.9463C123.244 54.1895 124.731 55.149 125.802 54.1345C126.817 53.1726 126.517 51.1734 126.79 49.8781C127.417 46.8929 129.2 44.1952 132.102 43.0434C133.084 44.0918 130.336 46.6583 129.896 47.7636L129.88 47.8059C129.651 48.4498 129.476 48.3787 129.712 48.9131C129.876 49.2848 130.679 49.705 131.026 49.9891L131.317 50.2269C132.094 50.8596 132.885 51.4758 133.798 51.9056L133.788 51.7664C133.698 50.4563 133.795 48.854 135.232 48.2897C136.51 47.7872 138.149 49.1067 138.573 50.2845L138.751 50.024C139.195 49.3615 139.814 48.3474 139.815 47.6505C140.225 47.0579 140.054 46.7543 139.303 46.7395C138.986 46.6076 138.663 46.4934 138.333 46.3966L138.157 46.3261C136.846 45.7937 135.854 45.1676 135.423 43.6881C135.087 42.5339 135.012 41.3229 134.617 40.1825C134.822 39.5897 134.612 39.2186 133.986 39.0691L133.401 38.6481C132.755 38.1732 132.09 37.6743 131.489 37.1433C131.016 36.7249 130.574 35.8576 130.097 35.536C129.99 35.3125 129.845 35.1161 129.662 34.9471C129.239 35.2072 128.815 35.4646 128.389 35.7198L128.081 35.9066C126.716 36.7279 125.383 37.4112 123.719 37.2806C122.323 37.1708 120.254 36.693 118.952 36.1734C117.53 35.6058 116.552 33.991 115.674 32.8137C113.276 34.6022 111.286 33.6432 110.399 30.8682C110.004 29.6302 109.781 28.318 109.669 27.0252C109.577 25.9687 109.892 25.033 109.083 24.4574C108.072 23.7384 105.853 23.6974 104.66 23.5059L104.365 23.4568C103.124 23.2432 101.709 22.9349 100.476 23.1197L100.577 23.4936C101.15 25.5969 101.837 27.943 100.277 29.618L99.8597 30.064C98.488 31.5092 97.6332 32.0989 95.6935 30.367C94.0652 28.9129 92.7231 26.9266 91.5336 25.1034C90.91 24.1472 90.6325 22.9007 90.0018 21.9946C89.2759 20.9518 87.8331 21.0621 86.6123 20.875ZM84.5544 21.3196C84.0593 21.3103 82.942 21.5115 82.3468 21.6274L82.1983 21.6567C80.7423 21.9479 79.2954 22.1846 77.7701 22.428C74.6613 22.9238 71.5664 23.5527 68.4721 24.1218L67.5438 24.2905C64.4207 24.8508 60.9556 25.6159 57.9868 26.8046L57.1425 27.143C54.1947 28.3262 51.3236 29.51 48.5028 31.0143C45.4047 32.6663 42.7444 34.8192 39.7828 36.6419C34.231 40.0585 28.6123 43.5721 23.1672 47.1999C19.7042 49.5069 16.0094 51.5043 12.651 53.9411C11.0937 55.071 9.57357 56.2467 8.08349 57.4625L7.5879 57.8692C6.37482 58.8703 4.17316 60.2497 3.85056 61.9222C5.4763 61.9222 7.67589 59.081 9.00135 58.1918C9.96657 57.5443 11.047 57.0211 12.0501 56.4314C12.6258 56.093 14.4654 54.3304 15.0914 54.3214C15.9943 54.3081 16.1264 55.5983 15.9014 56.1815C15.6097 56.9372 14.7499 57.5578 14.1786 58.0992C12.3164 59.8643 10.7719 62.1872 9.53366 64.4311C11.7692 63.6089 13.6302 60.945 15.2295 59.1809L15.3753 59.0226C16.3488 57.9933 20.5433 54.2113 20.2386 57.9393C20.1236 59.3468 19.108 60.4226 18.4 61.5866L17.939 62.3443C17.3236 63.3578 16.7112 64.3847 16.1724 65.4324C14.8044 68.0917 13.7706 70.8272 12.9538 73.7096C14.3704 73.1516 14.7408 71.591 15.4018 70.3696C16.0748 69.1262 16.862 67.9245 17.6177 66.7306C19.1212 64.3554 20.4397 61.8649 22.0017 59.5255L22.3606 58.9962C23.1094 57.8784 26.0187 52.9344 27.202 53.6479C28.0151 54.1379 28.2557 56.4439 28.4997 57.2534C28.8858 58.5339 29.4807 59.8757 30.7672 60.4558C30.8261 57.8402 30.7364 55.2279 30.7781 52.619C30.8102 50.6392 31.8442 50.0235 33.1747 48.6971L33.3237 48.5466C36.5734 45.2233 40.7286 43.0795 44.5856 40.5729C46.3021 39.4574 47.8913 38.0058 49.7872 37.0769C51.9193 36.0325 53.9907 34.8275 56.0727 33.6575C60.4441 31.2013 65.3488 30.2713 70.3217 30.7215L70.5495 30.7431C75.3364 30.0722 80.7039 30.9998 85.1103 32.8596C86.057 29.5961 86.4212 26.1648 85.7157 22.812L85.5737 22.1558C85.4334 21.5256 85.3254 21.3359 84.5544 21.3196ZM223.882 15.9183C222.49 17.1786 220.668 18.224 219.131 19.2747C217.719 20.2394 216.406 21.3372 215.012 22.3014C211.39 24.8064 208.08 27.7688 204.57 30.4576C197.979 35.5077 191.109 40.0649 183.567 43.5858C180.22 45.1482 176.782 46.5202 173.343 47.8617L172.698 48.113C169.138 49.4986 165.781 51.3951 161.847 51.4091L160.39 51.4167C158.822 51.4217 157.222 51.3982 155.695 51.1664C153.534 50.8381 151.28 49.544 149.31 48.6338C148.384 48.2059 147.439 47.7979 146.548 47.3001C145.729 46.8425 144.624 45.6717 143.759 45.5204C141.804 45.1786 141.603 49.1942 141.098 50.5965C140.926 51.0732 140.344 51.9043 140.338 52.3725L140.332 52.5733C140.31 53.1527 140.263 52.8815 140.879 53.3031L140.976 53.3717C141.778 53.9528 142.871 54.4319 143.785 54.8915L143.955 54.9775C145.745 55.8968 147.656 56.7166 149.501 57.4807C151.477 58.2993 153.387 58.8394 155.526 59.0712C156.449 59.1712 157.32 59.198 158.194 59.2046L158.252 59.18C158.609 59.0327 158.966 58.9476 159.329 59.2015L159.036 59.2064L159.679 59.206C160.112 59.2063 160.552 59.2089 161.006 59.2199L159.986 59.1952C160.33 59.032 160.671 58.9977 161.006 59.2199C165.917 58.6791 170.239 55.8957 174.841 54.3456L175.087 54.2637C179.872 52.7024 184.839 50.4584 189.384 48.1044L192.623 46.4242C195.596 44.8844 198.586 43.3562 201.624 41.9289L202.454 41.5422C204.997 40.367 207.701 37.9331 210.609 38.8529C211.951 39.277 213.149 40.1049 214.539 40.3925C216.139 40.7231 217.691 40.7797 219.273 41.2547C219.174 40.5189 217.088 39.4143 216.605 38.6507C216.283 38.1412 216.237 37.5625 215.97 37.0598C215.725 36.6001 215.347 36.5612 215.252 36.0193C214.893 33.9826 218.155 31.8505 219.519 30.6673L219.617 30.5814C223.757 26.8695 228.624 23.9056 232.75 20.0914C230.264 20.0914 227.263 23.2671 225.402 24.7172L224.721 25.2488C223.812 25.9562 222.9 26.6553 221.951 27.3093L221.538 27.5906C221.086 27.9055 219.536 29.0713 219.096 28.9339C217.806 28.5311 219.035 26.2791 219.503 25.775C220.417 24.788 221.65 23.9946 222.701 23.1607C224.912 21.4052 226.932 19.5332 228.807 17.3785C226.957 17.4893 224.407 20.5477 223.099 21.7618L222.426 22.3855C221.102 23.6037 219.498 24.9929 217.918 25.5845L217.812 25.6232C216.923 25.9351 216.48 25.8017 216.411 24.6813C216.331 23.3827 217.318 22.6853 218.197 21.9194L218.462 21.6881C220.249 20.1347 222.929 18.0254 223.882 15.9183ZM118.316 50.0852C118.564 52.2723 116.951 54.9788 114.532 55.0691C112.022 55.1623 111.802 52.3133 111.875 50.4564L111.89 50.1072C111.921 49.2175 111.851 48.6618 112.495 48.0169C112.778 47.733 113.466 47.6113 113.803 47.3375C114.237 46.9847 114.529 46.4711 114.955 46.1039C117.151 44.2111 118.578 48.331 118.316 50.0852ZM108.549 34.977C109.386 35.4974 110.299 36.8322 110.699 37.6936C111.41 39.222 111.969 40.684 112.324 42.3274L112.299 42.4368C111.865 44.2769 110.174 48.7069 107.512 47.6303C104.787 46.5281 104.629 43.1458 104.611 40.7356L104.609 40.4899C104.6 38.7276 105.572 33.1258 108.549 34.977ZM127.027 43.1101C127.068 44.7174 124.992 46.4701 123.718 47.1498C121.664 48.2452 121.233 45.539 121.359 44.0287L121.363 43.9824C121.517 42.3055 122.191 41.3774 123.735 40.6642C126.028 39.605 126.548 41.1651 127.027 43.1101ZM122.452 17.4623C121.724 17.6931 120.647 19.0282 120.035 19.6718L119.935 19.775C119.571 20.1402 118.947 21.2604 118.428 21.325C117.657 21.4213 117.727 21.0569 117.203 20.4288C115.227 18.0616 113.137 18.0701 112.002 20.943C112.664 21.2708 113.364 21.3307 114.087 21.3055C114.333 21.2972 115.277 21.0151 115.458 21.1353C116.486 21.816 114.981 22.4044 114.774 22.7532C114.617 23.0179 114.541 23.2534 114.48 23.4643L114.468 23.2268L114.479 23.4659L114.418 23.6772C114.296 24.0829 114.14 24.3891 113.357 24.639C112.463 24.9248 111.712 24.6749 110.823 24.3951L110.84 24.6934C110.939 26.4817 110.998 29.3453 112.157 30.7048L112.225 30.7814L113.263 31.2561C113.216 31.2598 113.169 31.2622 113.123 31.2629C113.718 31.2743 114.426 31.0084 114.848 30.9186L114.826 30.8176C114.596 29.8411 113.687 27.0762 114.121 26.4683C114.971 25.2762 115.343 27.0527 115.555 27.8563C116.053 29.7478 117.139 32.2325 118.848 33.421C118.831 33.3944 118.816 33.3655 118.801 33.3341L119.037 33.3732C119.367 33.4295 119.684 33.5129 119.847 33.8856C119.774 33.8552 119.697 33.8329 119.618 33.8132L119.46 33.7756L119.705 33.889C121.374 34.6522 124.201 35.7565 125.748 34.9489C127.997 33.7748 129.81 31.8301 131.708 30.2002C130.4 29.5539 130.222 28.5516 131.238 27.5015C133.394 29.8122 134.712 24.8542 135.405 23.3416C134.079 23.2246 132.889 24.0226 131.533 23.7509C130.427 23.5295 129.094 23.1405 128.147 22.5189C126.882 21.6881 125.772 20.4888 124.685 19.4501C124.034 18.8283 123.151 17.2404 122.452 17.4623ZM82.6367 34.0102L82.8181 34.7564L82.9157 34.5709C83.1747 34.0716 83.1258 34.066 82.6367 34.0102ZM124.366 33.5969L124.297 33.5887C123.67 33.5081 121.75 33.1331 123.069 32.5424C123.769 32.2286 124.432 32.9535 124.366 33.5969ZM130.773 25.9169C131.071 26.6185 129.882 27.8754 129.548 28.4783C129.025 29.4233 128.114 33.3745 126.638 32.9743C125.016 32.9701 125.284 31.4248 126.176 30.6724C126.487 30.4101 126.828 30.3976 127.136 30.063C127.404 29.7724 127.57 29.1897 127.748 28.8339L127.867 28.5932C128.26 27.7815 128.643 26.8889 129.272 26.2504L129.493 26.0278C129.978 25.5496 130.461 25.1844 130.773 25.9169ZM122.931 24.9745C123.718 25.0664 123.204 25.4424 123.609 25.7775C123.879 26.0016 123.921 26.1124 123.898 26.1632L123.895 26.1689L123.915 26.1677C124.008 26.1624 124.168 26.1646 124.431 26.1861L124.56 26.1974C125.309 26.2675 127.614 25.5956 126.149 27.0775C125.831 27.4001 123.913 28.3015 123.486 28.0957C122.534 27.6371 122.938 25.7697 122.931 24.9745Z" fill="#F5F6F8"/>
</svg>
