<svg width="48" height="48" viewBox="0 0 48 48" fill="none" xmlns="http://www.w3.org/2000/svg">
<path d="M44 24V34C44 40 40 44 34 44H14C8 44 4 40 4 34V24C4 18.56 7.28 14.76 12.38 14.12C12.9 14.04 13.44 14 14 14H34C34.52 14 35.02 14.02 35.5 14.1C40.66 14.7 44 18.52 44 24Z" stroke="#C9C4FF" stroke-width="1.5" stroke-linecap="round" stroke-linejoin="round"/>
<path d="M35.5028 14.1C35.0228 14.02 34.5228 14 34.0028 14H14.0028C13.4428 14 12.9028 14.04 12.3828 14.12C12.6628 13.56 13.0628 13.04 13.5428 12.56L20.0428 6.04C22.7828 3.32 27.2228 3.32 29.9628 6.04L33.4628 9.58004C34.7428 10.84 35.4228 12.44 35.5028 14.1Z" stroke="#C9C4FF" stroke-width="1.5" stroke-linecap="round" stroke-linejoin="round"/>
<path d="M44 25H38C35.8 25 34 26.8 34 29C34 31.2 35.8 33 38 33H44" stroke="#C9C4FF" stroke-width="1.5" stroke-linecap="round" stroke-linejoin="round"/>
</svg>
